<?xml version="1.0" encoding="utf-8"?>
<!-- Generator: Adobe Illustrator 23.0.2, SVG Export Plug-In . SVG Version: 6.00 Build 0)  -->
<svg version="1.1" id="Layer_1" xmlns="http://www.w3.org/2000/svg" xmlns:xlink="http://www.w3.org/1999/xlink" x="0px" y="0px"
	 viewBox="0 0 468 405" style="enable-background:new 0 0 468 405;" xml:space="preserve">
<g>
	<g>
		<path d="M331.6,246.89c-1.28,3.28-2.35,6.66-5.05,9.16c-0.21,0.2-0.39,0.55-0.4,0.83c-0.03,3.64-1.12,7.12-1.61,10.69
			c-0.2,1.47,0.45,2.21,1.57,2.89c8.96,5.37,15.48,12.78,18.81,22.79c0.62,1.87,1.99,3.49,1.9,5.64c-1.47-0.99-1.96-2.54-2.59-3.99
			c-4.28-9.89-11.66-16.86-20.87-22.08c-1.87-1.06-3.43,0.4-4.96,1.2c-1.76,0.92-3.31,2.28-5.11,3.08c-1.59,0.7-1.7,1.34-0.79,2.65
			c2.73,3.94,5.34,7.95,8.12,11.85c1.14,1.59,1.73,3.03,0.38,4.74c-0.68,0.86-0.46,1.61,0.4,2.25c1.98,1.48,3.56,3.46,5.81,4.63
			c3.38,1.76,3.3,5.28,4.07,8.3c1.54,6.05,2.69,12.21,4.43,18.2c0.75,2.58,1.51,5.17,2.25,7.76c0.2,0.69,0.48,1.35,0.15,2.19
			c-3.38-7.55-5.17-15.5-7.48-23.28c-0.87-2.92-1.68-5.85-2.5-8.78c-0.2-0.72-0.48-1.41-1.1-1.8c-2.27-1.43-3.89-3.55-5.81-5.35
			c-0.9-0.84-1.72-1.61-3.82-0.8c3.1-3.75,1.12-5.91-0.8-8.47c-2.54-3.38-4.5-7.2-6.71-10.82c-0.54-0.89-1.02-1.89-2.32-1.78
			c-4.93,0.41-9.7-0.49-14.87-1.96c1.2,3.02,2.67,5.48,4.29,7.75c3.47,4.83,5.76,10.33,8.95,15.28c5.16,8,9.29,16.56,13.89,24.86
			c2.68,4.82,4.2,10.22,6.4,15.27c2.12,4.86,3.15,9.83,3.66,15c0.09,0.92,0.29,1.91-0.6,3.17c-1.49-5.28-3.87-9.89-5.64-14.76
			c-1.54-4.21-3.04-8.49-5.14-12.42c-3.28-6.12-6.18-12.48-10.23-18.16c-5.34-7.48-11.59-14.04-19.9-18.31
			c-0.89-0.46-1.46-1.24-2.26-1.75c-0.56-0.36-1-1.82-1.94-0.17c-0.45,0.79-0.92-0.23-1.18-0.57c-1.05-1.38-2.02-2.82-3.45-4.86
			c-0.37,4.33,0.48,7.79,1.15,11.24c1.23,6.31,4.75,11.52,8.02,16.92c2.73,4.5,4.59,9.52,7.06,14.19
			c4.54,8.6,7.66,17.72,10.28,27.04c0.45,1.61,0.52,3.33,1.43,4.82c0.25,0.41,0.37,1.01-0.25,1.19c-0.7,0.2-0.67-0.48-0.79-0.91
			c-1.99-7.01-4.3-13.93-7.3-20.56c-3.19-7.05-6.38-14.14-10.15-20.88c-2.64-4.73-5.2-9.52-7.92-14.21
			c-1.11-1.91-2.45-2.62-4.53-2.13c-0.39,0.09-0.78,0.17-1.18,0.26c-5.47,1.15-5.99,2.01-4.32,7.17c2.1,6.47,3.93,13.04,6.34,19.4
			c4.37,11.54,7.17,23.52,10.25,35.42c0.32,1.23,1.35,2.16,1.32,3.54c-0.03,1.25,1.02,2.38,0.43,3.99
			c-3.24-6.05-4.48-12.57-6.63-18.77c-1.44-4.16-2.43-8.49-4.07-12.56c-3.77-9.35-6.04-19.19-9.53-28.62
			c-1.78-4.82-3.86-9.62-6.52-14c-3.56-5.85-9.64-8.65-15.8-11.1c-0.94-0.37-1.51,0.22-2.1,0.76c-3.56,3.21-7.11,6.44-10.69,9.63
			c-3.09,2.76-6.21,5.48-9.28,8.19c-0.97-0.49,0.5-1.76-0.84-1.91c-0.54-0.06-1.22-0.12-1.52,0.44c-0.44,0.8,0.31,1.3,0.64,1.92
			c4.64,8.59,10.16,16.65,15.15,25.03c3.42,5.76,6.52,11.73,10.19,17.32c3.53,5.37,6.04,11.27,9.43,16.67
			c3.47,5.52,6.13,11.39,8.77,17.3c0.22,0.5,0.66,0.94,0.15,1.75c-1.03-1.9-1.99-3.7-2.98-5.48c-4.52-8.1-8.79-16.35-13.67-24.22
			c-3.28-5.31-5.97-10.97-9.48-16.1c-3.39-4.96-5.92-10.43-9.37-15.31c-3.66-5.16-6.53-10.82-10.25-15.91
			c-6.64-9.1-12.95-18.42-19.44-27.62c-3.18-4.51-6.17-9.15-9.38-13.63c-2.86-3.99-6.58-7.2-10.1-10.53
			c-3.37-3.19-5.88-6.93-8.37-10.73c-2.38-3.62-4.32-7.41-5.09-11.78c-0.75-4.25,0.24-7.11,3.77-9.52c0.2-0.14,0.4-0.27,0.58-0.44
			c0.55-0.52,1.64-0.94,1.1-1.85c-0.46-0.79-1.26-0.03-1.91,0.15c-2.62,0.75-4.76,2.33-6.68,4.15c-2.61,2.47-5.38,4.76-7.79,7.46
			c-3.14,3.51-6.43,6.9-9.71,10.29c-1.14,1.18-1.6,2.47-1.55,4.11c0.29,11.63,0.81,23.24,2.13,34.81c0.22,1.92,1.09,2.78,2.77,3.39
			c11.43,4.13,22.84,8.33,34.25,12.51c0.21,0.08,0.4,0.22,0.57,0.6c-2.32,0.31-4.51-0.61-6.73-1c-2.6-0.45-5.15-1.18-7.71-1.83
			c-1.53-0.38-2.68-0.12-3.82,1.16c-3.02,3.41-6.17,6.7-9.33,9.98c-1.12,1.16-1.36,2-0.18,3.41c7.4,8.81,14.57,17.82,22.09,26.53
			c2.93,3.39,5.62,6.96,8.54,10.34c6.89,7.99,13.49,16.21,20.28,24.28c3.4,4.04,6.44,8.39,10.09,12.18c3.12,3.23,5.6,6.9,8.47,10.42
			c-0.84,0.29-1.01-0.32-1.28-0.61c-4.57-4.81-9.07-9.69-13.67-14.46c-7.1-7.37-14.21-14.73-21.14-22.26
			c-5.3-5.76-10.85-11.28-16.24-16.96c-7.55-7.94-15.02-15.95-22.6-23.87c-3.24-3.38-3.21-3.2,0.03-6.58
			c3.99-4.16,8.02-8.26,12.11-12.31c1.97-1.95,1.9-2.13-0.87-2.84c-5.35-1.38-10.71-2.72-16.1-3.97c-1.48-0.34-2.11-1.08-2.31-2.54
			c-1.4-10.27-1.92-20.59-2.18-30.94c-0.04-1.48,0.74-3.6-0.53-4.3c-1.5-0.82-2.77,1.13-4.07,1.97
			c-11.39,7.42-22.74,14.91-34.12,22.35c-6.3,4.11-12.62,8.19-18.95,12.24c-7.54,4.83-15.09,9.64-22.67,14.39
			c-1.37,0.86-2.81,1.77-4.88,1.76c2.85-2.96,6.24-4.66,9.26-6.84c8.25-5.93,16.54-11.8,24.83-17.67
			c6.46-4.58,12.93-9.14,19.41-13.68c10.22-7.15,20.44-14.28,30.69-21.39c1.14-0.79,1.23-2.16,2.15-3.1
			c5.34-5.52,10.44-11.29,15.91-16.67c3.37-3.32,7.35-5.93,12.24-6.67c1.79-0.27,3.14-1.11,3.62-2.99c0.04-0.15,0.15-0.29,0.18-0.45
			c1.42-7.95,7.41-11.07,14.18-13.22c1.67-0.53,2.52-1.44,3.12-2.95c1.67-4.18,3.09-8.43,3.6-12.92c0.84-7.49,1.66-15,1.19-22.55
			c-0.41-6.47-1.5-12.83-3.08-19.14c-1.83-7.3-2.77-14.81-4.4-22.15c-1.71-7.73-2.42-15.47-2.54-23.31
			c-0.07-4.66,0.3-9.41,1.76-13.79c1.83-5.5,3.25-11.21,6.25-16.27c1.13-1.9,0.33-2.08-1.38-2.08c-1.28,0-2.77,0.56-3.79-0.82
			c3.07,0.21,5.81-0.41,8.19-2.63c1.21-1.13,2.51-2.21,3.76-3.32c3.06-2.71,6.56-4.08,10.71-3.36c-1.71,0.6-3.59,0.73-5.2,1.74
			c4.44-0.03,8.81,0.2,13.01,1.65c5.2,1.79,9.71,4.84,14.32,7.73c5.01,3.13,9.93,6.46,15.55,8.49c1,0.36,2.02,0.53,2.56-0.47
			c0.57-1.08-0.74-1.25-1.27-1.6c-6.81-4.56-11.9-11.14-18.69-15.73c4.2,1.56,7.84,4.02,11.47,6.87c0.17-1.3-0.61-1.75-1.09-2.3
			c-1.96-2.21-4.18-4.12-6.47-6c-7.68-6.28-16.42-8.33-26.09-7.33c-3.77,0.39-7.07,1.77-10.2,3.88c-3.95,2.66-7.03,7-12.53,6.84
			c-0.02,0-0.04,0.27-0.09,0.57c0.72,0.14,1.44,0.28,2.68,0.51c-2.73,1.09-4.53-0.64-6.71-0.95c1.06,3.23,3.51,4.48,6.17,5.48
			c-4.09-0.03-6.29-2.64-8.01-5.89c-0.69-1.31-0.39-1.88,1.18-1.85c2.81,0.05,5.6-0.24,8.28-1.2c1.23-0.45,2.45-0.93,3.39-2.11
			c-3.42,0.58-6.68,1.04-10.13-1.11c2.44-0.66,4.47-0.06,6.51-0.56c4.03-0.99,6.74-3.5,8.53-6.81c2.85-5.25,7.07-8.34,12.71-9.76
			c1.32-0.33,2.46-0.7,3.16-2.18c2.44-5.2,6.98-7.51,12.4-8.22c2.44-0.32,4.97-0.18,7.44-0.03c1.78,0.11,2.66-0.48,3.01-2.24
			c1.7-8.57,7.06-11.74,15.5-9.24c0.08,0.02,0.16,0.02,0.23,0.06c3.4,1.74,6.44,2.65,9.8-0.71c2.05-2.05,5.54-2.03,8.48-2.11
			c13.07-0.35,25.93,0.9,38.14,6.01c4.89,2.04,9.56,4.51,13.42,8.25c0.64,0.62,1.38,0.7,2.17,0.83c7.2,1.21,13.35,4,16.49,11.19
			c0.46,1.05,1.37,1.21,2.36,1.32c3.06,0.36,5.87,1.3,8.49,3.06c2.11,1.42,3.56,3.2,4.37,5.5c0.39,1.1,0.97,1.44,2.07,1.56
			c4.12,0.43,7,2.55,8.3,6.55c0.31,0.96,0.85,1.24,1.73,1.3c1.2,0.08,2.4,0.16,3.59,0.33c2.86,0.41,4.53,1.91,4.94,4.69
			c0.18,1.22,0.92,1.81,1.75,2.42c4.17,3.06,7.9,6.49,10.23,11.24c0.36,0.74,0.74,1.41,0.57,2.25c-1.98-3.27-3.99-6.51-6.72-9.23
			c-0.38-0.37-0.74-0.94-1.42-0.62c-0.54,0.26-0.44,0.8-0.43,1.27c0.19,7.02-3.83,11.37-9.32,14.81c-0.47,0.29-1.32,0.88-1.27,0.98
			c1.02,2.06-1.07,1.72-1.8,2.23c-1.24,0.86-2.62,1.55-4.02,2.13c-4.49,1.85-8.65,4.17-11.81,7.96c-2.19,2.63-3.19,5.68-3.17,9.78
			c3.63-6.58,8.49-10.52,15.64-12.67c-1.99,2.34-4.28,3.35-5.52,5.51c-1.65,2.87-2.41,4.89-1.97,6.98c1.53-2,2.67-4.16,4.81-5.39
			c2.05-1.18,3.77-2.99,6.55-3.58c-6.97,5.94-8.2,7.58-8.05,10.73c4.53-3.95,9.54-6.84,15.36-8.2c-4.5,3.28-10.85,3.99-13.85,10.14
			c1.64-0.57,2.35-1.98,4.07-2.15c-0.57,0.79-1,1.25-1.27,1.8c-0.41,0.83-1.46,1.72-0.86,2.59c0.67,0.98,1.69-0.08,2.57-0.18
			c0.48-0.05,0.95-0.17,1.43-0.18c0.45,0,1.08-0.22,1.26,0.37c0.22,0.73-0.51,0.83-0.94,1.15c-0.83,0.63-2.75,0.41-2.5,1.59
			c0.26,1.22,2.1,0.66,3.2,1.02c0.23,0.07,0.47,0.1,0.73,0.15c-0.19,0.65-1.14,0.1-1.24,0.83c8.3,2.86,19.36-2.72,21.78-10.99
			c0.11-0.39,0.34-1.01-0.01-1.05c-2.27-0.27-0.16-1.25-0.11-1.29c2.95-2.13,2.77-5.2,2.52-8.28c-0.06-0.79-0.09-1.86-0.87-2.11
			c-0.76-0.24-1.34,0.63-1.83,1.25c-1.22,1.54-2.6,2.87-4.5,3.63c2.49-2.41,4.1-5.32,5.43-8.45c0.98-2.31,0.56-3.77-1.52-4.88
			c-0.65-0.35-1.11-1.03-0.75-1.82c0.87-1.94,0.48-3.93,0.35-5.92c1.51,1.89,2.48,4.06,2.89,6.4c0.67,3.78,1.24,7.59,1.69,11.38
			c0.98,8.29-2.37,15.16-8.7,20.24c-4.7,3.78-10.56,4.4-16.47,3.56c-1.94-0.28-3.9-0.13-4.98-2.81c-0.78-1.94-3.63-2.04-5.73-2.47
			c-4.82-1-9.73-0.92-14.62-0.99c-7.62-0.12-15.25,0.18-22.84-0.63c-8.72-0.92-17.26-2.52-25.13-6.67
			c-2.36-1.25-2.77-1.05-2.42,1.44c0.81,5.79,0.33,11.69,1.75,17.43c0.41,1.65,0.26,3.39-0.53,5.14c-0.57,1.25-1.38,2.58-1.02,4.29
			c0.26,1.22-1.11,2.01-2.06,2.73c-3.24,2.47-7.15,3.23-10.98,3.97c-5.98,1.15-11.94,2.27-17.6,4.66c-1.25,0.53-2.22,1.14-3.05,2.16
			c-5.08,6.27-7.53,13.64-9.15,21.39c-1.66,7.94-2.45,16-3.21,24.06c-0.04,0.4,0.03,0.86-0.15,1.19c-2.22,4,0.78,5.76,3.27,7.76
			c3.18,2.55,6.59,4.82,9.51,7.69c0.72,0.71,0.74,0.63,2.3,0.52c0.39-0.03,0.86,0.36,1.22,0.66c5.63,4.72,11.29,9.41,16.84,14.22
			c1.19,1.03,3.16,1.72,2.64,4.04c-0.07,0.34,0.8,0.92,1.28,1.34c8.42,7.38,15.18,15.95,19.15,26.54c0.14,0.37,0.29,0.75,0.49,1.1
			c0.54,0.96,1.11,1.9,1.79,3.06c2.07-3.07,1.43-8.04,6.83-8.36c-1.67-2.5-3-4.84-3.65-7.48c-0.09-0.36-0.17-0.84-0.01-1.12
			c0.26-0.44,0.71-0.14,1.05,0.03c6.17,3.06,12.39,2.44,18.64,0.28L331.6,246.89z M207,183.34c-0.9,3.8-1.61,7.24-2.89,10.51
			c-0.95,2.44-2.36,4.46-5.17,4.8c-1.88,0.23-2.66,1.32-3.36,2.9c-1.63,3.71-3.12,7.48-5.46,10.86c-2.01,2.91-1.81,4.92,0.33,7.38
			c3.66,4.21,7.2,8.48,11.65,12c6.03,4.77,12.25,9.21,18.67,13.44c11.17,7.36,22.89,13.76,34.64,20.13
			c4.71,2.55,6.87,2.31,10.77-1.27c0.95-0.87,0.82-1.37-0.17-1.98c-5.65-3.47-11.41-6.79-16.8-10.66
			c-5.51-3.95-11.23-7.67-15.1-13.48c-1.74-2.61-2.97-5.49-4.19-8.32c-1.94-4.5-2.57-9.3-1.76-14.21c0.66,2.88,0.73,5.93,3.13,8.25
			c-0.65-4.8-0.4-9.5,0.02-14.23c0.89-10.15,2.76-20.17,4.01-30.26c0.59-4.76,1.58-9.57,0.77-14.37
			c-1.29-7.69-5.91-13.67-10.66-19.53c-0.07-0.09-0.28-0.06-0.44-0.09c-0.44,0.67,0.95,1.39-0.23,2.18
			c-1.95-3.62-4.79-6.39-8.1-8.68c-3.06-2.11-6.64-1.82-8.79,1.09c-6.19,8.39-10.08,17.44-6.83,28.15
			c2.87,9.44,8.44,17.05,16.3,22.87c4.66,3.46,9.43,0.96,9.79-4.78c0.03-0.41-0.26-0.97,0.54-1.27c1.94,3.77,2.16,7.63,0.89,11.62
			c-0.13,0.41-0.37,0.79-0.79,0.79c-0.51-0.01-0.54-0.51-0.58-0.9c-0.17-1.7-1.17-2.55-2.78-2.16c-5.61,1.36-9.36-1.39-12.63-5.43
			C210.35,186.93,208.76,185.3,207,183.34z M195.66,268.14c-0.12,0.15-0.25,0.3-0.37,0.45c0.53,0.79,1.02,1.6,1.59,2.36
			c5.42,7.31,10.88,14.6,16.28,21.92c1.95,2.64,3.74,5.41,5.67,8.06c1.95,2.69,5.72,3.37,8.01,1.41c4.97-4.26,9.92-8.55,14.81-12.91
			c5.38-4.79,10.66-9.7,16.05-14.48c3.66-3.25,3.71-3.19-0.35-5.63c-8.64-5.19-17.22-10.48-25.94-15.53
			c-3.67-2.13-7.2-4.47-10.86-6.61c-8.36-4.88-16.66-9.88-24.52-15.52c-3.4-2.44-6.95-4.87-9.22-8.63
			c-2.61-4.31-2.39-8.14,0.89-11.91c0.74-0.85,1.49-1.67,1.97-2.71c0.23-0.5,0.82-1.01,0.42-1.51c-0.48-0.6-1.18-0.12-1.79,0.01
			c-4.13,0.9-6.58,3.74-8.12,7.4c-2.49,5.9-4.83,11.86-7.2,17.81c-0.6,1.51-0.78,3.08-0.52,4.72c0.9,5.63,4.31,9.79,8.21,13.52
			c7.74,7.4,15.66,14.61,23.48,21.92c0.62,0.58,1.34,1.11,1.71,2.29C202.32,272.35,198.99,270.25,195.66,268.14z M295.88,17.66
			c-3.2-0.19-6.25-1.03-9.34-1.58c-4.47-0.8-9.11-0.68-13.68-0.32c-4.73,0.37-7.39,2.39-8.8,6.87c-0.5,1.6-0.91,3.23-1.04,4.93
			c-0.18,2.2-0.52,4.39-0.79,6.59c-0.17-0.01-0.33-0.02-0.5-0.02c-0.22-3.12-0.45-6.23-0.67-9.35c-0.23-0.02-0.46-0.04-0.69-0.05
			c-0.52,3.91-2.53,7.46-2.23,11.57c-0.34-4.26-0.25-8.47,0.89-12.61c0.15-0.53,0.36-1.16-0.41-1.4c-0.64-0.2-0.78,0.36-0.99,0.78
			c-0.14,0.29-0.32,0.56-0.44,0.85c-7.44,18.39-3.16,32.96,7.41,46.5c0.13,0.16,0.38,0.24,0.89,0.55c-0.42-3.53-2.07-6.52-2.16-9.83
			c1.62,3.23,2.28,6.87,4.54,9.82c-0.78-4.2-1.57-8.41-2.35-12.61c0.16-0.03,0.32-0.06,0.47-0.09c0.51,1.5,1.02,3.01,1.53,4.51
			c0.29-5.48,0.29-10.84,2.46-15.98c-0.46,10.06,0.02,19.97,4.57,29.59c0.05-0.6,0.12-0.84,0.09-1.06
			c-1.11-7.68-1.19-15.36,0.41-22.97c0.78-3.7,1.26-7.62,4.36-10.5c-3.33,7.68-4.18,15.67-3.25,23.9c0.68-2.61,1.69-5.07,2.52-7.6
			c2.01-6.12,4.32-12.06,8.2-17.28c0.65-0.87,1.3-1.74,2.57-1.88c-6.42,8.84-9.34,19.53-7.16,26.09c0.46-0.18,0.41-0.63,0.47-1
			c1.42-8.05,5.29-14.88,10.76-20.78c7.25-7.81,16.54-11.81,26.87-13.69c0.82-0.15,2.07,0.13,2.24-0.93
			c0.16-0.96-1.03-1.3-1.76-1.71c-5.99-3.41-12.32-4.84-19.17-3.21c-0.44,0.11-0.94,0.01-1.9,0.01c3.61-2.01,7.14-1.41,10.46-2.25
			c-3.33-2.18-7.04-2.59-10.87-2.69c-3.93-0.09-7.48,1.36-11.13,2.51C290.55,19.61,293.24,18.86,295.88,17.66z M309.07,89.11
			c0.2-3.32,0.5-6.64,1.15-9.9c0.66-3.3,1.64-6.51,3.1-9.56c2.04-4.25,3.18-5.74,6.42-7.97c-1.09,1.6-1.83,2.8-2.69,3.92
			c-0.95,1.23-1.51,2.63-1.99,4.06c-0.41,1.25-1.38,2.47-0.5,4.22c1.17-2.12,2.67-3.65,3.92-5.37c7.26-9.93,17.18-15.26,29.18-17.13
			c2.84-0.44,5.74-0.69,8.61-1.77c-1.72-1.4-3.69-1.74-5.57-2.63c1.49-0.78,2.72,0.29,4.29-0.14c-2.56-2.58-5.51-3.81-8.78-4.27
			c-11.69-1.66-21.69,2.73-30.44,9.71c-7.3,5.82-11.38,13.94-12.47,23.33c-0.29,2.53-0.65,5.12,0.14,7.68
			c0.84-3.09,1.51-6.19,2.61-9.17c1.05-2.84,3.5-6.9,5.07-8.15C308.03,73.7,307.04,81.28,309.07,89.11z M336.08,34.32
			c-13.48-7.96-33.9,3.48-41.01,15.74c2.42-1.74,4.55-3.27,6.69-4.8c-1.85,3.36-4.93,5.63-6.74,8.96c-1.85,3.4-3.24,6.96-4.26,10.68
			c-1.25,4.57-1.5,9.16-0.56,10.95c0.74-2.81,1.11-5.61,2.59-8.07c0.21,5.2-0.51,10.45,1.58,16.12c0.09-1.25,0.15-1.8,0.16-2.35
			c0.14-6.68,1.27-13.03,4.08-19.26c3.66-8.09,9.31-14.05,16.73-18.57c0.86-0.52,1.77-1.26,3.24-0.77
			c-6.58,4.36-10.43,10.52-13.72,17.13c1.4-1.06,2.67-2.23,3.69-3.59c3.9-5.19,9-8.84,14.79-11.57c4.81-2.27,9.88-3.76,15.22-3.98
			c1.48-0.06,1.88-1.08,2.27-1.92c0.42-0.91-0.73-1.23-1.35-1.66c-1.98-1.39-4.42-1.65-6.77-2.53
			C333.82,34.09,334.89,34.83,336.08,34.32z M272.83,86.54c-0.02-0.41,0.01-0.53-0.03-0.56c-0.48-0.41-0.93-0.88-1.46-1.2
			c-5.87-3.53-9.57-9.15-13.43-14.49c-4.17-5.77-6.69-12.52-9.67-18.95c-2.27-4.92-3.76-10.2-5.58-15.32
			c-0.6-1.68-1.22-3.42-2.8-4.36c-4.91-2.93-9.95-2.55-14.91-0.16c-1.74,0.84-3.04,2.35-4.12,3.97c-0.76,1.15-0.64,1.89,0.98,2.04
			c2.3,0.22,4.55,0.25,6.87-0.06c3.42-0.47,6.64,0.18,9.04,3.03c-0.76-0.13-1.46-0.45-2.17-0.74c-0.77-0.32-1.55-0.61-2.68-0.04
			c3.42,2.08,5.7,4.84,7.82,7.91c-5.59-5.1-12.17-7.49-19.59-7.58c0.04-1,1.26-0.26,1.22-1.26c-6.46-0.76-11.84,1.36-16.22,6.02
			c-2.95,3.14-4.82,7.23-8.51,9.82c2.24-0.92,4.35-2,6.32-3.27c3.69-2.37,7.68-3.97,11.98-4.67c8.1-1.3,15.14,1.28,21.5,6.19
			c1.34,1.03,2.74,1.99,4.11,2.98c0.14-0.18,0.29-0.37,0.43-0.55c-2.81-5.31-7.43-8.54-13.09-10.68c0.86-0.49,1.5-0.07,2.18,0.1
			c3.57,0.88,6.34,3.37,9.63,4.75c1.4,0.59,2.41,1.22,2.99,2.62c2.28,5.48,5.59,10.38,8.67,15.42c3.54,5.8,8.09,10.7,13.2,15.1
			C267.62,84.39,270.12,85.53,272.83,86.54z M313.8,91.12c0.94-4.29,3.11-7.97,5.28-11.66c3.34-5.69,6.14-9.11,7.98-9.52
			c-3.97,6.49-6.14,15.02-4.68,19.02c0.85-3.03,1.65-5.84,2.69-8.58c1.06-2.8,2.95-5.07,4.45-7.59c2.39-3.99,3.99-5.52,5.87-6.31
			c-0.96,1.79-2.46,3.18-3.08,5.6c0.7-0.55,1.02-0.75,1.28-1.02c7.55-7.54,16.6-11.83,27.29-12.42c2.19-0.12,4.2-0.58,6.29-1.88
			c-2.77-1.94-5.56-3.34-8.83-3.63c-11.18-1-20.59,3.41-29.46,9.58c-6.69,4.65-11.56,10.72-14.29,18.37
			C313.45,84.27,312.89,87.66,313.8,91.12z M271.65,293.17c0.19-0.07,0.38-0.14,0.57-0.22c0.9,2.37,1.81,4.73,2.69,7.1
			c0.3,0.79,0.65,1.71,1.66,1.1c1.43-0.87,2.68-1.84,2.27-3.99c-0.28-1.46-1.28-2.51-1.55-3.96c-0.73-3.85-1.66-7.66-2.56-11.48
			c-0.98-4.14-2.6-5.3-6.85-4.82c-1.74,0.2-3.49,0.42-5.19,0.96c-3.24,1.04-3.85,2.08-2.54,5.23c2.27,5.47,4.67,10.88,6.96,16.34
			c0.91,2.16,2.67,2.84,4.77,2.98c1.52,0.1,2.26-0.42,1.72-2.15C272.85,297.92,272.29,295.53,271.65,293.17z M341.82,97.31
			c0.16-0.36,0.38-0.7,0.46-1.07c1.79-8.25,7.25-13.32,14.38-17.22c6.24-3.42,13.01-5.84,18.76-10.16c2.01-1.51,3.05-3.08,2.63-5.08
			c-1.32,1.22-2.37,2.79-4.34,2.97c0.21-1.55,2.72-2.51,1.93-3.26c-1.11-1.06-2.27,1.01-3.46,1.61c-5.17,2.65-10.9,3.7-16.22,5.89
			c-8.57,3.53-15.85,8.41-18.8,17.85c-0.26,0.82-0.69,1.62-0.07,2.82c2.85-4.43,5.37-8.98,10.41-11.18
			C342.78,85.13,341.21,90.86,341.82,97.31z M350.55,100.73c1.64-1.92,2.96-4.04,4.92-5.59c6.14-4.82,13.15-8.17,20.11-11.57
			c1.67-0.81,3.24-1.77,4.61-3c3.08-2.76,4.05-7.5,2.04-10.49c-1.64,2.47-3.61,4.59-6.22,5.85c-6.75,3.26-13.54,6.44-20.38,9.52
			c-5.48,2.47-9.21,7.88-8.8,13.76c2.22-4.4,4.16-8.51,8.5-10.69C352.47,92.1,350.73,96.1,350.55,100.73z M291.82,290.73
			c-0.29-0.6-0.58-1.17-0.85-1.75c-1.11-2.39-2.84-4.39-4.15-6.65c-2.03-3.53-3.93-7.14-5.92-10.71c-0.54-0.97-1-2.05-2.16-2.48
			c-1.97-0.72-3.71-1.88-5.46-2.99c-1.67-1.06-2.84-1.42-4.42,0.46c-1.37,1.64-2.71,3.32-4.12,4.94c-0.72,0.83-1.28,1.81-0.63,2.83
			c0.6,0.94,1.61,0.32,2.42,0.16c3.06-0.61,5.6,0.05,7.77,2.48c3.99,4.47,8.17,8.76,12.21,13.18c0.9,0.99,1.94,1.69,3.15,2.08
			C290.96,292.71,291.56,291.9,291.82,290.73z M334.12,90.28c5.82-17.81,18.3-26.91,36.76-28.42
			c-24.47-4.62-42.13,11.61-43.03,28.44c2.81-5.54,5.04-11.3,10.3-15.06C335.65,79.96,333.31,84.68,334.12,90.28z M254.28,59.25
			c-4.34-13.24-3.29-26.13,2.68-38.75c-1.34-0.1-1.87,0.68-2.43,1.27c-2.01,2.14-3.23,4.72-4.15,7.49c-0.62,1.84-0.7,3.93-2.3,5.38
			c-2.89-3.93-2.89-3.93-4.81-4.36C247.2,39.69,247.22,50.81,254.28,59.25z M379.78,70.61c-4.91,3.05-9.73,6.19-14.56,9.32
			C370.69,77.81,375.9,75.27,379.78,70.61z"/>
		<path d="M331.66,246.95c-0.32-1.58,0.89-2.86,0.86-4.4c-0.02-0.92-0.02-1.79-1.28-1.08c-2.4,1.36-5.01,1.08-7.53,0.87
			c-5.31-0.43-10.61-1.1-15.89-1.84c8.03-1.87,16.4,1.95,24.31-1.54c-1.12-0.82-2.3-0.35-3.43-0.42c-7.45-0.45-14.9-0.28-22.35,0.14
			c-0.99,0.05-1.94-0.12-2.81-0.53c-1.98-0.91-2.43-2.89-1.08-4.53c0.1-0.12,0.15-0.39,0.24-0.4c1.61-0.14,2.07-2.07,3.64-2.43
			c0.07,1.31-1.27,1.95-1.19,2.91c9.86-6.23,20.6-9.67,32.37-9.73c0.64,0,1.35-0.1,1.91,0.13c1.8,0.77,4.34,0.62,4.57,3.45
			c0.41,5.02-1.19,9.22-4.7,9.74c-4.42,0.65-6.07,2.83-6.2,6.91c-0.04,1.08-0.78,1.9-1.48,2.68
			C331.6,246.89,331.66,246.95,331.66,246.95z"/>
		<path d="M285.49,171.6c1.9-3.58,4.95-5.38,8.51-6.24c4.07-0.98,8.16-1.19,12.38-0.5c5.21,0.85,10.55,0.28,15.81,1.1
			c7.42,1.17,14.03,4.26,20.36,8.08c0.32,0.19,0.53,0.55,0.8,0.84c-1.34,0.73-0.6,2.64-1.82,3.34c-1.18,0.68-2.52,1.24-3.75,0
			c-1.34-1.35-3.2-0.79-4.77-1.33c-4.68-1.61-9.37-3.27-14.14-4.57c-4.28-1.17-8.57-1.95-13.19-1.55
			C299,171.35,292.24,170.59,285.49,171.6z"/>
		<path d="M346.13,225.93c5.52-2.31,7.17-5.38,6.04-10.96c-2.1-10.27-4.29-20.53-6.34-30.81c-0.39-1.98,0.79-3.71,1.75-5.34
			c1.91-3.28,4.87-5.62,8.04-7.45c4.43-2.55,7.63-6.26,10.83-10.03c0.89-1.06,1.07-2.42,1.11-3.84c0.21-6.97,0.49-13.95,0.77-20.92
			c0.04-0.94,0.03-1.9,0.6-3.04c0,7.42,0,14.55,0,21.69c0,1.84-0.03,3.69,0.03,5.53c0.22,6.41-2.23,10.12-8.23,12.63
			c-2.58,1.08-5.26,1.92-7.65,3.44c-3.33,2.12-5.11,4.87-4.5,9.04c1.32,9.04,2.65,18.07,4.59,27c0.56,2.59,1.03,5.19,0.38,7.86
			C352.73,224.09,349.98,226.17,346.13,225.93z"/>
		<path d="M326.07,220.01c3.54-0.77,6.82-0.12,10.51,2C332.43,222.39,329.32,220.93,326.07,220.01z"/>
		<path d="M317.9,218.97c1.1,0.72,1.62,1.08,2.16,1.41c0.38,0.23,1,0.31,0.81,0.94c-0.07,0.25-0.41,0.49-0.68,0.6
			c-0.53,0.2-0.93-0.11-1.17-0.55C318.7,220.77,318.44,220.13,317.9,218.97z"/>
		<path d="M204.64,159.18c-0.96-2.28-0.68-3.97-0.32-5.56c0.59-2.57,1.52-5.04,2.91-7.33c2.51-4.14,6.82-4.87,10.48-1.7
			c2.08,1.81,3.73,3.91,4.32,6.69c0.84,3.91,1.75,7.81,1.74,11.85c0,0.88-0.58,2.1,1.18,2.38c0.84,0.13,0.07,0.94-0.18,1.3
			c-2.11,3.1-2.16,6.28-0.39,9.52c0.71,1.29,0.02,2.45-0.05,4.17c-1.9-1.74-2.53-4.16-5.02-4.84c-2.15-0.59-4.6-0.74-6.25-2.71
			c2.42,0.9,4.92,1.19,7.61,1.41c-0.19-1.75-1.84-2.36-2.45-3.7c-1.54-3.35-1.34-4.39,1.91-6.34c0.36-0.21,0.72-0.42,0.69-0.88
			c-0.04-0.53-0.54-0.49-0.9-0.6c-1.88-0.59-3.78-1.1-6.22-0.93c1.9-2,3.81-3.02,6.05-3.31c1.99-0.26,2.72-1.18,2.37-3.22
			c-0.55-3.23-1.7-6.1-4.1-8.41c-2.87-2.76-7.39-2.23-9.83,1.22C206.01,151.26,205.33,154.89,204.64,159.18z"/>
		<path d="M206.01,171.75c1.69,1.83,2.71,4.24,4.88,5.64C207.93,176.68,206.93,174.25,206.01,171.75z"/>
	</g>
</g>
</svg>
