<?xml version="1.0" encoding="utf-8"?>
<!-- Generator: Adobe Illustrator 23.0.2, SVG Export Plug-In . SVG Version: 6.00 Build 0)  -->
<svg version="1.1" id="Layer_1" xmlns="http://www.w3.org/2000/svg" xmlns:xlink="http://www.w3.org/1999/xlink" x="0px" y="0px"
	 viewBox="0 0 383 498" style="enable-background:new 0 0 383 498;" xml:space="preserve">
<style type="text/css">
	.st0{fill:#2E322E;}
	.st1{fill:#B9FEB9;}
	.st2{fill:#030392;}
	.st3{fill:#9FB8FE;}
	.st4{fill:#F9C652;}
	.st5{fill:#2E312E;}
	.st6{fill:#FEC360;}
	.st7{fill:#EE3753;}
	.st8{fill:#EFEBDE;}
	.st9{fill:#D3E1E3;}
	.st10{fill:#6175B9;}
	.st11{fill:#BA4E51;}
	.st12{fill:#D4E0E1;}
	.st13{fill:#CC752D;}
	.st14{fill:#D5E2E5;}
	.st15{fill:#F9C8AA;}
	.st16{fill:#2A3242;}
	.st17{fill:#F8D682;}
	.st18{fill:#EF9A20;}
	.st19{fill:#7D434E;}
	.st20{fill:#F9C6A8;}
	.st21{fill:#3E5A66;}
	.st22{fill:#7B93EF;}
	.st23{fill:#1F231F;}
	.st24{fill:#79EC78;}
	.st25{fill:#FAC8AA;}
	.st26{fill:#E97F23;}
	.st27{fill:#F7D2A8;}
	.st28{fill:#F5C159;}
	.st29{fill:#010101;}
	.st30{fill:#283D42;}
	.st31{fill:#7F4851;}
	.st32{fill:#020102;}
	.st33{fill:#F7A13C;}
	.st34{fill:#F8C8AB;}
	.st35{fill:#FCD679;}
	.st36{fill:#C9752F;}
	.st37{fill:#ED516B;}
	.st38{fill:#93A0CD;}
	.st39{fill:#090A9D;}
	.st40{fill:#F8C7AB;}
	.st41{fill:#E4222F;}
	.st42{fill:#E7B89D;}
	.st43{fill:#F9E5A5;}
	.st44{fill:#0101BE;}
	.st45{fill:#F5C1A4;}
	.st46{fill:#FAE7B3;}
	.st47{fill:#B44C4E;}
	.st48{fill:#F5C3A8;}
	.st49{fill:#969A96;}
	.st50{fill:#F8E7B0;}
	.st51{fill:#F7E7AE;}
	.st52{fill:#FAD777;}
	.st53{fill:#969792;}
	.st54{fill:#F7C959;}
	.st55{fill:#F49F7A;}
	.st56{fill:#F8E0CB;}
	.st57{fill:#E2B8A4;}
	.st58{fill:#9BE09B;}
	.st59{fill:#CC772F;}
	.st60{fill:#F8E7AD;}
	.st61{fill:#F9E7AE;}
	.st62{fill:#DDB29E;}
	.st63{fill:#686C68;}
	.st64{fill:#DFC3B3;}
	.st65{fill:#923F42;}
	.st66{fill:#6C706C;}
	.st67{fill:#A2DCE6;}
	.st68{fill:#F9E7B7;}
	.st69{fill:#FBE8B7;}
	.st70{fill:#EA965A;}
	.st71{fill:#D5AF9B;}
	.st72{fill:#FADECC;}
	.st73{fill:#EDA426;}
	.st74{fill:#FAE9B5;}
	.st75{fill:#F0DF7B;}
	.st76{fill:#CD7A34;}
	.st77{fill:#F2E7D6;}
	.st78{fill:#FBE1A2;}
	.st79{fill:#FBEBBE;}
	.st80{fill:#F9E3CC;}
	.st81{fill:#B6E2E8;}
	.st82{fill:#B8E2EA;}
	.st83{fill:#F6E4AB;}
	.st84{fill:#F6E5B7;}
	.st85{fill:#EEBE91;}
	.st86{fill:#B0B7D0;}
	.st87{fill:#B4E1D7;}
	.st88{fill:#F7DE9C;}
	.st89{fill:#B2E5EF;}
	.st90{fill:#EAC7AB;}
	.st91{fill:#232923;}
	.st92{fill:#99DD98;}
	.st93{fill:#B65051;}
	.st94{fill:#F0BF4F;}
	.st95{fill:#B3C1C6;}
	.st96{fill:#1E221E;}
	.st97{fill:#BBB8AC;}
	.st98{fill:#F6C56E;}
	.st99{fill:#E0846F;}
	.st100{fill:#FCDA97;}
	.st101{fill:#F38392;}
	.st102{fill:#F7C4A6;}
	.st103{fill:#644D3A;}
	.st104{fill:#603C1D;}
	.st105{fill:#F6C857;}
	.st106{fill:#F8EABC;}
	.st107{fill:#FAE8BC;}
	.st108{fill:#705B4D;}
	.st109{fill:#E2B851;}
	.st110{fill:#E1D3D4;}
	.st111{fill:#312123;}
	.st112{fill:#FBD87E;}
	.st113{fill:#F6C64E;}
	.st114{fill:#65C7DC;}
	.st115{fill:#564C45;}
	.st116{fill:#F0EBE4;}
	.st117{fill:#F0E0D1;}
	.st118{fill:#009C70;stroke:#000000;stroke-width:3;stroke-miterlimit:10;}
	.st119{fill:#92C83E;stroke:#000000;stroke-width:3;stroke-miterlimit:10;}
</style>
<g>
	<path class="st0" d="M335.6,159.1c2.9,1.8,5.7,1.4,8.7-0.1c6.2-3,10.7-7.9,15.9-12.2c1-0.9,0.8-1.9,0.4-3
		c-2.1-5.3-4.3-10.6-6.4-15.9c-0.6-2.3,1.6-3.1,2.6-4.5c2.1-1.1,4.1-2.3,6.5-0.8c1.1,0.8,1.6,2.1,2.1,3.3c2.6,5.8,5.2,11.6,7.8,17.5
		c2.3,5.2,2,7.2-2.3,11.4c-3.9,3.9-8,7.6-12,11.4c-4.4,4.1-8.8,8.3-13.3,12.4c-1.8,1.6-2.9,3.5-3.5,5.8c-1.4,5.6-2.8,11.1-4.2,16.6
		c-2,8-2,16.1-1.1,24.3c0.4,3.6,1.5,7.2-1.3,10.7c-1.2,1.5-0.2,4.1,0,6.1c1.5,16.2,2.8,32.5,3.8,48.7c0.6,9.9,1.8,19.7,2.8,29.6
		c0.7,4.8,0.8,9.7,1.5,14.6c0.5,2.9-0.5,4-3.3,4.5c-2.6,0.5-3.9-0.8-4.2-3.3c-2.2-10.6-4.5-21.3-6.7-31.9c-3-14.8-6.8-29.3-11-43.8
		c-0.2-0.8-0.1-1.8-1.2-2.3c-8.2,24.4-10.2,49.9-13.1,75.2c-1,4-2.6,4.5-7.2,2.1c-0.1-18.4-0.5-36.9,0.4-55.3
		c0.4-7.9,0.4-15.8,1.5-23.6c1.5,1.4,1.1,3.3,1.1,5c-0.6,15.1-0.6,30.3-1.6,45.5c1.3-20,1.4-40,3.5-60c0.3-2.6,0-5.3,0.7-7.9
		c1.2-4.5,3.3-6.2,8-6.4c3.3-0.1,6.6,0.2,9.9-0.6c0.6-0.1,1.8,0.1,1.2-1.3c-0.5-3.1-1-6.1-0.9-9.4c0.2-3.7,0.9-7.7-1.8-11.1
		c-0.4-1-0.4-2.1,0-3.1c0.6-1,1.4-1.9,1.5-3.2c0.4-7,2.6-13.6,4.2-20.3c0.6-2.6,0.7-5.2,0.1-7.8c-1-4.1,0.1-6.6,3.6-9
		c1.6-1.1,3.5-2,4.8-3.5c0.5-0.6,1.6-1.2,0.9-2.2c-0.6-0.8-1.4,0.1-2,0.4c-1.1,0.5-2.1,1.4-3.3,0.6
		C330.2,159,331.8,158.2,335.6,159.1z"/>
	<path class="st1" d="M181.8,169.7c4,3.6,4.1,3.5,8.2-0.7c4.8-5,9-10.5,14.5-14.8c1.8-1.4,0.6-3.3,1-4.9c0.9-0.2,1.2,0.5,1.3,1.1
		c0.4,3.3,2.5,3.3,5,3c2-0.3,4-1.2,6.1-0.3c-1.2,5.8-3.4,11.1-7.8,15.3c-0.2-0.2-0.4-0.5-0.4-0.9c0-0.6,0.4-0.9,0.6-2
		c-2.8,4.9-6.1,8.8-8.5,13.4c-1.8,3-2.4,6.2-2.1,9.8c0.6,7.1-0.1,14.3-1,21.4c-0.3,2.4-0.3,4.8-0.2,7.2c0.3,5.9-0.6,11.9-0.8,17.8
		c-0.2,5.3-3.5,8.2-8.8,9c-6.7,1.1-13.3,0.6-20,0.6c-2.1,0-3.9-0.1-5.1-2.3c-0.5-0.9-1.4-1-2.3-0.9c-1-0.1-1.7-0.5-2-1.5
		c0.1-8.5-2.1-16.5-5.1-24.3c-1.1-2.9-1.9-5.8-3.2-8.6c-0.9-1.9-1.7-2.1-3-0.3c-0.7,1-1.4,2.1-2.7,2.2c-0.6,0.4-0.1-2.3-1.4-0.4
		c-1.6,2.1-3.6,3.8-5.2,5.9c-1.4,1.9-1.5,3.4,0.1,5.3c4,4.8,8.5,9.1,12.6,13.8c2.3,2.6,5.1,4.9,4.9,8.9c-0.4,1.6-1,3.1-2.6,3.9
		c-3.1-0.9-4.9-3.6-7.1-5.6c-7.3-6.5-14.1-13.5-21.2-20.2c-2.4-2.3-2.5-4.4-0.9-7c5-8.4,10.7-16.2,16.5-24.1
		c4.7-6.5,10.5-11.5,18.7-13.3c2.3-0.5,2.9-3.6,5.1-4.4c2.2,0,3.7,1.6,5.5,2.6c2.2,1.1,3.9,1.2,5.9-0.6
		C177.9,172.1,179.4,170.3,181.8,169.7z"/>
	<path d="M199.4,257.1c2.2,34.7,3,69.4,3.3,104.1c-0.3,1.6-1.3,2.2-2.8,2c-1.9-0.3-3.9-0.2-5.8-0.8c-1.9-1.1-1.9-3-2.1-4.9
		c-1.7-16.6-3.1-33.3-5.3-49.8c-1.1-8.5-4.2-16.6-6.2-24.9c-0.3-1.2-0.3-2.5-0.2-3.8c-0.1,1-0.3,2-0.5,2.9
		c-8,25.9-13.3,52.5-19.3,79c-1.6,4-6.2,4.6-10.3,1.6c1.1-13,2.3-26,3.4-39.1c1.6-18.3,3.3-36.6,5-54.8c0.5-5.6,1-11.2,1.5-16.8
		c1.1-2.4,3.4-2.1,5.4-2.5c5.3-0.3,10.6-1,15.9-0.1c1.4,0.3,2.8,0.1,4.2-0.4c0.4-0.1,0.8-0.2,1.1-0.2c3.3-0.3,6.5,0.1,9.8-0.3
		c1.9-0.2,2.8,0.4,2.7,2.5C199.1,253,198.9,255.1,199.4,257.1z"/>
	<path class="st2" d="M85.8,234.3c7.8,12.9,15.8,25.6,23.1,38.7c2.2,3.9,1.3,7.3-2.6,9.9c-9,5.9-18.1,11.6-27.2,17.4
		c-1.5,0.9-3,1.8-4.5,2.7c-3.8-4.3-7.7-3.1-11.8-0.4c-1.4,0.9-2.8,1.7-4.3,2.4c-2.5,0.7-1.9,2.8-2.2,4.6c-0.2,1.5,0.7,3.4-1.5,4.2
		c0-1.6-0.1-3.3,0.1-4.9c0.3-2.4-0.5-2.6-2.5-1.7c-4.3,2.2-8.4,4.6-12.9,6.3c-2.5-1.4-5.1-2.5-6.1-5.5c0.4-1.3,1.7-1.7,2.6-2.4
		c7.9-5.6,15.7-11.2,23.7-16.7c1.9-1.3,2.3-2.7,2-5c-2.2-13.9-4.3-27.7-6.4-41.6c-0.7-2.1,0.3-3.2,2.2-3.6
		c8.4-1.9,16.8-3.6,25.2-5.2C83.8,233.4,84.9,233.5,85.8,234.3z"/>
	<path class="st3" d="M75.9,172.2c8.4-3.8,15.7-9.3,23.2-14.5c3.1,0.3,5.2,1.9,6.6,4.5c-0.7,1.5-1.8,2.6-3.2,3.7
		c-6,4.6-11.3,10.1-16.2,15.9c-0.9,1.1-1.2,2.2-0.9,3.6c0.6,3.3,0.5,6.5-0.1,9.8c-1.2,7-2.5,14-3.3,21c-0.7,6.1,1,11.9,3.6,17.4
		c-3.8-0.3-7.5,0.9-11.2,1.6c-3.2,0.5-6.3,0.7-9.5,0.6c-4.3-0.1-6.1-1.8-6.4-6.3c-0.2-4.1-0.3-8.1,0-12.2c0.4-6.7-1-13.1-2.5-19.5
		c-1.3-5.4-4.3-9.4-9.8-11.8c-7.1-3.1-14.3-6.1-20.6-10.9c-0.8-3.2,0.5-5.6,2.8-7.6c6.3,2.5,12.6,4.9,18.8,7.6
		c3.1,1.3,6.2,2,9.6,1.4c3.9-1,7.9,0.1,11.8-0.4C71.8,175.9,74.3,175.1,75.9,172.2z"/>
	<path class="st4" d="M209.6,139.6c0.4-1.6,0.8-3.3,1.2-5c3.1-2.2,4.3-5.5,3.1-8.8c0.9-3.6-1.8-5.2-3.9-7.2
		c-2.8-2.1-5.6-4.1-8.7-5.8c-3.3-1.8-5.8-4.7-8.1-7.6c-4-5.2-7.7-10.7-9.4-17.2c-0.7-2.7-2-3.7-4.7-2.9c-1.1,0.3-2.4,0.5-3.6,0.5
		c-0.8,0-1.7,0.1-1.9-0.8c-0.2-0.8,0.4-1.1,1.1-1.4c0.8-0.3,1.3-1.3,2.3-1.3c4.9,0.1,9.6-1,14.1-2.7c7.5-2.8,15.1-5.4,22.3-8.9
		c5.6-1.8,6.8-1.3,8.7,4.3c2.5,7.1,4,14.4,4.5,21.8c0.2,4.1-1,8.1-2.9,11.7c-1.3,2.5-2.3,5-2.4,7.8c-0.1,0.8-0.5,1.4-1,2
		c-0.8,1.1-1.7,2.2-0.5,3.5c1,1,2.2,1.4,3.5,0.6c0.3-0.2,0.6-0.2,0.9-0.1c0.2,1.8,2.2,2.4,2.9,3.9c-0.6,0.6-1.1,0.6-1.7-0.1
		c3.4,2.3,3.4,3.1,0.5,5.9c2.1-1.2,4.8-2,6.8-3.4c-2,0.3-4.3,1-5-2.3c2.1,0.5,3.9,1.7,6.2,1c1.4-0.4,1.6,1.2,2.4,1.7
		c1.1,1.9-0.3,3-1.6,3.7c-6.7,3.8-13.8,6.7-21.4,8.4C212.1,141.3,210.5,141.3,209.6,139.6z"/>
	<path class="st5" d="M319.7,210.6c1.4,0.7,2.3,1.9,2,3.4c-0.7,3.1,1.8,6.4-0.5,9.5c-0.1,0.1-0.1,0.6,0,0.6c3,1.9,0.2,4.2,0.5,6.3
		c-3.3,1.5-6.8,1.6-10.3,1.2c-6.2-0.6-9.4,1.8-9.8,8.1c-0.3,4.5-0.2,9-0.8,13.5c-0.2,1.2,0.3,2.8-1.7,3c-0.4-6.3,0.8-12.5,0.8-18.8
		c0-1.4-0.1-2.7-1.1-4c-1.4-1.8-1.3-4.1-1.4-6.3c-0.5-14,0.3-27.9,1.1-41.9c0.5-7.8,0-14.4-6.8-19.9c-5.2-4.2-9.2-9.7-13.9-14.5
		c-2.5-2.6-3.5-5.3-2.3-8.9c2.1-6.5,3.8-13.1,5.7-19.6c0.3-1.1,0.8-2,1.5-2.9c2.5-1.6,4.8-0.8,7,0.8c2.2,1.3,2.7,3,2,5.5
		c-1.3,4.9-2.2,9.8-3.4,14.7c-0.3,1.2-0.3,2.1,0.7,2.9c5.8,4.5,10.6,10.1,17.8,12.8c2.1,0.8,4,1,6,0.4c2.1,0.5,3.8,1.3,2.8,4
		c-4.1-1.4-4.7-1-3.7,3.4c0.8,3.4,0.5,6.1-1.5,9c-4.6,6.6-3.8,14.2-3.5,21.6c0.1,2.7,0.7,5.4,0.8,7.7c-0.3,0.9,0.5,0.7,0,0.7
		c-0.1,0,0-0.1,0-0.3c0.2-0.9-0.1-2.4,1.8-1.5c1.3,3.8-0.2,7.4-0.4,11.2c-0.6,4.9-1.3,9.7-0.7,14.6c0.3,1.9,1.4,1.9,2.7,2
		c1.4-0.1,2.8,0,4.3,0c4,0.1,4,0.1,4-4.1c0-1.6,0-3.2-0.5-4.8C318.9,216.8,317.9,213.6,319.7,210.6z"/>
	<path class="st6" d="M105.1,48.7c-1.2,1.2-2.9,1.5-4.5,1.9c-1.3,0.3-2.5,0.1-3.3,2c-0.6,1.5-3.2,1.1-3.3-0.4
		c-0.1-2.3-1.7-2.2-2.9-2.8c-8.9-4.8-15.4-18.7-12.4-28.2c3-9.4,8.6-15.6,18.5-17.2c6.6-1.1,16.8,3.9,18.9,10.3
		c-1.4,0.4-1.8-0.8-2.8-1.9c3.8,5,3.4,10.5,2.7,15.8c-1.1,7.4-4.9,13.5-10.3,18.7c-0.2,0.2-0.5,0.4-0.7,0.7c-0.4,0.4-1,0.3-1.4,0.6
		C104.2,48.1,104.7,48.3,105.1,48.7z"/>
	<path class="st7" d="M344.9,58c-2.4,1.9-5.4,2.3-8.3,2.6c-1.5,0.2-3-0.5-4.2,1.1c-0.5,0.6-1.9,0.4-2-0.3c-0.3-3.4-3.8-4.3-5.2-6.8
		c-1.1-1.9-2.7-3.5-2.9-5.8c-1.5-4.8-2.4-9.6-0.7-14.8c1.9,0.7,2,4.8,5,2.4c1.8-2.4,2.8-5.2,4.8-7.4c2.2-2.5,4.4-4.9,7.4-6.3
		c1.3-0.6,2.9-1.2,3.3-3c0.7-1.5,1.7-1.3,3-0.9c3.6,1.1,6.6,3,9.1,5.9c5.7,6.4,6,18,0.5,24.6c-0.9-0.9-0.6-1.8-0.1-2.7
		c2.7-4.8,1.9-10,1.9-14.3c1.3,10.8-5.2,18.3-13,25C344,57.4,344.5,57.5,344.9,58z"/>
	<path class="st8" d="M319.7,210.6c0,3.4,0.1,6.8,0.1,10.2c0.2,1.5,0.9,3.1-0.8,4.2c-2.3,0.6-4.7,0.4-7,0.2c-3.7-0.6-4.5-1.4-4-5.1
		c0.4-2.6-0.2-5.2,0.4-7.7c-0.2-4,1.1-7.8,0.7-11.8c-1.1-1.3-0.5-2.7-0.4-4.1c1.4-12.3,3.6-24.4,7.2-36.3c-0.4-1.8-1.3-3.1-3-3.8
		c4.1-1.1,1.6-4,1.6-6.1c1.5,0.2,1.9,1.5,2.5,2.6c0.3,0.6,0.3,1.3,0.7,1.8c1.5,1.7,2.5,4.7,5,4.2c3-0.6,6.7-1.3,7.4-5.4
		c0.1-0.8,0.5-1.5,1.6-1.1c-0.2,3.1,0.6,5.7,4,6.7c-3.1-0.7-4.8,1.3-6.6,3.2c-4.6,3.8-6,9-6.8,14.5c-1.5,6.6-1.8,13.3-1.5,20.1
		c-0.4,3.4,0.9,7.1-1,10.3C319.4,208.4,319.5,209.5,319.7,210.6z"/>
	<path class="st9" d="M223.3,371.8c7.7,0,15.4-0.3,23.1,0.1c6.1,0.4,12.3,0.5,18.4,0.5c0.9,0,2.1-0.2,2.2,0.9c0.1,1.1-1.2,1-2,1
		c-5.6-0.1-11.2,0.7-16.8,0.8c-6.5,0-12.9,0.6-19.4,0.6c-10.4-0.1-20.8,0-31.2,0c-9.9,0-19.8,0.4-29.6-0.1
		c-12.5-0.6-24.9-0.4-37.4-0.6c-2,0-3.9-0.4-5.9-0.6c-0.8-0.1-2,0.1-2-1.1c0.1-1,1-1.4,1.9-1.5c2.4-0.3,4.8-0.5,7.2-0.7
		c1.2-0.1,2.4,0,3.5-0.7c0.8,1.8,2.2,2.5,4.2,2.4c5.1-0.1,10.1-0.1,15.2,0c2.1,0,3.5-0.4,2.8-3c-0.3-1-0.5-2.2,0.7-3
		c3.6,1.5,7.5,1.2,11.3,1.2c6.7,0,13.4,0,20,0c1.2,0,2.4,0,3.6,0.5c1.1,0.5,1.3,1.9,2.4,2.4c1.7,0.7,3.5,0.4,5.2,0.5
		C208.1,371.7,215.7,371,223.3,371.8z"/>
	<path class="st10" d="M21.7,69.2c9.4-0.3,13.4,2.3,15.6,10c1.9,6.7-1.6,14.3-8.3,18c-1.3,0.7-2.5,2.9-3.4,2.1
		c-2.2-1.8-5.4-1.9-7.2-4.3c-2.6-1.8-4-4.5-5.3-7.3l0,0c-0.4-1-0.6-2.1,0.7-2.4c2.1-0.4,2.5-1.9,2.8-3.6
		C17.2,77.1,19.8,73.3,21.7,69.2z"/>
	<path class="st11" d="M58.8,170.3c-3.5,1.8-7.3,1.1-11,1.1c-1.5,0-2-0.8-0.9-2.1c3.8-4.2,4.8-9.5,6-14.8c0.8-3.2,1.7-6.4,2.7-9.5
		c2.6-7.7,10.1-7.5,16.5-5.7c0.8,0.2,1.4,1,2.3,1.3c2.3,0.9,4.6,1.7,2.3,4.8c-0.5,0.7,0.1,1.7,0.4,2.5c1,2.9,1.6,5.9,1.8,9
		c0.4,6.1,0.5,6.1-4.9,8.7c-0.8,0.3-1.7,0.6-2.1-0.6c3.5-4,3.8-8.6,2.7-13.5c-0.4-1.8-0.7-2.4-2.9-2.2c-4.6,0.3-6.1,2.8-6.7,6.7
		c-0.4,2.7-1.9,5.1-1.8,7.9c-2.1,1.5-3.8,3.5-6.1,4.9c-1.3,0.8-2.7,1.6-4.4,1.4C54.6,170.8,56.7,168.3,58.8,170.3z"/>
	<path class="st12" d="M355.4,376.5c-4.9,0-8.2,0.1-11.5,0c-8.3-0.4-16.5,1.2-24.7,0.6c-9.5-0.7-19,0.4-28.5,0
		c-2.4-0.1-4.8-0.4-7.2-0.6c-0.7-0.1-1.8,0.2-1.7-0.9c0.1-0.9,1-1,1.8-1.1c5.4-0.6,10.8-1.4,16.3-2c17.9-2,35.8-1.3,53.7-1.3
		c9,0,17.9,1,26.8,2.6c0.8,0.1,1.8,0.1,1.7,1.1c-0.1,0.9-1.1,0.8-1.9,0.9C371.4,377.2,362.6,376,355.4,376.5z"/>
	<path class="st13" d="M181.8,169.7c-1.6,2.4-4.2,3.7-6.3,5.7c-1.2,1.2-2.6,1-3.9,0.3c-2.3-1.2-4.7-2.3-6.7-4
		c3.1-4.6,0.4-8.2-2.3-11.7c0.5-2.4,1-4.9,2-7.2c0.9-2.1,1.8-2.3,3.5-1.1c0.3,0.2,0.2-0.1,0.2-0.2c0.4-1.1,1.1-2.2,2.3-2.2
		c3.1,0,5.6-1.4,7.9-3.3c0.2-0.2,0.6-0.1,0.9,0.1c1.4,3.2,2.6,6.6,4.4,9.5c2.6,3.9,2,7-1.3,10C181.5,166.5,180.2,167.9,181.8,169.7z
		"/>
	<path class="st14" d="M51.1,371.1c9.1,0,18.3,0,27.4,0c6.7,0,13.3-1.3,19.9-1.9c0.4,0,0.9-0.1,1.3-0.1c0.8,0.1,2.1-0.5,2.2,0.7
		c0.1,1.1-1.1,1-1.9,1.3c-8.8,3-17.9,3.9-27.1,4.7c-12.1,1.1-24.2,0.6-36.2,0.4c-7.3-0.1-14.6-0.5-21.8-2.4
		c-0.8-0.2-2.1-0.1-2.1-1.2c0-1.3,1.3-0.8,2.1-0.9c10.1-1.4,20.2-0.3,30.3-0.6C47.2,371.1,49.2,371.1,51.1,371.1
		C51.1,371.1,51.1,371.1,51.1,371.1z"/>
	<path class="st15" d="M28.4,167.6c-1,2.4-2.4,4.6-2.9,7.1c0.1,1.1,2.2,1.2,1.3,2.7c-4.1-1.4-7.1-4.5-8.8-8
		c-5-10.4-10.8-20.4-15.4-31.1c-1.3-2.9,0.4-4.9,1.3-6.9c0.9-2.1,3.2-0.6,4.9-0.2c0.5,0.1,4.3,8.4,4,8.8c-3.2,3.7-0.9,6.3,1.4,9.4
		C19,155.5,24.2,161.2,28.4,167.6z"/>
	<path class="st16" d="M179.5,145.9c-0.9,0.6-1.9,1.1-2.6,1.9c-1.1,1.1-1.3,2.5-3.9,1.6c-2.2-0.8-4.7,1.3-4.7,4.5
		c-0.9-0.3-0.6-0.8-0.7-1.3c-0.1-0.5,0-1.1,0-1.9c-2.6,1.1-3,3.3-3.3,5.3c-0.3,1.4-0.6,2.8-1.7,3.8c-6.1-2.4-8.7-8.6-6-14.4
		c2.9-6.4,7.4-8.7,14.1-7.6c2.8,0.5,5.7,0.7,8.5-0.2c1.8-0.6,2,0.2,2.2,1.6C181.7,141.8,181.4,144.1,179.5,145.9z"/>
	<path class="st17" d="M176.9,82.4c-0.9,0.7-1.9,1.4-2.8,2.1c0.1,0.2,0.1,0.4,0.2,0.6c2.2-0.4,4.3-0.7,6.5-1.2
		c1.8-0.4,2.9,0.1,3.4,2c2.4,9.3,7.6,17.1,14.4,23.8c2.9,2.8,6.6,4.1,9.7,6.5c0.9,0.7,1.9,1.1,1.7,2.5c-1.4,0.3-2.4-0.3-3.4-1.1
		c-3.7-1.1-7.1-2.8-10.6-4.2c-0.1,1.4-0.3,2.9-1.5,4.3c-1.3-1.5-0.5-3.7-2.1-5.2c-1.6-1.4-3.7-0.7-4.9-2.1
		c-5.1-0.4-10.2-0.5-15.1-2.1c3.6-1.9,7.2,0.3,10.7,0.1c0.8-0.1,1.7,1.4,2.4-0.2c0.4-0.4,0.9-0.6,1.3-0.8c0.3-1.7-1.3-2.1-2.1-2.9
		c-1.9-2.2-4.4-4.1-4.3-7.4c0-0.9-0.4-1.2-1.1-1.3c-2-0.3-3.6-1.7-5.6-1.9c-1.9-0.6-3.9-0.2-5.7-1c-0.6-2.2,1.1-2,2.4-2.3
		c1.1-0.2,2.2,0.8,3.8,0.2c-2.4-1.6-4.6-1.6-6.6-0.2c-2.6,1.8-4.9,4-4.6,7.7c0.4,4.3,3.5,6,6.6,7.9c1,0.6,2.7,0.5,2.7,2.3
		c-6.7-0.5-11.2-4.9-11.3-10.9c0-5.2,3.9-9.4,9.2-9.6c1.9-0.1,2.8-0.1,2.6-2.7c-0.2-2.6,3-2.7,4.8-3.9
		C178,81.8,177.6,82.2,176.9,82.4z"/>
	<path class="st18" d="M220.6,116.7c-0.3-3.3,1.1-6,2.5-9c1.9-4,3-8.2,2.5-12.9c-0.7-6.7-2.2-13.1-4.2-19.5
		c-0.2-0.7-0.5-1.4-0.8-2.2c-1-2.7-2.4-4.1-5.4-2.5c-0.5,0.3-1.3,0.3-1.9,0.4c-0.1-1.7,1.4-2,2.5-2.6c1.1-0.6,2.3-0.8,3.2-1.6
		c0.7-0.5,1.8-0.9,0.1-1.5c1.4-1.2,3.2-1.1,4.9-1.4c1.1-0.2,6.9,4.4,7.2,5.4c0.1,0.4,0,0.9,0,1.3c-0.9,3.8,0.1,7.7,0.2,11.5
		c0.1,1.9,0.1,3.7-0.1,5.6c-0.1,0.6-0.3,1.3-0.5,1.8c-0.5,1.3-0.5,2.2,1.4,1.9c0.6-0.1,0.7,0.6,0.2,1.1c-0.6,0.8-1.1,1.8-1.2,2.8
		c-0.1,0.1-0.2,0.2-0.2,0.2c-0.5,3.9-0.5,3.9-3.1,6.4l0,0c-0.8,2-1.4,4.1-2.6,5.9c-1.1,2.5-3.4,4.6-2.5,7.8
		C222.3,116.8,221.6,117.1,220.6,116.7z"/>
	<path class="st19" d="M314.4,130c1.3-3.5,1.7-7.5,5.3-9.7c0.8-0.5,0.8-1.3,1.1-1.9c0.7-1.5,2-1.8,3.3-1.1c3.6,2.3,7.8,3.6,11.5,5.7
		c3.7,2.1,4.7,4.6,3.7,9.2c-0.4,1.9-1.1,3.7-1.1,5.7c-0.2,0.6,0.1,1.3-0.1,1.9c-0.3,1-0.8,1.9-1.9,2c-1.3,0.1-1-1.2-1.2-2
		c-0.1-0.5-0.2-1.1-0.4-1.6c-1.7-5.9-2-6.1-8.2-6.1c-1.5,0-3.1,0.1-4.5-0.5c-2.2-0.9-4.2-1.2-5.8,1c-0.4,0.5-1.2,1.1-1.6,0.4
		C313.8,132.1,313.9,131,314.4,130z"/>
	<path class="st20" d="M314.4,130c0.4,0.9-0.4,1.9,0.4,2.8c2.8-3.1,2.7-3.1,7.5-1.9c1.4,0.3,2.8,0.3,4.2,0.4c7.3,0.1,9.2,2,9.3,9.4
		c0,0.3,0.1,0.6,0.1,0.9c1.8-0.6,1.1-2.6,2.2-3.5c1.1,1.6,1,3.2-0.6,4.3c-1.5,1-1.5,3-2.8,4.1c-1.5-1.6-2.9-0.2-4.1,0.4
		c-2.1,1-4,1.4-5.6-0.7c-0.2-0.2-0.4-0.4-0.7-0.6c-0.9-1.5-3.5-0.8-4.1-2.8c0.6-1.3-1.3-2.6-0.5-3.3c-0.7,0.6,0.7,1.9,0.5,3.2
		c-2.3,1.6-4.6,2.6-7.2,0.6c0.9-3.1,0.6-6.3,0.6-9.5C313.7,132.4,313.3,131,314.4,130z"/>
	<path class="st21" d="M217.9,153c-2.3,0.5-4.7,1-7,1.4c-2.7,0.5-4.9,0.1-4.7-3.5c0-0.6-0.1-1.3-0.6-1.8c0.7-2.3-2.2-4.5-0.1-6.8
		c5.1,1,9.4-1.6,13.9-3c6.2-1.9,12.1-4.6,17.9-7.5c2.9-1.4,4.9-0.7,6.6,2.2c2,3.4,1.9,4.9-0.9,7c-2,1.5-4.3,2.4-6.8,2.8
		c-1-1.5-1.1-3.3-2-4.8c-0.7-1.2-1.5-1.9-2.9-1.3c-3.4,1.6-7,2.6-10.5,4c-1.9,0.7-2.2,1.8-1.6,3.6c0.6,1.8,1.6,2.8,3.7,2.2
		c2.3-0.6,4.3-2.4,6.9-1.7c0.5,1.7,2.4-0.3,3,1.1C228.1,150.2,222.7,150.9,217.9,153z"/>
	<path class="st22" d="M26.8,177.5c0.1-1.2-2.6-1-1.3-2.7c6.6,4.1,13.6,7.6,20.7,10.4c6.9,2.7,9.3,7.8,11,13.9
		c2.7,9.4,2,19.1,2.1,28.7c0,6.4,0.9,7.2,7.2,7.3c4.8,0.1,9.4-0.6,14-1.6c1.8-0.4,3.4-0.4,5.1,0.2c0.1,0.2,0.2,0.4,0.2,0.6
		c-4-0.4-7.8,1-11.6,1.8c-5.5,1.1-10.9,2.3-16.3,3.3c-1.9,0.3-2.6,1.2-2.6,3c-1.6-2.9-2.1-5.8-0.4-9c1.6-2.9,1.6-6.4,1.7-9.7
		c0.2-8,0.3-16-1.2-24c-0.9-5.1-3.2-8.9-7.9-11.4C40.6,184.8,33.7,181.1,26.8,177.5z"/>
	<path class="st23" d="M299.1,256.2c1.4-3.1,0.9-6.4,1.3-9.6c0.3-2.3,0-4.6,0.1-6.9c0.2-6.3,4.5-10.8,11.4-9.1
		c3,0.8,6.5-0.1,9.7-0.3c1.2,0,2.9,0.1,2.9,1.4c0,1.7-1.8,1-2.9,1.2c-3.5,0.8-7,0.6-10.5,0.6c-5.4,0-7.7,2.2-7.9,8.3
		c-0.5,12.3-1.7,24.5-2.3,36.7c-0.5,10.6-0.9,21.2-1.9,31.8c0,0.3-0.3,0.5-1.2,0.7c0-3.4-0.4-6.8,0.1-10.2c1.1-8.3,0.1-16.7,0.6-25
		c0.4-6.5,0.9-12.9,0.5-19.4C299,256.5,299,256.3,299.1,256.2z"/>
	<path class="st24" d="M161.2,241c1.5-1.3,3-0.5,3.5,0.8c0.8,2,2.1,1.9,3.7,1.9c7,0,13.9,0.4,20.9-0.7c4.4-0.7,7.3-3.5,7.5-8.1
		c0.3-7.3,0.6-14.7,0.9-22c0.3-8.1,1.9-16.2,1-24.3c-0.5-4.3,1-7.6,2.9-11c1.2-0.6,1.9,0.2,1.4,1.1c-1.8,2.8-0.6,6-1.4,8.9
		c-0.9,14.4-1.8,28.7-2.5,43c-0.3,4.6-0.2,9.2-0.2,13.8c-0.5,1.8-2,1.5-3.2,1.5c-2.9,0.1-5.7,0.1-8.6,0c-2.9,0.1-5.7,0.1-8.6,0
		c-3.8,0-7.5,0.1-11.3-0.1C164.4,245.2,162,244,161.2,241z"/>
	<path class="st25" d="M105.7,162.3c-2.2-1.5-4.4-3-6.6-4.5c4.7-6.3,8.6-13.1,12.8-19.7c1-1.6,1.4-3.1,0.3-4.8
		c-1.5-2.7,0.5-5,0.7-7.5c0.1-0.8,1.3-1.1,2.2-1c1.1,0.1,2,0.7,2.1,1.7c0.2,1.4,0.9,2.7,0.2,4.2c0.1,3.9-1.3,7.5-2.6,11.1
		c-2,5.4-4.1,10.8-6.2,16.1C108.1,159.5,107.5,161.3,105.7,162.3z"/>
	<path class="st26" d="M219.2,65.8c0.3,0.4,1.8-0.6,1.1,0.9c-0.7,1.6-2.3,1.9-3.8,2.3c-1.3,0.4-2.3,1.2-3.2,2.1
		c-5.1,3.2-10.8,5.1-16.4,7c-3.1,1.1-6.1,2.3-9.2,3.3c-3.2,1-6.5,0.6-9.6,1.9c-0.9,0.4-1.1-0.4-1.3-1c0.3-0.4,0.5-0.9,0.7-1.3
		c11.1-5.4,22.4-10.1,34.1-14c0.7-0.2,1.5-0.4,2.2-0.6C215.7,66.1,217.3,65,219.2,65.8z"/>
	<path class="st27" d="M289.9,120.1c-2.3-0.8-4.6-1.3-7-0.8c0.6-2.6,1.1-5.2-0.3-7.7c-0.9-1.5,0.2-2.4,1.1-3.4
		c2.2-2.6,1.8-3.9-1.1-5.3c-6.8-3.3-13.4-6.8-20.1-10.2c-1.8-0.9-4-1.2-5-3.5c1.6-0.7,3-0.3,4.4,0.5c7.6,4.1,15.2,8.1,22.9,11.9
		c5.9,3,8.6,6.6,6.7,13.5c-0.8,2.9-3.3,0.7-4.8,1.8C286.9,118.8,289.6,118.2,289.9,120.1z"/>
	<path class="st28" d="M219.2,65.8c-1.8-0.3-3.4,1.1-5.3,0.7c3.3-2,7.1-2.2,10.7-3c1-0.2,1.9,0.3,2.1,1.2c0.9,2.9,2,1.2,3.1,0.2
		c3.5-3.2,8.2-3.7,11.8-1.3c4,2.7,5.7,7.5,3.9,11.8c-1,2.5-2.3,5-4.1,7.1c-3,3.4-6,6.9-9,10.3c-0.1-0.2-0.1-0.6-0.2-0.6
		c-1.1-0.5-1.6,2.2-2.6,0.7c-0.7-1.1-0.1-2.7,0.8-3.9c0.3,0.1,0.7,0.3,0.9,0.1c4.9-4.4,9.2-9.2,9.5-16.3c0.1-2.1-0.3-4.1-2.3-5
		c-2.2-1-4.3-0.4-5.9,1.4c-0.5,0.6-1,1.6-2.1,1.2c0.1-1.3,0-2.3-1.7-2.4c-0.9-0.1-1.9-0.3-2.2-1.2c-1.2-3.1-3.3-2.4-5.6-1.7
		C220.4,65.3,219.8,65.6,219.2,65.8z"/>
	<path class="st29" d="M223.3,371.8c-0.6,1-1.6,1-2.6,0.9c-8,0-16-0.1-24-0.1c-1,0-2,0.1-2.6-0.9c-0.2-0.5-0.1-1.1-0.2-1.6
		c-0.7-5.6-0.3-6.2,5.1-5.1c3.3,0.7,6.5-0.8,9.7,0.1c3.6,1.1,7.3,2.3,11,3.4C221.3,369.1,223,369.6,223.3,371.8z"/>
	<path class="st30" d="M232.7,147.3c-0.6,0.1-1.3,0.2-1.9,0.4c-1.3,0.4-1.3-0.2-0.9-1.2c1.5-1.8,3.4-2.8,5.8-2.7
		c1.9-0.7,3.9-1.3,5.8-2.2c2.9-1.5,3.4-3.7,1.8-6.8c-1.7-3.1-3.1-3.5-6.4-1.6c-8.7,4.7-18.1,7.5-27.4,10.5c-1.4,0.4-3.1,0.7-4-1.2
		c1.1-1.4,2.8-2,4.3-2.9c1.6,0.9,3.2,0.9,5.1,0.4c6.7-1.9,13.1-4.5,19.3-7.6c1.5-0.7,2.6-1.7,2.6-3.5c5.5-2.3,8.3,0.5,10.6,5.1
		c2.3,4.5,2.4,4.6-2.2,7.1C240.9,143.2,237,145.6,232.7,147.3z"/>
	<path class="st31" d="M313.2,143.1c2.5,0.8,4.9-0.3,7.3-0.6l-0.1-0.1c1.3,1.4,3.9,0.4,4.7,2.6c-1.9,1.1-4.1-0.5-6,0.7
		c-0.4,1.3,0.3,1.9,1.4,2c1.5,0.1,1.5-1.3,1.9-2.2c0.8-0.8,2,1.1,2.6-0.5c2.5,2.7,4.7,1.3,7.1-0.2c1.6-1.1,3-1.3,2.7,1.4
		c-0.8,2-1.7,3.9-3.3,5.4c-3.2,3.2-7.3,3.6-11.6,3.6c-1.6,0-2.7-0.7-3.5-2.1c-0.6-1-1.3-1.9-1.9-2.9
		C314,147.9,312.9,145.7,313.2,143.1z"/>
	<path class="st32" d="M157.9,367.2c0,0.4-0.1,0.9,0,1.3c1.3,5.3,1.3,5.3-4.2,5.3c-5.2,0-10.5-0.1-15.7,0.2c-3,0.1-3.7-0.9-2.7-3.5
		c3.6-1.1,7.1-2.2,10.7-3.3c3.9-1.6,7.8-1.7,11.9-1C158.1,366.5,158.1,366.8,157.9,367.2z"/>
	<path class="st33" d="M105.1,48.7c-0.8-0.1-1.5-0.1-2.3-0.2c11.3-10.2,16.5-21.9,10-37.2c1.4,1.2,2.4,2.1,3.4,3
		C122.9,27.1,118.4,41.2,105.1,48.7z"/>
	<path class="st34" d="M363.2,122.6c-2.3-0.3-4.4,0.5-6.4,1.4c0-1.3,0.7-2.5-1.5-3.2c-2.1-0.7-2.4-3.5-3.2-5.4
		c-0.6-2.8,1.4-4.4,2.8-6.3c0.3-0.4,0.9-0.7,1.4-0.7c1.1,0,5.8,5.4,5.7,6.5C361.8,117.6,362.1,120.2,363.2,122.6z"/>
	<path class="st35" d="M270.2,206c-0.3,0.6-0.4,1.3-0.8,1.8c-0.5,0.8-0.7,2.1-2,1.9c-1.1-0.1-1.1-1.2-1.4-2
		c-0.6-1.4-1.4-2.5-3.1-2.3c-1,0.1-2.2,0.1-2.4-1.2c-0.2-1.1,0.9-1.6,1.7-2.2c0.9-0.9,1-1.9,0.6-3c-0.3-1-0.8-2.3,0.4-3
		c1-0.6,2,0.3,3,0.8l0,0c1.4,1.1,2.5,0.1,3.5-0.6c0.7-0.4,1.3-0.8,2.1-0.4c1,0.5,0.8,1.5,0.6,2.3c-0.4,1.5-0.2,2.6,1,3.8
		c1.9,1.9,1.4,2.9-1.1,3.4C271.6,205.5,270.8,205.4,270.2,206z"/>
	<path class="st36" d="M161.2,241c1.6,1.6,3.1,3.4,5.3,4.2c1.5,0.6,2,1.9,1.8,3.4c-0.3,1.9-2,1.1-3.1,1.5c-1.6,1.1-3.9-0.1-5.3,1.8
		c-1.3-2.6-4.2-3.6-6.1-5.6c0.6-1.3,1.3-2.5,1.9-3.8c0.5-1.4,0.9-3,2.6-3.6c0.7-0.1,1.2,0.2,1.4,1
		C160.3,240.1,160.7,240.6,161.2,241z"/>
	<path class="st37" d="M354.2,24.8c-3-1.9-5.4-4.6-9-5.4c-1.1-0.3-2.1-0.8-2.4,0.9c-0.7,0.6-1.6,0.8-2.5,0.8
		c-7.5-0.1-11.7,4.7-14.9,10.6c-2.1,3.8-1.8,4,2.2,5.1c-2.9,2.6-4.7,1.9-5.6-1.9c-2.2,4.7,0,9.3,0.3,14
		c-6.8-13.9,3.7-30.6,17.9-30.8c0.6-0.4,1.2-0.1,1.8,0C347.1,18.6,351.4,20.4,354.2,24.8z"/>
	<path class="st38" d="M21.7,69.2c0.3,1.7,0,2.9-1.2,4.4c-2.2,2.6-2.5,6.2-3.3,9.4c-0.5,1.8-0.5,3.5-3.1,3c-1.1-0.2-0.7,1.1-0.9,1.7
		c-2.9-6.5-0.1-14.9,6.1-18.1C20,69.2,20.8,69,21.7,69.2z"/>
	<path class="st39" d="M24.3,318.9c-1,3.9-3.4,7.1-5,10.7c-0.5,1-1.2,1.6-2.3,1.2c-1.2-0.4-0.7-1.5-0.6-2.3
		c0.6-4.1,1.3-8.2,1.9-12.3c0.6-3.8,2.6-4.5,6-1.9C25.5,315.8,25.5,317.4,24.3,318.9z"/>
	<path class="st40" d="M75.9,172.2c-0.4,3.4-2,4.7-5.8,4.9c-4.5,0.3-8.9,0.2-13.3-0.4c3.3-1.1,5.7-3.3,7.2-6.4
		c0.8,0.7,0.6,1.5,0.5,2.4c2.9-1.4,4.7-4.1,7.4-5.8C71.9,169.7,72.4,172.1,75.9,172.2z"/>
	<path class="st41" d="M344.9,58c-1.1,0.2-2.3,0.3-3.5,0.5c4.4-3.5,8.1-7.6,11.1-12.4c3.1-5,3.9-10.2,3.7-15.9
		c1.2,5.8,2.4,11.5-1,17c-0.4,0.7-0.6,1.4-0.5,2.2C352.5,53.4,349.1,56.2,344.9,58z"/>
	<path class="st42" d="M58.9,304.3c3-2.5,6.6-3.8,10-5.5c1.2-0.6,2.1,0.2,2.8,1c1,1,1.9,2.1,2.9,3.1c-1.9-0.5-3.3,0.5-4.7,1.4
		c-3.1,1.9-6.6,3.2-9.1,6C59,308.7,59.3,306.4,58.9,304.3z"/>
	<path class="st43" d="M287.8,55.3c-0.5,1.1-1.3,1.7-2.2,2.1c-8.8,4.2-17.6,8.5-26.1,13.4c-0.8,0.5-1.8,0.7-2.4-0.2
		c-0.6-1,0.2-1.6,1.1-2c7.4-3.7,14.8-7.5,22.3-11.2c1.7-0.8,3.1-2,4.7-2.9C286.5,53.8,287.2,54.4,287.8,55.3z"/>
	<path class="st44" d="M58.9,304.3c1.9,0.1,1.1,1.6,1.3,2.6c0.2,1.1,0.4,2.3,0.6,3.4c-0.4,3.9-2.8,7-4.2,10.5
		c-0.3,0.7-0.9,1-1.6,0.8c-0.7-0.2-1-0.8-1-1.5c-0.1-2.2,0.4-4.4,0.8-6.5c1.3-2,0.4-4.2,0.7-6.3C55.8,305.4,56.3,303.7,58.9,304.3z"
		/>
	<path class="st45" d="M24.3,318.9c-0.5-1.5,0-3.1,0.1-4.6c3.5-1.5,6.2-4,9.1-6.4c2,1.9,4,3.7,6.1,5.5c-4.3,0.6-8.1,2.5-11.8,4.5
		C26.6,318.6,25.6,319.1,24.3,318.9z"/>
	<path class="st46" d="M273.9,79.1c3.5,0,7,0,10.5,0c1,0,2.5-0.3,2.5,1.3c0,1.2-1.4,1.3-2.3,1.3c-7.6,0.1-15.1,0-22.7,0
		c-0.9,0-2,0-2-1.2c-0.1-1.3,1.1-1.4,2.1-1.4C266,79.1,269.9,79.1,273.9,79.1C273.9,79.1,273.9,79.1,273.9,79.1z"/>
	<path class="st47" d="M186.9,245c3.9-0.6,7.9,0.4,11.9-0.6c1.3,0.5,1.6,1.7,1.2,2.7c-1.1,3.3-0.2,6.7-0.6,10
		c-0.9-1.9-0.6-3.8-0.6-5.8c0-1.7-0.4-2.2-2.3-2.1c-3.4,0.3-6.8,0.2-10.1,0.2C185.6,247.9,185.9,246.4,186.9,245z"/>
	<path class="st48" d="M316.5,153.2c3,2.3,6.1,1.5,9.2,0.6c2-0.6,3.9-1.4,5.8-2.1c0,0.3,0.1,0.5,0.1,0.8c-0.9,4-3.8,5.9-7.4,7.3
		c-1.7,0.7-2.7,0.8-3.9-0.7C318.8,157.2,316.6,155.9,316.5,153.2z"/>
	<path class="st49" d="M307.1,342.8c0.1,0.2,0.2,0.4,0.1,0.6c-3,2.8-6.2,5.4-9.7,7.3c-2.1,1.1-4.5,1.4-5.5,4c-1.3-1.1-0.7-2.2,0-3.2
		c1.9-2.8,3.9-5.5,5.9-8.2C300.9,339.2,302.8,339.1,307.1,342.8z"/>
	<path class="st50" d="M128.3,72.4c1.1,0.5,2.1,0.9,3,1.5c6.8,3.8,13.8,7.1,20.7,10.4c0.8,0.4,2,1.2,1.4,2.2
		c-0.5,0.9-1.9,0.6-2.7,0.1c-7-4.3-14.3-7.9-21.7-11.4c-0.9-0.4-1.9-0.8-1.7-2C127.4,72.9,127.9,72.7,128.3,72.4z"/>
	<path class="st51" d="M128.9,115.9c-0.6,0.1-1.1,0-1.3-0.7c-0.2-0.9,0.4-1.3,1.2-1.7c3.3-1.7,6.6-3.4,9.9-5c4.4-2.1,8.9-4,13.1-6.5
		c0.6-0.4,1.3-0.6,1.8,0c0.5,0.7,0.1,1.2-0.5,1.6c-7.9,4-15.5,8.5-23.6,12.1C129.3,115.8,129.1,115.9,128.9,115.9z"/>
	<path class="st52" d="M125.7,142.7c0.5,0,0.8,0.2,1,0.7c0.2,0.6,0.3,1.6,0.8,1.8c3.2,1.5,2.4,3.1,0.9,5.6c-0.9,1.5-1,2.4-2.8,1.2
		c-0.4-0.3-1.3-0.1-1.9,0c-1.7,0.4-1.6-0.8-2.3-1.9c-2.6-4.6,1.9-5.2,3.8-7.2C125.3,142.8,125.5,142.8,125.7,142.7z"/>
	<path class="st53" d="M343.6,344.7c1.9,2.5,3.9,5,5.3,7.9c-3.1,1.1-5.4,0-7.6-2.2c-1.2-1.2-2.8-2.1-4.1-3.3
		c-0.7-0.7-1.5-0.9-2.3-0.3c-2.1-2.8,1.3-3.2,2.1-4.7c1.2-0.9,2.2-0.3,3.2,0.4C341.2,343.3,342.3,344.1,343.6,344.7z"/>
	<path class="st54" d="M342,18c-0.6,0-1.2,0-1.8,0c-0.3-2.3,1.2-5.3-3.1-6c1.6-1.4,3.7-1.7,3.3-4c-0.1-0.8,1.3-1,1.3-0.7
		c0.3,3.2,4.9-0.6,4.7,3c0,0.2-0.4,0.4-0.4,0.5c0.2,2.4,0.5,4.7-3.3,4.1C342.1,14.9,341.2,16.8,342,18z"/>
	<path class="st55" d="M71.9,166.9c-2,3.6-5.5,5.4-8.8,7.7c0.2-1.6,1.4-2.8,0.9-4.4c0.1-0.9-0.5-1.1-1.2-1.4c0.1-1.6,0-3.3,0.6-4.8
		c2.8,0.9,5.6,1.3,8.5,0.9c0.5,0.8,1.3,0.5,2,0.7C73.2,166.1,72.6,166.5,71.9,166.9z"/>
	<path class="st56" d="M112.3,207.8c1.2,0.3,2.4,0.6,3.5,1c0.9,0.4,1.2,1.2,1.1,2.2c-0.1,0.9-0.7,1.4-1.5,1.5
		c-1.7,0.3-3.5,0.5-5.2,0.9c-1.2,0.3-2.5,0.8-3-0.8c-0.5-1.6-0.1-3.1,1.6-3.8C109.8,208.3,111.1,208.1,112.3,207.8z"/>
	<path class="st57" d="M343.6,344.7c-1.5,0.1-2.8-0.1-3.8-1.3c-0.7-0.9-1.6-1.5-2.8-1.3c1.9-2.2-1.7-3.8-0.6-5.9
		c0.8,3.3,3.2,2.6,5.5,2.2c2.6-0.5,1.4-2.5,1.4-4c0-4.7-1.2-9.3-1-14c1.4,5.6,2,11.3,1.7,17C343.8,339.8,342.2,342.1,343.6,344.7z"
		/>
	<path class="st58" d="M201.5,187.6c0-3-0.7-6,0.9-8.8c0.4-0.8-0.2-1.1-0.9-1.2c2.8-5.5,7.4-11.8,10.1-13.6c0.6,1.9-1.7,2.7-1.5,4.4
		c-2.3,3.7-4.4,7.5-6.8,11.1c-1,1.5-1.1,3-1.1,4.6C202.1,185.3,202.3,186.5,201.5,187.6z"/>
	<path class="st59" d="M220.6,116.7c0.7-0.3,1.4-0.5,2.1-0.8c3.9,1.4,4.2,2.6,1.6,6.1c-1.8,3.1-4.1,1.5-5.4,0
		C217,119.8,219.3,118.3,220.6,116.7z"/>
	<path class="st60" d="M264.9,107.2c-0.1,1.6-0.9,2-2,1.2c-3.8-2.8-7.4-5.7-11.2-8.5c-0.6-0.4-0.8-1-0.2-1.7c0.4-0.5,1-0.5,1.5-0.2
		c3.7,2.6,7.5,5.3,11.2,7.9C264.5,106.2,264.7,106.8,264.9,107.2z"/>
	<path class="st61" d="M264.5,50.1c-0.6,0.9-0.7,1.3-1,1.6c-3.3,2.8-5.2,6.7-7.9,10c-0.7,0.9-1.4,1.9-2.6,0.8
		c-1.4-1.3,0.2-1.7,0.8-2.5c2.5-3.1,5-6.3,7.5-9.4c0.5-0.5,1-1.3,1.9-1C263.6,49.7,264,49.9,264.5,50.1z"/>
	<path class="st62" d="M208.7,365.1c-4.4,0.2-8.7,2-13.2,0.1c-1.1-0.5-1.4,0.5-1.4,1.5c0,1.6,0,3.3-0.1,4.9
		c-0.9-0.7-0.4-1.7-0.5-2.5c-1.2-1.5-1-3-0.1-4.5c0.5-0.9,0.8-1.7,0.9-2.6c2-0.3,3.9,0,5.8,0.3c1.1,0.2,2.2,0.3,2.6-1.1
		c-0.5,2.9,0.8,4,3.6,3.3C207.1,364.3,208,364.3,208.7,365.1z"/>
	<path class="st63" d="M334.9,346.8c0.1-1.3,0.2-2.7,2-1.1c1,0.9,2.3,1.7,3.3,2.7c2.4,2.5,5.1,4.5,8.8,4.2c0.9,1,1.9,2.2,0.8,3.4
		c-1.5,1.6-2.6-0.2-3.6-0.9C342.3,352.4,338.6,349.6,334.9,346.8z"/>
	<path class="st64" d="M307.1,342.8c-0.1,0-0.2,0-0.3,0c-1.7,0.1-2.1-3.6-4.3-1.6c-1.4,1.2-3.5,0.6-4.6,2.2c0.5-2.6,1-5.3-0.6-7.8
		c0.6,0.1,1.3,0.2,1.9,0.4c2.6,0.9,4.5,0.5,5.3-2.5c0,0.2,0.2,0.5,0.1,0.6C302.5,337.8,304.7,340.3,307.1,342.8z"/>
	<path class="st65" d="M63.3,164.4c1.1,1.6,1,3.2-0.5,4.5c-1.3,0.5-2.7,0.9-4,1.4c-2.3-0.6-4.4,1.2-7.2,0.2c3.8-1.4,6.9-3.4,9.3-6.2
		c0.6-0.6,1.2-0.2,1.8-0.2C63,164.1,63.2,164.1,63.3,164.4z"/>
	<path class="st66" d="M292,354.6c0-1.5,0.5-2.8,1.6-3.9c0.3-0.3,0.8-0.9,0.9-0.9c4.4,1.9,5.6-3,8.5-4.2c1.4-0.6,2.7-1.8,4.2-2.4
		c0.3,1.1-0.4,1.6-1,2.2c-4,3-8,6-12,9C293.5,355,292.8,355.8,292,354.6z"/>
	<path class="st67" d="M262.1,142.5c2.8,0,4,1,4.2,3.1c0.2,2.2-1.1,3.4-3,3.4c-1.8,0-3.5-1-3.5-3.1
		C259.7,144,260.6,142.5,262.1,142.5z"/>
	<path class="st68" d="M187.4,110.3c5.9,1.5,6.5,2.1,6.9,6.5c0.1-0.1,0.4-0.3,0.4-0.4c-0.1-3.8,1.4-4.4,4.4-2.3
		c2.3,1.6,5.3,1.6,7.5,3.4c-2.2-0.3-4.4-0.5-6.4-2.1c-1.6-1.3-3.3-1.1-4.3,1c-0.5,1.1-1,2.3-2.5,2.3c-1.1,0-2.5,0.4-2.9-0.9
		c-0.4-1.4,1.2-0.8,1.8-1.2c1.4-0.9,1-1.8,0.3-3C191.5,111.4,188.7,112.1,187.4,110.3z"/>
	<path class="st69" d="M149.4,120.8c-0.6-0.5-1-0.7-1.3-1c-0.4-0.4-0.6-0.9-0.1-1.4c2.7-2.8,5-6.1,7.3-9.2c0.4-0.5,1.3-1.1,2-0.4
		c0.8,0.7,0.5,1.6-0.1,2.3c-2.4,2.9-4.9,5.8-7.3,8.8C149.7,120.1,149.6,120.4,149.4,120.8z"/>
	<path class="st70" d="M236.4,174.2c-0.2,1.5-0.7,2.9-1.8,4.3c-1,1.2-1.8,1.9-3.1,0.5c-1-1-2-1.9-0.3-3.1c0.8-0.6,1.3-1.4,1.4-2.5
		c0.1-1.3,1-1.9,2.3-1.8C236.4,171.8,236.5,172.9,236.4,174.2z"/>
	<path class="st71" d="M157.8,366.6c-0.2-0.2-0.6-0.7-0.7-0.6c-3.5,2.2-7.6-0.7-11.1,1.2c0.5-1,1.3-1.3,2.4-1.4
		c2.6-0.1,3.1-1.2,1.7-3.4c2.3,1,4.7,0.6,7.1,0.9c2.2,0.3,1.7-1.8,2.6-2.8C161.9,363.5,158.6,364.6,157.8,366.6z"/>
	<path class="st72" d="M117.6,130.6c-0.7-1.8,0.4-5-2.7-5.1c-3.3-0.1-1.4,3.3-2.4,4.9c-0.4,0.7-0.2,1.9-0.2,2.9
		c-1.3-1.3-1.9-2.7-0.7-4.3c0.6-0.8,0.9-1.7,0.5-2.4c-1.2-2.4,0.2-3.6,2.2-4c2.3-0.5,3.4,1.5,3.8,3.2
		C118.4,127.2,118.8,129.1,117.6,130.6z"/>
	<path class="st73" d="M227.9,126.1c1.4,2.3,3.7,1.8,6,2c-2.8,3.1-6.7,3.5-10,5.2c0.6-2.2,3.4-2.4,3.7-4.4c0.3-2.2-3.2-2-3.4-4.3
		c1.3,0.1,1.8,1.8,3.2,1.4C227.5,125.9,227.7,125.9,227.9,126.1z"/>
	<path class="st74" d="M148.5,69.8c0.2,0.1,0.7,0,0.8,0.2c2.1,2.4,5.1,3.7,7.5,5.8c0.6,0.5,1.3,1.2,0.8,2c-0.8,1.3-1.5-0.1-2.1-0.4
		c-2.6-1.7-5.2-3.5-7.8-5.4c-0.5-0.3-1.1-0.8-0.8-1.6C147.2,69.7,147.9,69.9,148.5,69.8z"/>
	<path class="st46" d="M270.2,206c0.1-0.2,0.2-0.4,0.4-0.5c2.8-0.8,4.7-1.8,1.3-4.5c-0.6-0.4-0.3-1.4-0.1-2.2
		c0.3-0.8,0.7-1.8-0.1-2.4c-0.9-0.7-1.6,0.2-2.3,0.6c-1.1,0.6-2.3,1.6-3.2-0.3c1.4,0,2.6-0.4,3.6-1.3c0.8-0.7,1.8-0.9,2.7-0.4
		c1.1,0.6,0.8,1.6,0.5,2.6c-0.5,1.6-0.1,2.9,1.1,4.1c0.8,0.7,2.3,1.3,1.5,2.9c-0.7,1.2-1.9,1.3-3.2,1.3
		C271.7,205.9,270.9,205.9,270.2,206z"/>
	<path class="st75" d="M149.9,94.2c-7.3,0-14.5,0-21.8,0c7.3-1.6,14.5-1,21.8-1C149.9,93.5,149.9,93.8,149.9,94.2z"/>
	<path class="st76" d="M213.9,125.8c0.8,0.3,2.1,0.4,1.8,1.5c-0.6,2.5-1.3,5.1-2.9,7.3c-0.6,0.9-1.4,0.3-2,0
		C211.6,131.6,212.2,128.5,213.9,125.8z"/>
	<path class="st77" d="M352.1,115.4c0.6,1,1.3,2,1.8,3.1c0.5,0.9,1,2,2,2c5.2,0,2.2,2,0.9,3.6c-1,1.3-2.6,2.1-2.7,3.9
		c-0.5-0.3-0.9-0.8-0.6-1.3c1.6-2.8,1.1-5.2-0.6-7.8C352.4,117.9,351.9,116.7,352.1,115.4z"/>
	<path class="st78" d="M305.8,62.8c0.2,2.1-1.3,2.4-2.8,2.5c-1.7,0.1-2.3-1.4-2.3-2.5c0-1.1,0.8-3,1.9-2.8
		C303.9,60.2,306.1,60.4,305.8,62.8z"/>
	<path class="st79" d="M172.3,42.1c2.8-0.4,3.1,1.9,3.3,3.8c0.3,2.6-2.4,2.8-3.8,3.1c-1.2,0.3-3.4-1-3.2-2.9
		C168.7,44.1,169.3,41.8,172.3,42.1z"/>
	<path class="st80" d="M90.4,130.1c1.3,0,2.3,0.8,1.9,1.7c-0.7,1.8-2.1,3.2-3.9,3.8c-0.9,0.3-1.9-0.9-1.8-1.9
		C86.9,131.5,88.7,130.8,90.4,130.1z"/>
	<path class="st81" d="M59.5,91.6c1.6,0,2.5,0.7,2.5,2.3c0,1.7-0.8,2.4-2.4,2.4c-1.7-0.1-2.7-0.9-2.8-2.6
		C56.8,91.9,58.1,91.5,59.5,91.6z"/>
	<path class="st82" d="M323.3,98.9c-1.7-0.6-3-1.1-2.9-2.9c0-1.9,1.4-2.3,2.9-2.3c1.3,0,2.4,0.9,2.3,2.3
		C325.5,97.4,324.4,98.3,323.3,98.9z"/>
	<path class="st83" d="M101.3,89.4c-0.5,0.9-1.2,1.6-2.3,1.5c-1.9-0.3-3.2-1.4-3.3-3.4c0-0.9,0.3-2,1.5-2.2
		C97.8,85.2,101.3,88.8,101.3,89.4z"/>
	<path class="st84" d="M289.3,44.4c0.5,2-1,2.3-2.5,2.5c-1.6,0.1-2-1.1-2.1-2.3c-0.2-1.7,0.6-2.4,2.3-2.5
		C288.7,42,289.6,42.6,289.3,44.4z"/>
	<path class="st85" d="M227.9,102.2c0.2-1.1,0-2.4,1.8-2.3c0.6,0.1,0.6-0.2,0.7-1c0.2-1.1-0.3-2.4,0.8-3.3c0,1-0.1,2,0,3
		c0.2,1.7,0.7,3,2.6,1.4c0.5-0.4,0.9-1.2,1.6-0.4c0.6,0.7,0.5,1.4-0.1,2.1c-1.4,1.5-3.1,1.8-4.7,0.7
		C229.6,101.8,228.8,101.6,227.9,102.2z"/>
	<path class="st86" d="M4.6,9.4c0,1.6-0.8,2.4-2.5,2.4c-1.7,0-2.5-1.1-2.5-2.5c-0.1-1.5,1-2.3,2.6-2.3C3.8,6.9,4.6,7.7,4.6,9.4z"/>
	<path class="st87" d="M127.6,6.2c-1-0.3-2.9,0.6-2.5-1.5c0.2-1-0.4-3.3,1.5-3c0.8,0.1,3.4-0.2,2.9,1.8
		C129.4,4.3,130.4,7.1,127.6,6.2z"/>
	<path class="st88" d="M22.3,17.6c0.1-2.1,1-3.4,3.1-3.3c2,0.1,3.4,1.3,3.4,3.2c0,2-1.4,3.1-3.4,3.3C23.3,21,22.4,19.7,22.3,17.6z"
		/>
	<path class="st89" d="M0.9,192.1c-1.5,0-2.9,0.3-3.3-1c-0.4-1.6,1.3-1.7,2.3-2.2c0.7-0.3,1.4-0.6,2.2-0.7c1.1-0.3,2.4-1.3,3,0.5
		c0.6,1.8-0.6,2.6-2,3.1C2.2,192,1.3,192,0.9,192.1z"/>
	<path class="st46" d="M266.2,196.7c-2.3-0.5-4.2-0.8-2.7,2.7c0.5,1.1,0,2.1-1.3,2.6c0.5-1.3,0.1-2.6,0.1-3.8c0-1.1-0.7-2.7,0.8-3.1
		C264.3,194.6,265.5,195.4,266.2,196.7z"/>
	<path class="st90" d="M106.8,189.4c-0.2,0.9-0.8,1.4-1.6,1.1c-0.8-0.4-2.2-0.1-2.1-1.6c0.1-0.9,1-1.2,1.7-1.2
		C105.9,187.7,106.5,188.4,106.8,189.4z"/>
	<path class="st38" d="M13.1,87.7c1.8,2.4,3.5,4.9,5.3,7.3C15.4,93.5,13.6,91,13.1,87.7z"/>
	<path class="st85" d="M225.3,108.2c0.6-2.1,1.2-4.2,2.6-5.9C227.9,104.6,227.3,106.7,225.3,108.2z"/>
	<path class="st91" d="M321.7,176.1c0.9-5.4,1.1-11.2,7.3-13.8c1.5-0.1,2.6-1,3.7-2c1.2-1.1,2.3-0.6,3.2,0.3c0.9,1-0.1,1.8-0.8,2.5
		c-1.4,1.4-2.7,2.8-4.5,3.7c-4.9,2.7-5.5,4.3-4.4,9.9c0.9,4-0.5,7.8-1.4,11.6c-1.3,5.4-2.9,10.7-3.1,16.3c0,1.2-0.4,2.4-2,2.6
		c-0.3-3.5-0.3-7.1,0-10.6c0.7-4.4,0.5-8.8,1-13.2C320.9,181,321.4,178.6,321.7,176.1z"/>
	<path class="st92" d="M145.3,208.6c-1.2,1.6-2.3,3.3-3.7,4.6c-2.4,2.4-2.5,4.1,0,6.7c5.9,6.2,11.6,12.4,16.9,19.2
		c-0.9,1.1-1.7,2.2-2.6,3.3c0.2-3.6-2.4-5.8-4.4-8.1c-4.4-5-8.9-9.9-13.5-14.8c-1.5-1.6-1.5-3.1-0.4-4.7c1.8-2.6,3.9-5,6.3-7.1
		C145.4,206.2,145.2,207.5,145.3,208.6z"/>
	<path class="st93" d="M165.2,250c3.6-0.8,2.6-2.8,1.3-4.9c3.9-0.6,7.8-0.3,11.7-0.1c1.1,2.7,2.9,4.1,5.9,3.9c0.5-0.1,1,0.3,1.4,0.8
		c-0.7,0.1-1.5,0.4-2.2,0.4C177.3,249.7,171.2,249.9,165.2,250z"/>
	<path class="st94" d="M185.5,249.6c-0.9-0.1-1.7-0.2-2.6-0.2c-4.6,0-4.6,0-4.7-4.5c2.9,0,5.8,0,8.7,0c0.1,1.6,0.2,3.1-0.5,4.6
		C186.1,249.6,185.8,249.6,185.5,249.6z"/>
	<path class="st95" d="M181,281.9c-0.7-0.2-1.3-0.4-2-0.6c-0.3-1.2,0.7-2,0.8-3.3C180.8,279.4,181.2,280.6,181,281.9z"/>
	<path class="st96" d="M316,160.3c1.1,0.5,1,1.4,0.6,2.2c-4.5,12.3-5.6,25.3-7.5,38.1c-1.2,0.8-0.2,2.7-1.7,3.3
		c-1.4-7.7-2-15.4-1-23.2c0.3-2,0.6-3.8,1.8-5.5c2.8-4.1,4.6-8.5,2.5-13.6c-0.2-0.5-0.3-1.1-0.1-1.6c0.3-0.9,0.6-2,1.7-2.2
		c1.1-0.3,1.6,0.4,2,1.3C314.8,159.7,315.3,160.2,316,160.3z"/>
	<path class="st97" d="M308.4,212.4c0,2.8,0.1,5.7,0,8.5c-0.1,2.4,0.9,3.6,3.4,3.5c0.6,1.9,0.5,3.7-0.7,5.3
		c-2.8,0.4-3.7-0.1-3.6-3.6C307.6,221.6,307.6,217,308.4,212.4z"/>
	<path class="st98" d="M311.1,229.7c0.1-1.8-0.3-3.6,0.7-5.3c2.4,0.1,4.8,0.2,7.1,0.3c-0.9,1.8-1.1,4-3.1,5
		C314.2,229.7,312.6,229.7,311.1,229.7z"/>
	<path class="st99" d="M315.8,229.7c1.8-1.2,0.4-4.4,3.1-5c1.3-1.1,0.3-2.7,0.9-3.9c1.2,2.6-0.2,5.6,0.9,8.2
		c0.3,0.7-0.6,0.7-1.1,0.7C318.4,229.8,317.1,229.8,315.8,229.7z"/>
	<path class="st100" d="M81.2,26.6c-0.4-7.4,3.1-12.7,8.1-17.3c0.6-0.5,1.2-1.2,2-0.6c0.7,0.6,0,1.2-0.4,1.6
		c-3.9,5.1-4.9,10.8-4.4,17c0.2,1.9,0.2,3.7,0,5.6c-0.2,1.7-1.4,3.1-2.8,3.3c-1.4,0.2-1.3-1.8-1.6-2.8
		C81.2,31.1,80.9,28.7,81.2,26.6z"/>
	<path class="st101" d="M327.6,36.7c-0.6,0.1-1.3,0.2-1.9,0.4c-2.5,0.6-3-0.7-2.4-2.7c2.5-8.9,10.2-14.4,19.5-14.1
		c0.1,1.2-0.8,1.7-1.7,2.1C334.6,25.3,330.7,30.6,327.6,36.7z"/>
	<path class="st0" d="M321.7,176.1c-0.5,6.9-0.5,13.8-2,20.6C319.4,189.7,319.9,182.9,321.7,176.1z"/>
	<path class="st102" d="M63.3,164.4c-0.2-0.1-0.3-0.1-0.5-0.1c-0.5-1.2-0.8-2.4-0.2-3.8c1.1-3,2-6.1,2.7-9.1
		c0.4-1.6,1.1-2.2,2.7-2.2c1.1,0,2.2,0,3.3-0.3c3.8-1.1,3.8-1.2,4.1,2.6c0.2,1.5,0.5,3,0.7,4.6c0.4,3.8-0.6,7-4,9.1
		C68.9,167.2,66.1,166,63.3,164.4z"/>
	<path class="st103" d="M181.6,159c-0.1,2.4-2.2,2.4-3.6,2.3c-1.8-0.1-3.8-0.6-4.8-2.4c-0.7-1.1,0.2-1.9,1.4-1.8
		c1.8,0.1,3.4-0.6,5.1-1.1c0.9-0.3,2.1-1.5,2.9-0.1C183.3,157.1,182.7,158.2,181.6,159c-1.7-2.3-3.5-0.4-5.5-0.3
		C178.1,160.3,179.9,158.6,181.6,159z"/>
	<path class="st104" d="M176.1,156.2c1.9-2.4-1.4-2.8-1.6-4.9c1.7,0.9,2.9,1.9,3.5,3.4C178.2,155.4,177.3,156.2,176.1,156.2z"/>
	<path class="st105" d="M172.8,91.6c-1.8-0.5-3.6-1.2-5.1,0.8c-4.2,4.6-3.6,8.4,1.8,11.5c0.9,0.5,1.9,1.1,2.8,1.7
		c2.9,1.8,6.1,1.5,9.3,2c1.2,0.9,2.6,0.6,3.9,0.7c0.4,0.3,0.9,0.6,1.7,1.2c-5.3,0.3-10.1-1.5-15-1.2l0,0c-2.4-1.3-4.9-2.4-7.1-4.1
		c-3-2.4-4.2-7.1-2.5-10.3c2.3-4.2,6.7-6.1,10.8-4.9"/>
	<path class="st106" d="M187.5,108.1c-0.7-2.6-3.4-3.4-4.8-5.4c-2.4-3.4-4.4-7.4-8.3-9.7c2.2,0.1,3.7,2.4,6.2,1.7
		c0.7-0.2,1.2,0.7,1,1.4c-1.1,3.8,2,5.4,3.8,7.6c0.9,1.1,2.1,1.9,3,3C189.1,107.7,188.5,108.1,187.5,108.1z"/>
	<path class="st107" d="M178.6,87c0.8,0.9,3,0.4,3.1,1.8c0.1,1.3-0.9,3.1-2.6,3.3"/>
	<path class="st31" d="M320.4,142.5c-2.6-2.3,0-3.9,0.9-5.8c0.2,1.9-1.7,3.8,0,5.7C321,142.4,320.7,142.4,320.4,142.5
		C320.4,142.5,320.4,142.5,320.4,142.5z"/>
	<path class="st108" d="M324.6,133c1.5-0.8,2.8-0.1,4.7,0.7C327.2,134.4,326,133.3,324.6,133z"/>
	<path class="st109" d="M235.6,143.8c-1.9,0.9-3.8,1.8-5.8,2.7c-2.7,0.2-5,1.6-7.5,2.4c-1.9,0.7-3.4,0.4-3.6-1.8
		c-0.2-1.9-3.2-4.1,0.9-5.5c3.9-1.4,7.9-2.6,11.6-4.6c1.4-0.7,2.8-0.6,3.1,1.2C234.6,140.1,237.5,141.4,235.6,143.8z"/>
	<path class="st110" d="M322.3,145.9c0.4,0.5,2,0.4,1,1.4c-0.9,1.1-2.2,2.2-3.9,1.3c-1.3-0.7-1.7-1.9-1.6-3.3
		C319.4,144.3,320.9,145,322.3,145.9z"/>
	<path class="st111" d="M322.3,145.9c-1.5-0.2-3-0.4-4.5-0.6c2.4-2.3,4.9,0.3,7.3-0.2l0,0C324.9,148.2,322.9,144.6,322.3,145.9z"/>
	<path class="st112" d="M174.6,46.2c-0.1,1.5-1.7,1.5-2.7,1.6c-1.2,0.2-2.1-0.8-1.9-2.1c0.2-1.1,0.4-2.4,2.2-2.3
		C174,43.4,174.3,44.7,174.6,46.2z"/>
	<path class="st113" d="M25.7,19.6c-1.5,0-2.6-0.4-2.6-2c0-1.5,0.9-2.6,2.3-2.6c1.4,0,2.5,1.1,2.6,2.5
		C28.1,18.9,26.8,19.5,25.7,19.6z"/>
	<path class="st114" d="M-1.7,190.7c1.6-0.7,2.8-1.3,3.9-1.8c0.6-0.3,1.3-0.4,1.6,0.5c0.2,0.8-0.4,1.1-1.1,1.3
		C1.5,191.2,0.3,191.8-1.7,190.7z"/>
	<path class="st115" d="M70.1,160.9c0.4,1.6-0.8,1.5-1.8,1.5c-1.3,0-1.7-1-1.7-2c0-1-0.5-2.4,0.9-2.7c1.4-0.3,2.9-0.4,4.2,0
		c2,0.7,0.4,1.7-0.2,2.5c0,0-0.2-0.1-0.2-0.1c-0.1-0.1-0.1-0.2-0.2-0.3c-0.6-1.1-1.6-0.9-2.1-0.3C68.2,160.6,69.7,160.4,70.1,160.9z
		"/>
	<path class="st116" d="M70.1,160.9c-1.1,0.7-2.3,1.3-2.7-0.6c-0.2-0.7-0.4-2.2,0.9-1.7c0.9,0.3,3.1-1.7,2.8,1.3
		C70.8,160.2,70.4,160.5,70.1,160.9z"/>
	<path class="st117" d="M181.6,159c-2.4,2.1-4.6,1.7-7.2-0.4c2.2-0.7,4-1.5,6-1.9C182.7,156.3,181.2,158.2,181.6,159
		C181.6,159,181.6,159,181.6,159z"/>
	<path class="st17" d="M181.7,107.4"/>
	<g>
		<g>
			<path d="M73.2,153.7c1.9,0,1.9-3,0-3S71.2,153.7,73.2,153.7L73.2,153.7z"/>
		</g>
	</g>
	<g>
		<g>
			<path d="M67,155.1c1.9,0,1.9-3,0-3S65.1,155.1,67,155.1L67,155.1z"/>
		</g>
	</g>
	<g>
		<g>
			<path d="M170.2,154.4c1.9,0,1.9-3,0-3C168.3,151.4,168.3,154.4,170.2,154.4L170.2,154.4z"/>
		</g>
	</g>
	<g>
		<g>
			<path d="M178.5,150.8c1.9,0,1.9-3,0-3C176.6,147.8,176.6,150.8,178.5,150.8L178.5,150.8z"/>
		</g>
	</g>
	<g>
		<g>
			<path d="M318,137.1c1.9,0,1.9-3,0-3S316.1,137.1,318,137.1L318,137.1z"/>
		</g>
	</g>
	<g>
		<g>
			<path d="M324.5,138.2c1.9,0,1.9-3,0-3S322.5,138.2,324.5,138.2L324.5,138.2z"/>
		</g>
	</g>
</g>
<g>
	<path class="st118" d="M118.5,434.4c-2.8,0-5.3-0.5-7.7-1.6s-4.5-2.5-6.2-4.3s-3.2-3.9-4.2-6.3c-1-2.4-1.5-4.9-1.5-7.6
		c0-2.7,0.5-5.2,1.5-7.6c1-2.4,2.4-4.5,4.2-6.3s3.9-3.2,6.2-4.3c2.4-1,4.9-1.6,7.7-1.6c2.5,0,4.9,0.5,7.2,1.4c2.3,0.9,4.4,2.2,6.4,4
		l-7.7,6.7c-1.9-1.3-3.8-2-5.9-2c-1.3,0-2.6,0.3-3.7,0.8c-1.2,0.5-2.1,1.2-3,2.1c-0.8,0.9-1.5,1.9-2,3.1s-0.7,2.4-0.7,3.7
		c0,1.3,0.2,2.5,0.7,3.7s1.1,2.2,2,3.1s1.8,1.6,2.9,2.1c1.1,0.5,2.4,0.8,3.7,0.8c1.5,0,3-0.4,4.3-1.1c1.3-0.7,2.5-1.7,3.5-3l7.9,6.4
		c-2,2.4-4.3,4.3-7,5.6C124.5,433.7,121.6,434.4,118.5,434.4z"/>
	<path class="st118" d="M160.1,433.2v-14.1h-13.2v14.1h-10.3V396h10.3v14.2h13.2V396h10.4v37.3H160.1z"/>
	<path class="st118" d="M198.9,433.2l-1.9-5.1h-11.5l-1.9,5.1H173l13.8-37.3h8.8l13.8,37.3H198.9z M191.2,409.5l-3,9.8h5.9
		L191.2,409.5z"/>
	<path class="st118" d="M241.2,433.2v-19.1l-8,13.1c-0.1,0.2-0.3,0.3-0.5,0.4s-0.4,0.1-0.6,0.1c-0.2,0-0.4,0-0.6-0.1
		c-0.2-0.1-0.4-0.2-0.5-0.4l-8-13.1v19.1h-9.7V396h9.1c0.3,0,0.6,0.1,0.8,0.4l8.8,14.7l8.9-14.7c0.2-0.3,0.5-0.4,0.8-0.4h9.2v37.3
		H241.2z"/>
	<path class="st118" d="M272.4,421.6h-6.8v11.6h-10V396h16.7c1.8,0,3.5,0.3,5.2,0.9c1.6,0.6,3.1,1.5,4.4,2.5c1.3,1.1,2.3,2.4,3,3.9
		s1.1,3.2,1.1,5c0,1.9-0.4,3.6-1.1,5.2s-1.8,3-3,4.2c-1.3,1.2-2.7,2.1-4.4,2.8S274.2,421.6,272.4,421.6z M271.7,404.3h-5.8v8h5.8
		c0.6,0,1.1-0.1,1.6-0.3s1-0.5,1.3-0.9s0.7-0.8,0.9-1.3c0.2-0.5,0.3-1,0.3-1.6s-0.1-1.1-0.3-1.6c-0.2-0.5-0.5-0.9-0.9-1.3
		c-0.4-0.4-0.8-0.6-1.3-0.9C272.8,404.4,272.3,404.3,271.7,404.3z"/>
	<path class="st119" d="M21.5,462.7v5.1h17.1v9.1H21.5v13.9h-9.9v-36.5l0.8-0.8h28.6v9.2L21.5,462.7L21.5,462.7z"/>
	<path class="st119" d="M68.8,490.8l-6.5-11.5H56l0,11.5H45.8v-37.3h18.7c0.9,0,1.8,0.2,2.7,0.5c0.9,0.3,1.8,0.8,2.7,1.3
		c0.9,0.6,1.7,1.2,2.4,1.9c0.7,0.7,1.4,1.4,1.9,2.2c0.6,0.9,1.1,2,1.5,3.2c0.3,1.2,0.5,2.4,0.5,3.5c0,1.9-0.4,3.6-1.3,5.2
		c-0.9,1.6-2.1,2.9-3.6,4l8.7,15.4L68.8,490.8L68.8,490.8z M61.5,461.9h-5.8v8h5.8c0.6,0,1.1-0.1,1.6-0.3c0.5-0.2,1-0.5,1.3-0.9
		s0.7-0.8,0.9-1.3c0.2-0.5,0.3-1,0.3-1.6s-0.1-1.1-0.3-1.6c-0.2-0.5-0.5-0.9-0.9-1.3c-0.4-0.4-0.8-0.6-1.3-0.9
		C62.7,462,62.1,461.9,61.5,461.9z"/>
	<path class="st119" d="M83.8,490.8v-37.3h29.7v8.9h-20v5.3h18.9v8.9H93.5v5.3h20v8.8L83.8,490.8L83.8,490.8z"/>
	<path class="st119" d="M119.8,490.8v-37.3h29.7v8.9h-20v5.3h18.9v8.9h-18.9v5.3h20v8.8L119.8,490.8L119.8,490.8z"/>
	<path class="st119" d="M155.7,490.8v-37.3H166v28h19.6v9.2H155.7z"/>
	<path class="st119" d="M213.9,490.8l-1.9-5.1h-11.5l-1.9,5.1h-10.5l13.8-37.3h8.8l13.8,37.3H213.9z M206.3,467.1l-3,9.8h5.9
		L206.3,467.1z"/>
	<path class="st119" d="M250.3,490.8l-12.9-19.9v19.9h-9.9v-37.2h9.9l13,20.1v-20.1h10v37.2H250.3z"/>
	<path class="st119" d="M283.6,492c-2.8,0-5.3-0.5-7.7-1.6s-4.5-2.5-6.2-4.3s-3.2-3.9-4.2-6.3c-1-2.4-1.5-4.9-1.5-7.6
		c0-2.7,0.5-5.2,1.5-7.6c1-2.4,2.4-4.5,4.2-6.3s3.9-3.2,6.2-4.3c2.4-1,5-1.6,7.7-1.6c2.5,0,4.9,0.5,7.2,1.4c2.3,0.9,4.4,2.2,6.4,4
		l-7.7,6.7c-1.9-1.3-3.8-2-5.9-2c-1.3,0-2.6,0.3-3.7,0.8c-1.1,0.5-2.1,1.2-3,2.1c-0.8,0.9-1.5,1.9-2,3.1s-0.7,2.4-0.7,3.7
		c0,1.3,0.2,2.5,0.7,3.7s1.1,2.2,2,3.1s1.8,1.6,3,2.1c1.1,0.5,2.4,0.8,3.7,0.8c1.5,0,3-0.4,4.3-1.1c1.3-0.7,2.5-1.7,3.5-3l7.9,6.4
		c-2,2.4-4.3,4.3-7,5.6C289.6,491.3,286.7,492,283.6,492z"/>
	<path class="st119" d="M304,490.8v-37.3h29.7v8.9h-20v5.3h18.9v8.9h-18.9v5.3h20v8.8L304,490.8L304,490.8z"/>
	<path class="st119" d="M362,490.8l-6.5-11.5h-6.3l0,11.5H339v-37.3h18.7c0.9,0,1.8,0.2,2.7,0.5s1.8,0.8,2.7,1.3
		c0.9,0.6,1.7,1.2,2.4,1.9c0.7,0.7,1.4,1.4,1.9,2.2c0.6,0.9,1.1,2,1.5,3.2c0.3,1.2,0.5,2.4,0.5,3.5c0,1.9-0.4,3.6-1.3,5.2
		c-0.9,1.6-2.1,2.9-3.6,4l8.7,15.4L362,490.8L362,490.8z M354.8,461.9H349v8h5.8c0.6,0,1.1-0.1,1.6-0.3s1-0.5,1.3-0.9
		s0.7-0.8,0.9-1.3c0.2-0.5,0.3-1,0.3-1.6s-0.1-1.1-0.3-1.6c-0.2-0.5-0.5-0.9-0.9-1.3c-0.4-0.4-0.8-0.6-1.3-0.9
		C355.9,462,355.4,461.9,354.8,461.9z"/>
</g>
</svg>
