<?xml version="1.0" encoding="utf-8"?>
<!-- Generator: Adobe Illustrator 23.0.2, SVG Export Plug-In . SVG Version: 6.00 Build 0)  -->
<svg version="1.1" id="Layer_1" xmlns="http://www.w3.org/2000/svg" xmlns:xlink="http://www.w3.org/1999/xlink" x="0px" y="0px"
	 viewBox="0 0 468 405" style="enable-background:new 0 0 468 405;" xml:space="preserve">
<style type="text/css">
	.st0{fill:#FDFDFD;}
	.st1{fill:#FEA295;}
	.st2{fill:#6C4C41;}
	.st3{fill:#6F4F45;}
	.st4{fill:#6E5045;}
	.st5{fill:#F7F7F6;}
	.st6{fill:#72544A;}
	.st7{fill:#F5F2EF;}
	.st8{fill:#775A50;}
	.st9{fill:#77584F;}
	.st10{fill:#FBBDB5;}
	.st11{fill:#775A51;}
	.st12{fill:#C8BDBA;}
	.st13{fill:#EEE8E5;}
	.st14{fill:#FBC2B9;}
	.st15{fill:#BBADA6;}
	.st16{fill:#F9E1DD;}
	.st17{fill:#F7ECE2;}
	.st18{fill:#97837C;}
	.st19{fill:#FCB7B1;}
	.st20{fill:#FBECE9;}
	.st21{fill:#F4F0ED;}
	.st22{fill:#F9B5AE;}
	.st23{fill:#FAE8E2;}
	.st24{fill:#D4C7C1;}
	.st25{fill:#FBBDB4;}
	.st26{fill:#76564F;}
	.st27{fill:#F8E2D8;}
	.st28{fill:#876E68;}
	.st29{fill:#FEECE7;}
	.st30{fill:#FAC8C0;}
	.st31{fill:#FBB1A8;}
	.st32{fill:#826C65;}
	.st33{fill:#DAD1CD;}
	.st34{fill:#FBBBB2;}
	.st35{fill:#DAD2D0;}
	.st36{fill:#FDE5E5;}
	.st37{fill:#D0C3BE;}
	.st38{fill:#F4F3F1;}
	.st39{fill:#F0EEEB;}
	.st40{fill:#F0EDE9;}
	.st41{fill:#F7BEB6;}
	.st42{fill:#D0C2BD;}
	.st43{fill:#F9EDE5;}
	.st44{fill:#CDC4BA;}
	.st45{fill:#E19285;}
	.st46{fill:#E09285;}
	.st47{fill:#6F4E42;}
	.st48{fill:#F79F92;}
	.st49{fill:#C68276;}
	.st50{fill:#D38880;}
	.st51{fill:#A16A5E;}
	.st52{fill:#FCD634;}
	.st53{fill:#EA964D;}
	.st54{fill:#E0BB37;}
	.st55{fill:#D89B40;}
	.st56{fill:#D2884B;}
	.st57{fill:#FBEA98;}
	.st58{fill:#FD5622;}
	.st59{fill:#F3C9A5;}
	.st60{fill:#D79A41;}
	.st61{fill:#E0BB36;}
	.st62{fill:#6D4E42;}
	.st63{fill:#6F4E40;}
	.st64{fill:#CA522D;}
	.st65{fill:#FAE896;}
	.st66{fill:#E05427;}
	.st67{fill:#F7A58A;}
	.st68{fill:#CE963C;}
	.st69{fill:#EBBF98;}
	.st70{fill:#FBDA4C;}
	.st71{fill:#CF9541;}
	.st72{fill:#E3BD9E;}
	.st73{fill:#7D5548;}
	.st74{fill:#BF8049;}
	.st75{fill:#C6A33A;}
	.st76{fill:#966740;}
	.st77{fill:#D2876F;}
	.st78{fill:#C1A13B;}
	.st79{fill:#99783C;}
	.st80{fill:#81655F;}
	.st81{fill:#A9746C;}
	.st82{fill:#B2903C;}
	.st83{fill:#7B553B;}
	.st84{fill:#815F47;}
	.st85{fill:#C58E47;}
	.st86{fill:#ED987B;}
	.st87{fill:#AB7A41;}
	.st88{fill:#DFAB83;}
	.st89{fill:#C6B277;}
	.st90{fill:#9B6B44;}
	.st91{fill:#E7BC9B;}
	.st92{fill:#D5BE7D;}
	.st93{fill:#E4CE83;}
	.st94{fill:#D9A37A;}
	.st95{fill:#C28E42;}
	.st96{fill:#92633F;}
	.st97{fill:#987669;}
	.st98{fill:#A68343;}
	.st99{fill:#E7B48A;}
	.st100{fill:#E78D73;}
	.st101{fill:#A17143;}
	.st102{fill:#D4AF95;}
	.st103{fill:#E7B790;}
	.st104{fill:#96723D;}
	.st105{fill:#874B3A;}
	.st106{fill:#BF8476;}
	.st107{fill:#B3754C;}
	.st108{fill:#AD7A3B;}
	.st109{fill:#A56B63;}
	.st110{fill:#CBA93A;}
	.st111{fill:#7B593D;}
	.st112{fill:#A9843B;}
	.st113{fill:#815639;}
	.st114{fill:#DB7F65;}
	.st115{fill:#D3BC80;}
	.st116{fill:#A2938D;}
	.st117{fill:#C88470;}
	.st118{fill:#DD9275;}
	.st119{fill:#896D66;}
	.st120{fill:#DCB837;}
	.st121{fill:#F4E088;}
	.st122{fill:#EDCF55;}
	.st123{fill:#FCDD51;}
	.st124{fill:#6D4D41;}
	.st125{fill:#DFBA37;}
	.st126{fill:#6E4E41;}
	.st127{fill:#DFBA36;}
	.st128{fill:#735243;}
	.st129{fill:#E1BC37;}
	.st130{fill:#E0BB35;}
	.st131{fill:#735244;}
	.st132{fill:#FCD943;}
	.st133{fill:#DFBB37;}
	.st134{fill:#EBC734;}
	.st135{fill:#FBDA44;}
	.st136{fill:#F9DA4D;}
	.st137{fill:#D1AF38;}
	.st138{fill:#CFAC39;}
	.st139{fill:#CCA83A;}
	.st140{fill:#DEBB34;}
	.st141{fill:#CDAE33;}
	.st142{fill:#CAAB3B;}
	.st143{fill:#83603A;}
	.st144{fill:#A68338;}
	.st145{fill:#97743A;}
	.st146{fill:#D2B03A;}
	.st147{fill:#99723A;}
	.st148{fill:#BB9835;}
	.st149{fill:#9E823A;}
	.st150{fill:#DE904C;}
	.st151{fill:#DE904B;}
	.st152{fill:#D29968;}
	.st153{fill:#DD8E4B;}
	.st154{fill:#A57842;}
	.st155{fill:#C58345;}
	.st156{fill:#E25427;}
	.st157{fill:#D4532A;}
	.st158{fill:#D4542A;}
	.st159{fill:#BE522E;}
	.st160{fill:#B5512F;}
	.st161{fill:#D1532A;}
	.st162{fill:#FBD537;}
	.st163{fill:#DEBE4F;}
	.st164{fill:#E1C351;}
	.st165{fill:#FBA88E;}
	.st166{fill:#E68D70;}
	.st167{fill:#EB9579;}
	.st168{fill:#E95727;}
	.st169{fill:#FBA78E;}
	.st170{fill:#C6A53C;}
	.st171{fill:#C4837A;}
	.st172{fill:#C57558;}
	.st173{fill:#D3552C;}
	.st174{fill:#BC5132;}
	.st175{fill:#F3A187;}
	.st176{fill:#FB6337;}
	.st177{fill:#E9977B;}
	.st178{fill:#D68164;}
	.st179{fill:#8D6F38;}
	.st180{fill:#BF8076;}
	.st181{fill:#AD7D5D;}
	.st182{fill:#956B51;}
	.st183{fill:#D0B09E;}
	.st184{fill:#6E4F41;}
	.st185{fill:#A37557;}
	.st186{fill:#AC7C5C;}
	.st187{fill:#B39078;}
	.st188{fill:#C09E8B;}
	.st189{fill:#D0B2A0;}
	.st190{fill:#AB7C5B;}
	.st191{fill:#BC9B86;}
	.st192{fill:#9F7056;}
	.st193{fill:#A47559;}
	.st194{fill:#7A5848;}
	.st195{fill:#826037;}
	.st196{fill:#AC8770;}
	.st197{fill:#BB9685;}
	.st198{fill:#B28E7F;}
	.st199{fill:#F9D82B;}
	.st200{fill:#FC5621;}
	.st201{fill:#ED5525;}
	.st202{fill:#D1532B;}
	.st203{fill:#FC8E67;}
	.st204{fill:#F65624;}
	.st205{fill:#F15627;}
	.st206{fill:#F66932;}
	.st207{fill:#A5755B;}
	.st208{fill:#AD7B5B;}
	.st209{fill:#976C50;}
	.st210{fill:#C9A899;}
	.st211{fill:#C4A38E;}
	.st212{fill:#D2532A;}
	.st213{fill:#D2532B;}
	.st214{fill:#C1522D;}
	.st215{fill:#C8522D;}
	.st216{fill:#EF5523;}
	.st217{fill:#C25231;}
	.st218{fill:#C7532A;}
</style>
<g>
	<g>
		<path class="st0" d="M234.36,373.98c-60.57,0-121.14-0.01-181.71,0.05c-1.82,0-2.24-0.41-2.23-2.24
			c0.05-115.79,0.05-231.57,0-347.36c0-1.82,0.41-2.24,2.23-2.23c121.14,0.05,242.27,0.05,363.41,0c1.82,0,2.24,0.41,2.23,2.23
			c-0.05,115.79-0.05,231.57,0,347.36c0,1.82-0.41,2.24-2.23,2.24C355.5,373.97,294.93,373.98,234.36,373.98z"/>
		<path class="st1" d="M160.86,322.44c-1.98-0.83-3.71-2.02-5.31-3.42c-1.93-1.83-4.19-3.19-6.49-4.48
			c-1.79-1.35-3.62-2.66-5.16-4.32c-2.79-3.22-6.23-5.78-8.98-9.05c-2.07-2.46-4.31-4.78-6.13-7.44c-1.39-2-2.79-3.99-4.36-5.86
			c-1.13-1.62-2.26-3.25-3.39-4.87c-1.76-2.84-3.4-5.76-4.88-8.76c0.01-0.81-0.67-1.28-0.97-1.94c-2.67-5.13-4.53-10.59-6.54-15.99
			c-0.14-0.36-0.03-0.8-0.06-1.2c-2.21-7.27-3.47-14.73-4.62-22.21c-0.31-4.91-1.09-9.8-0.9-14.74c0.6-16.03,3.52-31.54,9.98-46.33
			c3.54-8.12,7.99-15.69,12.86-23.05c2.56-3.58,5.17-7.12,8.29-10.24c4.22-3.84,7.95-8.21,12.44-11.77c2.64-2.09,5.3-4.17,7.95-6.25
			c3.77-3.09,8.11-5.27,12.29-7.7c0.71-0.41,1.38-0.83,1.85-1.52c0.76-0.64,0.16-1.74,0.82-2.41c0.4,0.21,0.55,0.58,0.64,0.99
			c-0.32,3.19-1.24,6.24-2.08,9.31c-0.96,3.18-1.56,6.44-2.07,9.7c-0.73,4.71-1.68,9.37-2.32,14.09c-0.18,1.29-0.09,2.59-0.31,3.87
			c-0.04,0.28-0.11,0.55-0.2,0.82c-1.15,2.86-0.89,5.97-1.42,8.94c-0.56,3.15-1.01,6.48-0.63,9.77c0.13,4.71-0.67,9.36-1.09,14.02
			c-0.41,4.6-0.42,9.21-0.72,13.8c-0.84,12.92-0.75,25.83,0.15,38.78c0.51,7.34,0.98,14.68,1.73,22c0.67,6.51,1.58,13,2.82,19.44
			c0.21,1.11,0.41,2.23,0.59,3.35c0.59,3.77,1.33,7.5,3.27,10.85c1.07,2.79,2.64,5.35,3.84,8.09c1.09,1.79,2.14,3.61,3.06,5.51
			c1.08,2.22,2.06,2.54,3.88,0.88c3.17-2.88,6.14-5.97,9.22-8.95c4.71-4.56,9.3-9.23,13.99-13.8c0.45-0.44,0.98-0.99,1.68-0.73
			c0.72,0.27,0.68,1.04,0.72,1.67c0.07,1.05,0.11,2.11,0.01,3.15c-0.33,3.46,0.74,6.36,3.23,8.77c0.41,0.4,0.7,0.89,0.93,1.41
			c0.45,1.51,1.2,2.9,1.77,4.36c2.44,4.01,8.94,4.98,12.76,2.43c4.39-2.94,4.7-7.16,4.58-11.64c-0.06-2.19,0.4-4.31,0.47-6.48
			c0.03-0.82,0.53-1.55,1.62-1.28c0.2,0.12,0.36,0.29,0.48,0.49c0.4,0.33-0.71,1.36,0.6,1.27c0.63,0.31,0.76,0.95,1.02,1.51
			c0.22,0.86,0.91,1.32,1.57,1.81c0.15,0.16,0.24,0.35,0.29,0.57c0.09,2.18,0.83,4.01,2.77,5.21c3.17,2.35,6.53,3.52,10.37,1.67
			c4.33-2.08,6.12-7.16,3.95-11.44c-0.95-1.87-1.79-3.78-2.68-5.67c-1.03-2.01-2-4.05-4-5.34c-2.8-1.81-5.67-2.16-8.69-0.57
			c-0.85,0.45-1.64,1.03-2.58,1.3c-1.47,0.28-2.27,1.13-2.28,2.67c-0.08,0.36-0.22,0.69-0.48,0.96c-0.44,0.32-0.87,0.44-1.25-0.08
			c-0.24-0.34-0.37-0.74-0.35-1.14c0.23-4.43-0.22-8.88,0.15-13.3c0.13-1.53,0.24-3.05,0.28-4.58c0.02-0.81-0.02-1.63,0.31-2.39
			c0.27-0.62,0.7-1.17,1.41-1.18c0.69-0.01,0.76,0.69,1.01,1.19c2.5,5.08,8.18,7.47,13.36,4.89c4.28-2.74,5.78-6.67,5.39-11.65
			c-0.36-4.69,0.75-9.36,0.47-14.06c-0.1-1.62,0.9-2.7,1.96-3.74c6.29-6.19,12.52-12.44,18.92-18.53
			c7.8-7.42,15.13-15.34,22.93-22.76c9.04-8.6,17.75-17.52,26.69-26.21c2.08-2.02,4.21-4.01,6.32-6.01c1.63,0.1,1.39,1.7,2.06,2.58
			c0.5,1.11,1,2.22,1.51,3.33c1.68,2.99,2.88,6.22,4.67,9.15c0.4,1.64,1.55,2.97,1.89,4.64c1.34,3.47,2.75,6.91,3.39,10.61
			c0.68,3.08,1.43,6.14,2.2,9.2c1.98,10.05,2.33,20.21,1.89,30.4c-0.37,8.48-1.9,16.77-4.13,24.98c-3.53,13-9.2,24.96-16.74,36.08
			c-2.36,2.51-4.07,5.53-6.3,8.17c-4.1,4.87-8.46,9.46-13.14,13.76c-5.19,4.86-10.81,9.14-17.01,12.65
			c-1.21,0.7-2.47,1.32-3.47,2.34c-0.15,0.04-0.29,0.08-0.44,0.13c-0.19,0.14-0.38,0.27-0.58,0.4c-3.88,1.76-7.7,3.67-11.59,5.41
			c-5.68,2.78-11.7,4.55-17.79,6.17c-12.72,3.39-25.7,4.31-38.73,3.39c-13.53-0.96-26.64-4.11-39.11-9.62
			c-0.59-0.26-1.13-0.62-1.69-0.94C169.83,327.56,165.31,325.05,160.86,322.44z"/>
		<path class="st2" d="M167.7,119.06c0.67-3.06,1.34-6.13,2.01-9.19c0.98-3.34,1.15-6.82,1.88-10.2c1.12-4.88,2.01-9.82,3.63-14.58
			c0.52-1.52,0.36-2.87-1.56-3.32c-1.06-0.24-1.75-1.1-2.64-1.62c-0.86-1.06-2.03-1.83-2.8-2.99c-2.92-4.32-3.08-9.45-0.43-13.53
			c2.62-3.66,6-6.05,10.64-6.33c5.69-0.96,11.43-1.44,17.18-1.68c3.93-0.16,7.88-0.03,11.82-0.03c1.49,0.02,2.98-0.05,4.47,0.04
			c5.12,0.48,10.28,0.7,15.37,1.45c3.02,0.45,6.08,0.46,9.06,1.15c17.47,2.63,34.54,6.82,51.2,12.71
			c7.23,2.55,14.42,5.23,21.29,8.68c2.39,1.23,4.8,2.43,7.29,3.45c3.56,1.5,6.85,3.51,10.25,5.33c0.64,0.55,1.49,0.39,2.21,0.67
			c0.57,0.27,0.96,0.73,1.27,1.26c1.19,2.43,0.91,2.95-1.9,3.51c-1.54-0.02-2.64-1.22-4.07-1.55c-2.21-1.47-4.57-2.7-6.98-3.81
			c-1.36-0.77-2.72-1.53-4.17-2.11c-0.98-0.45-1.91-1.03-2.99-1.26c-0.42-0.11-0.8-0.28-1.14-0.55c-0.45-0.4-0.94-0.75-1.5-0.99
			c-0.18-0.08-0.36-0.16-0.54-0.25c-0.63-0.29-1.31-0.46-1.94-0.76c-0.18-0.08-0.36-0.17-0.54-0.27c-0.69-0.44-1.48-0.58-2.27-0.69
			c-0.43-0.08-0.8-0.27-1.13-0.55c-0.58-0.52-1.3-0.77-2.03-1c-4.24-1.67-8.44-3.44-12.79-4.84c-3.34-1.29-6.78-2.31-10.19-3.38
			c-2.84-0.93-5.68-1.84-8.64-2.34c-1.1-0.32-2.15-0.79-3.21-1.21c-3.22-0.99-6.4-2.21-9.86-2.04c-6.62-1.18-13.18-2.64-19.85-3.55
			c-13.27-1.82-26.6-2.74-39.98-2.14c-5.32,0.24-10.67,0.62-15.93,1.66c-4.15,0.53-6.63,2.87-7.28,6.87c-0.5,3.1,1.61,6.5,5.14,8.26
			c2.33,0.72,4.67,0.26,7,0.1c11.33-0.78,22.63-0.61,33.94,0.42c16.82,1.54,33.33,4.71,49.55,9.37c9.19,2.64,18.23,5.72,26.91,9.79
			c1.72,1.16,3.64,1.92,5.56,2.66c1.06,0.49,2.09,1.03,3.15,1.51c7.68,4.09,15.32,8.23,22.51,13.16c1.39,0.95,2.11,0.98,2.09-1
			c-0.01-1.03,0.42-2.05,0.34-3.11c1.3-2.37,2.33-4.96,5.04-6.19c1.67-0.27,3.03-1.49,4.77-1.59c0.47-0.03,0.94-0.3,1.42-0.21
			c0.79,0.14,1.73,0.23,1.77,1.27c0.04,0.88-0.77,1.2-1.47,1.35c-1.49,0.31-3.05,0.45-4.03,1.86c-0.47,0.71-1.06,1.29-1.81,1.72
			c-1.02,0.53-1.38,1.44-1.63,2.52c-0.74,3.17-0.66,6.32,0.08,9.47c-1.87,1.94-3.52,0.78-5.85-1.08c-3.33-2.66-7.03-4.66-10.84-6.52
			c-3.25-1.24-6.15-3.17-9.17-4.85c-2.68-1.5-5.46-2.76-8.24-4.04c-0.63-0.33-1.23-0.7-1.81-1.11c-2.47-1.25-4.79-2.83-7.62-3.24
			c-3.48-1.22-6.94-2.51-10.32-3.98c-6.43-2.26-12.82-4.64-19.61-5.65c-12.63-3.3-25.45-5.61-38.42-6.98
			c-11.92-1.26-23.88-1.66-35.85-0.7c-1.08,0.01-2.15,0.03-2.75,1.16c-0.66,1.12-0.7,2.38-0.86,3.62
			c-3.78,14.6-6.99,29.31-9.63,44.15c-2.43,13.65-4.2,27.38-5.47,41.16c-0.56,6.11-1.01,12.25-1.31,18.4
			c-0.48,9.88-0.4,19.76-0.36,29.64c0.03,8.17,0.52,16.33,1.24,24.48c0.64,7.35,1.51,14.65,2.55,21.94
			c-0.26,3.99,1.05,7.77,1.58,11.66c0.11,0.78,0.45,2.04,1.64,0.66c0.36-0.44,0.74-0.86,1.1-1.3c0.56-0.75,1.27-1.31,2.12-1.68
			c3.2-2.77,6.56-5.39,8.98-8.94c0.44-0.89,1.15-1.55,1.83-2.24c6.84-6.97,13.85-13.78,20.97-20.47c1.14-1.07,2.28-2.18,4.03-1.19
			c0.22,0.16,0.4,0.35,0.55,0.58c1.01,2.43,0.77,5.01,0.45,7.44c-0.69,5.33-0.39,10.68-0.7,16.01c-0.33,5.73-0.85,11.47-0.65,17.23
			c0.17,4.83,3.24,6.96,7.85,5.43c0.6-0.38,1.07-0.88,1.42-1.5c1.42-3.3,1.33-6.85,1.34-10.28c0.01-15.54,1.57-31.04,1.06-46.59
			c-0.07-2.13,0.49-4.01,2.38-5.28c2.02-0.79,3.27-2.53,4.79-3.94c1.42-1.32,2.85-1.77,4.43-0.28c1.08,3.56,0.63,7.19,0.31,10.78
			c-0.32,3.55-0.24,7.09-0.13,10.64c0.05,1.58,0.68,2.98,1.76,4.15c2.09,1.7,4.99,1.49,6.9-0.51c1.21-1.65,1.39-3.54,1.49-5.51
			c0.34-6.76,0.27-13.55,0.73-20.3c0.32-4.68-0.05-9.36,0.37-14.02c0.27-1.14,0.88-2.15,1.76-2.84c1.74-1.36,1.6-2.59,0.07-3.94
			c-0.3-0.27-0.5-0.64-0.68-1c-0.92-0.86-0.44-2.86-2.37-2.91c-1.61-1.05-2.06-2.8-2.72-4.43c-1.92-4.76-2.82-9.67-2.53-14.84
			c0.12-2.05,0.76-3.93,1.04-5.91c0.16-1.51,0.93-2.77,1.6-4.08c0.55-0.82,1.15-1.61,1.55-2.53c0.1-0.2,0.22-0.38,0.34-0.57
			c0.89-1.16,1.62-2.42,2.33-3.71c9.18-11.1,25.55-13.52,38.16-5.64c1.72,1.46,3.76,2.52,5.27,4.25c0.64,0.73,1.35,1.4,1.56,2.4
			c0.23,0.83,0.49,1.74,1.42,0.53c0.8-1.05,1.68-1.28,2.6-0.34c0.98,0.99,0.03,1.72-0.56,2.44c-0.66,0.81-1.69,1.21-2.28,2.1
			c-0.7,0.97-1.63,1.74-2.41,2.64c-1.42,1.98-3.2,3.63-4.89,5.37c-5.68,5.53-11.09,11.31-16.9,16.7c-0.36,0.33-0.71,0.66-1.15,0.89
			c-2.87,1.75-4.81,4.5-7.24,6.72c-1.25,1.14-2.42,2.37-3.57,3.62c-5.08,3.44-6.72,8.27-5.78,14.16c0.11,0.39-0.13,1.17,0.7,0.78
			c0.57-0.27,0.94-0.87,1.42-1.31c8.95-8.28,17.46-17.03,26.11-25.62c0.34-0.34,0.69-0.68,1.08-0.97c2.18-1.53,3.96-3.49,5.65-5.52
			c0.14-0.18,0.3-0.34,0.47-0.48c3-2.44,5.5-5.38,8.29-8.03c0.64-0.61,1.25-1.25,1.99-1.74c2.62-2.2,5.02-4.62,7.22-7.23
			c3.33-3.6,6.61-7.24,10.48-10.29c1.02-0.37,1.71-1.18,2.45-1.92c3.7-3.69,7.4-7.4,11.1-11.09c0.63-0.63,1.26-1.25,2.07-1.64
			c2.06-0.9,3.13-2.93,4.78-4.31c3.96-3.33,7-7.67,11.27-10.7c0.89-0.63,1.3-1.63,2.07-2.34c0.46-0.43,0.93-1.03,1.65-0.5
			c0.7,0.52,0.32,1.16,0.05,1.74c-0.48,1.03-1.19,1.89-1.96,2.73c-0.96,1.05-2.16,1.98-2.24,3.59c-0.85,1.67-2.5,2.63-3.63,4.05
			c-0.44,0.54-0.99,0.93-1.56,1.31c-3.15,2.26-5.63,5.25-8.36,7.95c-1.82,1.8-3.8,3.45-5.35,5.51c-1.61,3.17-4.87,4.73-7.1,7.3
			c-4.68,3.85-8.61,8.46-12.98,12.63c-1.16,1.17-2.45,2.22-3.36,3.62c-4.53,4.76-9.2,9.36-14.17,13.66
			c-3.13,1.83-5.39,4.65-7.9,7.14c-6.64,6.6-13.39,13.11-20.01,19.73c-0.75,0.75-1.39,1.57-1.87,2.53
			c-1.71,2.29-3.85,4.16-5.88,6.14c-1.69,1.64-2.41,3.5-2.44,5.84c-0.07,5.34,0.39,10.69-0.46,16.01c-0.74,4.59-3.86,8.05-8.35,9
			c-4.3,0.91-8.67-0.99-11.08-4.8c-0.26-0.41-0.48-0.85-0.72-1.27c-0.56-0.97-1.06-0.88-1.46,0.11c-0.18,0.45-0.26,0.95-0.24,1.43
			c0.2,4.06-0.53,8.08-0.51,12.13c0.04,8.51-0.44,16.99-1.03,25.47c-0.39,5.58-6.16,9.97-11.75,9c-1.12-0.19-2.22-0.47-3.26-0.94
			c-3.83-3.07-5.59-6.84-5.47-11.96c0.11-4.54,0.08-9.12,0.28-13.75c-1.28,0.1-1.72,0.95-2.32,1.53
			c-8.06,7.94-15.92,16.09-24.11,23.9c-0.76,0.73-1.5,1.48-2.41,2.02c-0.88,0.46-1.79,0.84-2.82,0.61
			c-0.23-0.07-0.44-0.18-0.63-0.34c-1.57-2.51-2.5-5.37-4.14-7.84c-2.71-3.29-3.1-7.4-3.82-11.34c-1.81-10.02-3.26-20.1-4.12-30.26
			c-0.49-5.88-0.86-11.78-1.21-17.67c-0.49-8.09-0.75-16.19-0.42-24.29c0.49-11.88,0.72-23.78,2.19-35.61
			c0.16-1.28,0.11-2.59,0.15-3.88c0.67-6.12,1.27-12.25,2.16-18.35c0.04-0.25,0.12-0.46,0.24-0.67l0.02,0.01
			c0.82-6.86,2.02-13.67,3.22-20.47C166.54,124.23,166.79,121.56,167.7,119.06z"/>
		<path class="st3" d="M360.35,157.45c1.97-0.45,2.5,0.06,2.03,1.87c-0.26,1-1.44,1.84-0.58,3.05c0.22,0.32,0.51,0.63,0.6,1.01
			c0.21,0.81,0.66,1.71-0.13,2.42c-0.75,0.67-1.6,0.46-2.38-0.07c-0.58-0.41-1.12-0.89-1.89-0.89c-0.22,0.1-0.45,0.15-0.69,0.2
			c-1.04,0.22-2.11,1.32-3.1,0.42c-0.99-0.9,0.09-1.96,0.39-2.86c0.36-1.06-0.11-1.88-0.32-2.79c-0.17-0.73-0.85-1.44,0-2.2
			c0.73-0.66,1.36-0.15,1.99,0.14C357.69,158.41,359.04,158.32,360.35,157.45z"/>
		<path class="st4" d="M127.65,103.36c2.21-0.06,4.04,1.68,4.09,3.86c0.05,2.17-1.78,4.04-3.95,4.05c-2.08,0.01-3.84-1.67-3.96-3.77
			C123.71,105.34,125.49,103.42,127.65,103.36z"/>
		<path class="st5" d="M329.24,90.31c-0.33-0.31-0.66-0.61-0.99-0.92c-0.25-0.28-0.77-0.42-0.51-0.97c1.14-0.45,2.03-0.3,2.99,0.65
			c3.49,3.41,7.66,5.92,11.83,8.37c2.13,1.25,3.49,3.77,6.31,3.87c1.17,3.42,5.11,4.41,6.63,7.53c-0.47,0.27-0.89,0.06-1.31-0.12
			c-3.76-2.66-6.91-6.07-10.75-8.64c-0.2-0.11-0.38-0.24-0.56-0.38C338.58,96.22,333.55,93.79,329.24,90.31z"/>
		<path class="st6" d="M321.9,319c2.02-2.19,3.39-2.19,5.41,0c0.72,2.57,0.09,3.66-2.5,4.35l-0.2-0.03l-0.2,0.02
			c-0.94-0.28-2.05-0.26-2.42-1.46l0,0.01C321.26,320.95,321.38,319.98,321.9,319z"/>
		<path class="st7" d="M171.07,79.71c0.66,0.46,1.27,1.19,1.99,1.32c3.14,0.59,3.01,2.33,2.27,4.87c-1.3,4.48-2.22,9.06-3.3,13.61
			c-0.85,1.93-0.01,4.39-1.84,6.02c-0.42-3.36,0.92-6.47,1.75-9.55c0.74-2.74,0.75-5.67,2.07-8.26c1.6-3.12,0.94-5.43-2.5-6.76
			c-0.55-0.21-0.95-0.83-1.41-1.27c0.06-0.08,0.13-0.15,0.19-0.23C170.6,79.38,170.88,79.41,171.07,79.71z"/>
		<path class="st8" d="M116.49,313.92c-0.22,1.58-1,2.69-2.64,2.6c-1.53-0.08-2.58-1.05-2.57-2.66c0.01-1.65,1.17-2.51,2.67-2.56
			C115.61,311.25,116.33,312.41,116.49,313.92z"/>
		<path class="st9" d="M109.88,126.05c-0.06,1.47-0.91,2.56-2.5,2.56c-1.55,0-2.59-1.05-2.62-2.64c-0.03-1.5,0.95-2.46,2.43-2.53
			C108.77,123.37,109.79,124.21,109.88,126.05z"/>
		<path class="st10" d="M304.91,309.79c3.29-3.98,7.28-7.31,10.59-11.29c2.58-3.1,5.22-6.14,7.35-9.58
			c0.37-0.59,0.76-1.04,1.49-1.06c-3.9,6.57-8.97,12.2-14.38,17.53C308.38,306.95,307.13,308.94,304.91,309.79z"/>
		<path class="st11" d="M368.26,189.57c-1.6-0.07-2.41-1.15-2.38-2.51c0.04-1.53,1.07-2.54,2.72-2.41c1.54,0.12,2.33,1.15,2.22,2.63
			C370.72,188.73,369.86,189.63,368.26,189.57z"/>
		<path class="st12" d="M207.61,55.77c-7.5,0.1-15,0.16-22.48,0.9c-2.23,0.22-4.43,0.97-6.71,0.63c0.72-0.77,1.7-0.86,2.65-0.95
			c8.82-0.82,17.65-1.31,26.52-0.98c0.17,0.08,0.23,0.17,0.18,0.26C207.71,55.72,207.66,55.77,207.61,55.77z"/>
		<path class="st13" d="M338.92,135.59c1.15-1.29,2.3-2.57,3.45-3.86c1.48-2.77,4.34-4.35,6.01-6.95c0.55-0.72,1.21-1.32,1.96-1.83
			c0.68-0.35,1.26-1.06,2.16-0.62c0.06,1.6-1.43,2.05-2.28,2.91c-3.52,3.53-7.16,6.94-10.75,10.4
			C339.28,135.79,339.09,135.77,338.92,135.59z"/>
		<path class="st14" d="M103.97,232.9c1.61,2.55,1.13,5.59,1.72,8.37c0.92,4.3,1.74,8.61,3.01,12.83c0.11,0.38,0.08,0.79,0.12,1.19
			c-0.16,0.21-0.32,0.2-0.46-0.02C106.25,247.94,104.32,240.58,103.97,232.9z"/>
		<path class="st15" d="M236.32,58.22c-1.96,0.4-3.84-0.25-5.74-0.5c-5.75-0.75-11.53-1.09-17.31-1.47
			c-0.46-0.03-0.92-0.24-1.37-0.37c1.97-0.56,3.95-0.37,5.93-0.09c0.16,0,0.31,0.01,0.47,0.02c0.76,0.55,1.69,0,2.48,0.39
			C226.01,56.51,231.24,56.79,236.32,58.22z"/>
		<path class="st16" d="M108.36,255.27c0.15,0,0.31,0.01,0.46,0.02c1.33,4.95,3.48,9.59,5.37,14.33c0.35,0.88,0.66,1.79,0.99,2.68
			c-2.02-2.18-2.77-5.01-3.81-7.66C110.17,261.59,108.7,258.61,108.36,255.27z"/>
		<path class="st7" d="M167.78,63.63c-1.96,4.68-2.24,9.25,0.9,13.59c0.34,0.89,1.5,1.25,1.53,2.35c0,0-0.11,0.12-0.11,0.12
			c-2.84-1.05-3.43-3.91-4-6.16c-0.76-3.01-1.06-6.36,0.69-9.36C167.03,63.75,167.36,63.65,167.78,63.63z"/>
		<path class="st17" d="M168.73,111.32c-0.13,1.45-1.48,1.57-2.39,2.13c-3.91,2.38-7.84,4.73-11.76,7.08
			c1.84-2.83,5.06-3.75,7.67-5.51C164.31,113.64,166.56,112.54,168.73,111.32z"/>
		<path class="st18" d="M360.35,157.45c-1.19,1.41-2.6,1.29-4.12,0.62c-0.55-0.24-1.14-0.76-1.76-0.14c-0.6,0.6-0.13,1.25,0.1,1.78
			c0.55,1.25,0.66,2.41,0.04,3.69c-0.25,0.52-0.75,1.21-0.22,1.79c0.63,0.69,1.35,0.07,1.99-0.12c0.54-0.17,1.04-0.4,1.62-0.21
			c-0.4,0.26-0.77,0.63-1.22,0.76c-0.94,0.27-1.92,1.15-2.9,0.15c-0.89-0.9-0.29-1.89,0.17-2.66c0.81-1.34,0.24-2.47-0.25-3.63
			c-0.3-0.7-0.54-1.37,0.04-2.02c0.66-0.75,1.48-0.62,2.2-0.19C357.46,158.1,358.89,157.87,360.35,157.45z"/>
		<path class="st19" d="M160.86,322.44c4.73,2.11,9.24,4.6,13.66,7.29C169.55,328.09,165,325.64,160.86,322.44z"/>
		<path class="st20" d="M134.19,138.54c-2.6,3.55-5.27,7.03-8.29,10.24C127.89,144.74,130.56,141.26,134.19,138.54z"/>
		<path class="st21" d="M329.69,159.48c-1.04-0.53-1.06-1.83-1.9-2.5c-2.02-1.78-3.4-3.96-4.14-6.55c0.12-0.52,0.47-0.79,0.98-0.86
			c0.1,0.07,0.19,0.14,0.29,0.2c0.71,2.69,2.44,4.82,3.96,7.04C329.47,157.69,329.81,158.47,329.69,159.48z"/>
		<path class="st22" d="M271.83,330.72c3.76-2.24,7.64-4.22,11.7-5.85c-0.08,1.6-1.66,1.25-2.47,1.92
			C278.03,328.22,275.15,329.98,271.83,330.72z"/>
		<path class="st23" d="M340.92,187.16c-1.12-3.56-2.24-7.13-3.36-10.69c0.15-0.23,0.29-0.24,0.44,0c1.52,3.45,2.86,6.95,3.39,10.71
			C341.21,187.39,341.06,187.39,340.92,187.16z"/>
		<path class="st24" d="M354.47,108.39c0.34,0.15,0.68,0.31,1.03,0.46c2.08,2.64,2.06,5.63,1.44,8.71c-0.28,0.38-0.5,0.92-1.11,0.42
			c-0.37-0.83,0.08-1.66-0.01-2.5c0.02-0.93,0.03-1.87,0-2.8c0.03-0.81-0.25-1.51-0.74-2.15
			C354.68,109.88,353.91,109.32,354.47,108.39z"/>
		<path class="st25" d="M335.55,172.09c-1.57-3.03-3.44-5.93-4.35-9.27c1.7,1.56,2.24,3.79,3.23,5.74c0.35,0.7,0.75,1.38,1.1,2.08
			C335.89,171.12,335.93,171.6,335.55,172.09z"/>
		<path class="st26" d="M356.44,115.66c0.27,0.89-0.44,1.59-0.45,2.43c0.01,1.78-1.32,2.53-2.55,3.36c-0.5,0.1-0.79,0.42-0.92,0.89
			c-0.63,0.36-1.26,0.72-1.88,1.08c-0.73-0.39-0.68-0.86-0.17-1.39c1.89-1.59,3.89-3.08,4.7-5.59
			C355.33,115.92,355.72,115.44,356.44,115.66z"/>
		<path class="st27" d="M116.15,274.24c1.94,2.74,3.62,5.63,4.88,8.76C118.73,280.45,117.1,277.54,116.15,274.24z"/>
		<path class="st28" d="M170.19,105.52c1.14-1.84,0.64-4.19,1.84-6.02c-0.17,3.59-0.92,7.05-2.32,10.36
			c-0.05-0.32-0.1-0.64-0.16-0.97C169.87,107.8,170.34,106.72,170.19,105.52z"/>
		<path class="st29" d="M143.89,310.22c2.06,0.92,3.32,2.93,5.32,3.93c0.61,0.55,1.63,0.78,1.52,1.91
			C147.97,314.67,145.66,312.76,143.89,310.22z"/>
		<path class="st30" d="M340.92,187.16c0.15,0.01,0.31,0.02,0.46,0.02c0.77,3.05,1.8,6.05,1.96,9.23
			C341.94,193.48,341.52,190.29,340.92,187.16z"/>
		<path class="st31" d="M150.73,316.06c-0.51-0.64-1.02-1.27-1.52-1.91c2.47,1.16,4.69,2.63,6.34,4.86
			C153.94,318.03,152.33,317.05,150.73,316.06z"/>
		<path class="st32" d="M316.1,83.05c-2.69-0.6-5.2-1.58-7.29-3.45C311.47,80.27,313.8,81.63,316.1,83.05z"/>
		<path class="st33" d="M359.88,165.73c2.82,0.03,2.9-0.1,1.91-3.36c1.31,1.04,2.05,2.31,0.79,3.76
			C361.71,167.13,360.61,167.04,359.88,165.73z"/>
		<path class="st34" d="M124.41,287.87c2.08,1.48,3.36,3.57,4.36,5.86C126.99,292.03,125.46,290.13,124.41,287.87z"/>
		<path class="st35" d="M217.83,55.79c-1.98,0.03-3.96,0.06-5.93,0.09c-1.43-0.04-2.86-0.07-4.29-0.11
			c-0.01-0.14-0.01-0.27-0.03-0.41C211,55.52,214.45,54.84,217.83,55.79z"/>
		<path class="st36" d="M335.55,172.09c-0.01-0.48-0.01-0.97-0.02-1.45c1.22,1.77,1.87,3.79,2.46,5.83c-0.15,0-0.29,0-0.44,0
			C336.81,175.04,335.94,173.68,335.55,172.09z"/>
		<path class="st21" d="M329.79,144.93c-1.18,2.07-2.79,3.7-4.87,4.85c0,0-0.15-0.15-0.15-0.15c1.08-2.12,2.87-3.55,4.74-4.91
			C329.6,144.79,329.69,144.86,329.79,144.93z"/>
		<path class="st37" d="M324.81,323.35c2.16-0.69,2.73-2.29,2.5-4.35c1.12,0.58,1.11,1.51,0.61,2.43
			C327.27,322.62,326.56,323.88,324.81,323.35z"/>
		<path class="st38" d="M353.43,121.44c0.85-1.12,1.7-2.24,2.55-3.36c0.32-0.17,0.63-0.35,0.95-0.52
			C356.39,119.42,355.79,121.22,353.43,121.44z"/>
		<path class="st39" d="M336.07,139.03c-1.23,1.55-2.41,3.17-4.34,3.96c-0.07-0.09-0.14-0.18-0.21-0.26
			c0.98-1.66,2.32-2.97,3.96-3.98C335.71,138.77,335.91,138.86,336.07,139.03z"/>
		<path class="st40" d="M336.07,139.03c-0.18-0.01-0.36-0.02-0.54-0.03c-0.02-1.37,1.21-1.7,1.99-2.41c0.46-0.33,0.93-0.67,1.39-1
			c0.19,0.02,0.38,0.03,0.56,0.05C338.65,137.08,337.26,137.95,336.07,139.03z"/>
		<path class="st41" d="M284.44,324.78c0.72-1.43,1.98-2.05,3.47-2.34C286.99,323.58,285.73,324.21,284.44,324.78z"/>
		<path class="st42" d="M321.9,319c0.03,0.96,0.05,1.93,0.08,2.89C320.52,320.97,320.6,320,321.9,319z"/>
		<path class="st43" d="M281.06,326.79c0.62-0.9,1.98-0.84,2.47-1.92c0.16-0.02,0.32-0.01,0.47,0.04
			C283.65,326.52,282.38,326.7,281.06,326.79z"/>
		<path class="st42" d="M321.98,321.89c0.81,0.49,1.62,0.97,2.42,1.46C323.2,323.51,322.07,323.56,321.98,321.89z"/>
		<path class="st21" d="M331.74,142.99c-0.26,1.03-0.91,1.69-1.95,1.94c0,0-0.12-0.12-0.12-0.12c0.16-1.14,0.8-1.8,1.95-1.95
			L331.74,142.99z"/>
		<path class="st35" d="M220.78,56.21c-0.85,0.02-1.75,0.32-2.48-0.39C219.15,55.83,220.03,55.58,220.78,56.21z"/>
		<path class="st44" d="M327.74,88.43c0.17,0.32,0.34,0.65,0.51,0.97c-0.82,0.01-1.41-0.41-1.9-1.02
			C326.81,88.39,327.27,88.41,327.74,88.43z"/>
		<path class="st45" d="M323.92,150.28c0.9,2.46,2.84,4.32,3.87,6.71c-0.65,1.85-2.22,3-3.56,4.2c-8.27,7.4-15.56,15.8-23.76,23.26
			c-8.99,8.18-17.16,17.17-26.08,25.42c-7.52,6.95-14.57,14.42-21.87,21.63c-0.9,0.89-1.19,1.83-1.14,3.04
			c0.23,5.74-0.71,11.45-0.52,17.2c0.13,3.89-2.49,6.27-5.31,8.41c-5.76,2.7-12.21,0.24-14.16-5.68c-0.37-1.11-0.93-0.88-1.57-0.22
			c-0.61,0.62-0.8,1.38-0.81,2.22c-0.05,7.18-0.65,14.36-0.27,21.54c0.15,2.69-0.77,5.24-0.81,7.92c-0.04,2.4-0.09,4.83-0.09,7.22
			c0.01,6.41-6.65,11.71-13.08,9.62c-2.13-0.69-3.92-1.85-5.22-3.71c-0.4-1.49-1.55-2.72-1.48-4.37c0.36-0.34,0.74-0.27,1.12-0.06
			c3.68,1.17,7.3,1.46,10.63-0.97c2.42-1.76,3.72-4.11,3.91-7.18c0.55-9.12,0.74-18.26,1.01-27.39c0.1-3.38,0.35-6.77,0.41-10.17
			c0.03-1.49,0.47-2.71,2.19-3.15c1.49,4.15,4,7.1,8.67,7.76c5.31,0.75,10.4-3.16,11.04-8.48c0.65-5.41,0.39-10.83,0.45-16.24
			c0.03-2.42,0.63-4.34,2.48-6.01c2.22-2,4.21-4.25,6.3-6.39c9.08-8.99,18.18-17.97,27.19-27.03c0.8-0.8,1.92-1.2,2.55-2.18
			c4.83-4.39,9.52-8.92,14.03-13.64c1.28-0.86,2.22-2.08,3.35-3.11c4.43-4.29,8.58-8.86,13.16-12.98c1.92-2.76,5.2-4.22,6.86-7.22
			C323.6,150.06,323.76,150.07,323.92,150.28z"/>
		<path class="st46" d="M209.19,294.63c-0.37,0.02-0.75,0.04-1.12,0.06c-4.8-3.84-4.78-9.16-4.27-14.45
			c-0.53-0.34-0.78-0.16-1.02,0.07c-4.6,4.31-8.94,8.87-13.51,13.22c-3.57,3.4-6.94,7.06-10.62,10.37
			c-2.01,1.81-3.11,1.33-4.31-1.19c-0.93-1.94-2.11-3.77-3.18-5.65c0.32-0.22,0.63-0.23,0.91,0.08l0,0
			c1.15,0.86,2.03,0.11,2.93-0.51c9.02-8.92,18.04-17.84,27.06-26.76c0.34-0.34,0.68-0.69,1.03-1.03c0.35-0.34,0.77-0.71,1.27-0.48
			c0.54,0.25,0.33,0.85,0.31,1.3c-0.14,4.19-0.35,8.38-0.43,12.58c-0.04,1.92-0.24,3.84,0.25,5.78
			C205.19,290.89,207.31,292.66,209.19,294.63z"/>
		<path class="st47" d="M232.47,272.33c0.23-0.06,0.52-0.06,0.69-0.2c5.55-4.55,13.33-1.68,15.26,5.04
			c1.3,4.12,0.04,7.81-3.51,10.27c-3.85,2.67-7.83,2.59-11.34-0.21c-0.8-0.45-1.52-0.98-1.88-1.88c-0.16-0.28-0.23-0.62-0.41-0.88
			c-2.69-3.74-1.98-7.43,0.15-11.11C231.65,272.89,232.01,272.56,232.47,272.33z"/>
		<path class="st45" d="M233.41,286.84c6.27,3.63,10.21,1.33,12.9-1.49c2.21-2.31,2.28-5.23,2.1-8.18c1.28,2.57,2.96,5.03,3.73,7.75
			c0.91,3.21-0.24,6.25-2.75,8.57c-2.39,2.22-5.16,3.23-8.45,2.32c-1.89-0.52-3.67-1.22-5.12-2.59c-1.38-1.7-2.33-3.59-2.45-5.82
			l-0.01-0.01C233.21,287.2,233.23,287.01,233.41,286.84z"/>
		<path class="st48" d="M209.55,299.06c1.84,1.41,3.58,2.91,5.94,3.55c6.41,1.75,12.11-4.3,12.01-9.13
			c-0.14-6.4,0.22-12.79,0.65-19.15c0.39-5.83,0.22-11.64,0.37-17.46c0.02-0.75,0.08-1.49,0.52-2.09c0.5-0.68,0.72-1.86,1.75-1.8
			c0.95,0.05,0.94,1.15,1.23,1.88c1.76,4.37,5.84,6.62,10.45,5.79c1.03-0.19,2.06-0.35,3.09-0.52c-0.63,1.47-2.12,1.03-3.19,1.25
			c-4.96,1.05-10.5-2.47-11.69-7.22c-0.81,0.25-1.13,0.86-1.16,1.65c-0.17,3.61-0.62,7.24-0.36,10.82c0.1,1.45,0.31,2.73-0.06,4.21
			c-0.36,1.44-0.06,3.05-0.09,4.58c-0.01,0.72,0.13,1.13,0.94,0.76c-0.06,2.11-0.07,4.22,0.01,6.33c-1.52-0.62-1.37,0.52-1.42,1.38
			c-0.18,3.17-0.43,6.33-0.47,9.5c-0.11,8.26-7.96,11.8-14.66,9.34C211.86,302.18,209.96,301.19,209.55,299.06z"/>
		<path class="st49" d="M167.7,119.06c-0.68,4.2-1.37,8.41-2.05,12.61c-0.78,4.84-1.56,9.69-2.36,14.53
			c-0.06,0.38-0.28,0.73-0.43,1.09c-0.32-4.79,1.18-9.37,1.72-14.06c0.47-4.05,1.44-8.03,2.15-12.05
			C166.88,120.37,167,119.59,167.7,119.06z"/>
		<path class="st50" d="M162.84,147.28c-0.68,6.35-1.11,12.74-2.4,19.02c-0.11-4.16,0.22-8.27,1.21-12.32
			C162.21,151.77,161.2,149.29,162.84,147.28z"/>
		<path class="st49" d="M229.95,282.53c-0.58-2.11-0.58-4.22-0.01-6.33c0.02-0.31,0.04-0.62,0.05-0.94c0.6-0.7,0.42-2.15,1.92-1.98
			c-1.04,2.67-2.57,5.27-1.47,8.31c0.46,1.29,1.03,2.53,1.55,3.8c-0.16,0.2-0.35,0.22-0.56,0.08c-0.31-0.5-0.62-1.01-0.93-1.51
			c-0.37-0.21-0.51-0.54-0.52-0.95C229.99,282.85,229.98,282.69,229.95,282.53z"/>
		<path class="st51" d="M172.07,297.13c-0.3-0.03-0.61-0.05-0.91-0.08c-1.16-2.57-2.32-5.14-3.48-7.71
			C169.87,291.53,170.45,294.63,172.07,297.13z"/>
		<path class="st48" d="M233.37,287.41c0.82,1.94,1.63,3.88,2.45,5.82C233.85,291.77,232.65,289.99,233.37,287.41z"/>
		<path class="st48" d="M231.91,273.27c-0.64,0.66-1.28,1.32-1.92,1.98c-0.24-1.88,0.88-2.6,2.48-2.93
			C232.29,272.64,232.1,272.96,231.91,273.27z"/>
		<path class="st48" d="M231.44,285.46c0.19-0.03,0.37-0.05,0.56-0.08c0.47,0.49,0.95,0.98,1.42,1.46
			c-0.02,0.18-0.03,0.37-0.05,0.55C232.26,287.21,231.32,286.86,231.44,285.46z"/>
		<path class="st48" d="M229.99,283.01c0.17,0.32,0.35,0.63,0.52,0.95c-0.32,0.06-0.71,0.47-0.94-0.03
			C229.4,283.56,229.63,283.22,229.99,283.01z"/>
		<path class="st52" d="M223.65,226.56c-1.82,1.16-2.39,2.83-2.36,4.96c0.26,16.03-1.01,32.02-1.13,48.04
			c-0.02,2.18-0.27,4.35-0.43,6.53c-0.09,1.24-0.4,2.38-1.44,3.2c-4.56,1.53-7.15-2.66-6.81-6.6c0.37-4.29,0.36-8.57,0.28-12.85
			c-0.15-7.94,1.33-15.79,1.01-23.73c-0.01-0.32,0.03-0.65-0.01-0.97c-0.13-1.23,0.51-2.83-0.93-3.52
			c-1.28-0.61-1.78,1.13-2.82,1.47c-0.15,0.05-0.29,0.13-0.44,0.19c-0.83,0-1.59,0.19-2.21,0.8c-7.89,7.74-16.05,15.21-23.6,23.29
			c-2.77,3.41-6.39,5.97-9.3,9.25c-0.6,0.46-1.2,0.92-1.8,1.38c-1.01-0.89-0.99-2.17-1.23-3.34c-2.67-12.96-3.87-26.12-4.78-39.28
			c-0.86-12.44-0.92-24.93-0.57-37.4c0.48-17.09,2.08-34.1,4.41-51.03c2.27-16.46,5.35-32.77,9.2-48.93
			c0.09-0.4,0.23-0.78,0.45-1.11c1.2-0.8,1.32,0.39,1.67,0.97c2.57,4.35,6.26,4.56,9.37,0.49c0.58-0.76,1.46-1.31,1.71-2.32
			c1.32-2.45,1.78-4.88-0.2-7.24c-0.35-0.82-0.98-1.23-1.87-1.25c-2.4-0.5-4.49,0.01-6.18,1.87c-0.76,0.54-0.86,1.49-1.35,2.19
			c-0.39,0.55-0.52,1.67-1.66,0.99c-0.36-2.25,0.55-4.27,1.14-6.36c0.56-0.85,0.29-2.28,1.74-2.5c10.4-0.11,20.69,1.08,31,2.27
			c6.92,0.8,13.78,1.98,20.64,3.15c1.44,0.25,2.86,0.58,4.25,1.03c3.02,0.71,5.96,1.8,9.09,2.07c0.25,0.05,0.49,0.14,0.72,0.25
			c4.48,1.66,9.21,2.43,13.75,3.93c7.55,2.49,14.99,5.25,22.1,8.77c4.25,2.1,7.69,5.35,10.53,9.19c2.54,3.58,3.93,7.53,4.15,11.95
			c0.3,5.96-0.33,11.7-3.83,16.72c-3.15,4.51-6.91,8.54-10.8,12.43c-1.01,1.01-2.06,0.64-3.11,0.06c-4.85-2.75-9.96-4.55-15.63-4.53
			c-9.03,0.03-16.45,3.47-22.33,10.29c-1.04,0.98-1.58,2.32-2.43,3.44l0,0c-0.51,0.72-0.75,1.61-1.43,2.22
			c-0.68,1.39-1.5,2.71-1.93,4.22c-1.37,4.07-2.83,8.1-2.71,12.5c0.16,5.81,1.54,11.25,5.01,15.97c1.61,2.19,1.94,4.22,0.92,6.77
			c-1.63,4.07-1.32,8.47-1.48,12.72c-0.26,6.96-0.06,13.94-0.08,20.91c-0.01,2.03-0.1,4.06-1.34,5.81c-0.98,0.79-1.81,0.6-2.3-0.52
			c-0.28-0.63-0.75-1.01-1.22-1.43c-0.14-0.22-0.23-0.45-0.29-0.7c-0.25-6.63-0.02-13.27-0.14-19.9c-0.02-1.21,0.63-2.81-0.85-3.51
			c-1.29-0.61-2.13,0.84-3.21,1.28c-1.92,0.28-2.98,1.79-4.24,3C225.46,224.96,224.69,225.92,223.65,226.56z"/>
		<path class="st53" d="M332.1,104.45c-2.32,1.36-3.07,3.98-4.71,5.88c-0.09,0.07-0.18,0.14-0.28,0.21
			c-1.47,0.27-2.38-0.8-3.43-1.48c-0.74-0.48-1.42-1.06-2.29-1.32c-1.16-0.53-2.28-1.11-3.21-2.02c-3.47-2.81-7.35-4.91-11.47-6.6
			c-0.77-0.3-1.49-0.69-2.13-1.2c-3.83-2.4-7.86-4.39-12.22-5.67c-0.23-0.08-0.45-0.19-0.66-0.32c-5.2-2.66-10.75-4.42-16.25-6.35
			c-5.28-1.85-10.69-3.22-16.04-4.8c-1.35-0.4-2.7-0.48-4.08-0.5c-8.72-1.83-17.41-3.89-26.27-4.93
			c-6.91-0.82-13.82-1.53-20.79-1.92c-9.27-0.53-18.44-0.01-27.65,0.6c-2.01,0.13-3.84-0.49-5.68-1.09
			c-0.42-0.48-0.49-1.04-0.42-1.65c1.13-4.25,4.1-6.64,8.25-7.2c8.25-1.11,16.53-2.03,24.89-1.66c1.14,0.05,2.25,0.28,3.32,0.66
			c6.58,2.33,13.27,2.42,20.07,1.13c3.74-0.71,7.4,0.46,11.06,0.93c4,0.52,7.98,1.28,11.9,2.29c5.96,1.43,11.98,2.65,17.89,4.29
			c9.11,2.52,18.13,5.35,26.93,8.82c0.75,0.37,1.46,0.82,2.26,1.07c1.26,0.5,2.53,0.98,3.78,1.52c0.67,0.36,1.36,0.71,2.12,0.84
			c0.55,0.13,1.07,0.33,1.51,0.7c1.46,0.56,2.88,1.21,4.28,1.92c1.29,0.69,2.61,1.34,3.94,1.95c2.53,1.29,5.04,2.61,7.59,3.86
			c1.73,0.98,3.5,1.89,5.27,2.82c0.21,0.09,0.41,0.2,0.61,0.32c2.2,1.33,4.17,3.01,6.5,4.13c0.76,0.36,1.33,0.95,0.96,1.93
			C336.02,102.96,333.86,103.31,332.1,104.45z"/>
		<path class="st54" d="M239.71,90.84c-7.09-1.26-14.17-2.65-21.29-3.72c-5.15-0.77-10.36-1.15-15.55-1.62
			c-6.24-0.57-12.49-1.24-18.78-1.03c-0.27,0.01-0.55-0.27-0.83-0.42c-0.63-0.67-0.75-1.43-0.37-2.26
			c10.08-1.11,20.17-0.87,30.26-0.03c5.31,0.44,10.6,1,15.88,1.74c9.84,1.38,19.56,3.3,29.16,5.88c6.57,1.66,13.03,3.69,19.45,5.85
			c3.4,1.3,6.81,2.6,10.21,3.89c2.72,0.84,5.19,2.28,7.78,3.41c0.49,0.31,0.99,0.61,1.48,0.91c5.72,2.88,11.35,5.92,16.91,9.1
			c0.35,0.2,0.78,0.19,1.18,0.22c5.07,2.57,9.46,6.2,14.29,9.14c1.17,0.71,1.48,1.87,0.55,3.11c-5.97,5.35-11.78,10.87-17.66,16.32
			c-7.3,6.78-14.19,13.99-21.76,20.47c-0.85,0.73-1.51,1.34-2.27,0c-0.95-2.02-2.68-3.29-4.37-4.6c-0.68-0.53-1.6-0.77-2.02-1.63
			c3.31,0.71,4.24-2.35,6-3.95c1.76-1.61,3.02-3.76,4.7-5.47c3.47-3.51,5.58-7.79,6.19-12.52c0.85-6.63,0.33-13.19-3.72-18.95
			c-2.38-4.38-6.23-7.26-10.51-9.39c-8.81-4.39-18.11-7.59-27.55-10.31c-2.7-0.78-5.47-1.36-8.16-2.19l0,0
			C245.84,92.31,242.83,91.29,239.71,90.84z"/>
		<path class="st55" d="M311.71,156.51c-3.56,3.24-6.98,6.62-10.24,10.18c-2.55,2.05-4.55,4.66-7.07,6.74
			c-3.35,2.6-6.1,5.82-9.13,8.75c-0.57,0.55-1.15,1.1-1.74,1.63l0.02-0.02c-1.75,2.16-4.12,3.7-5.85,5.87
			c-6.99,7.16-13.99,14.32-21.33,21.13c-2.43,2.25-4.72,4.64-7.1,6.96c-0.38,0.37-0.73,1.08-1.35,0.82
			c-0.76-0.32-0.33-1.13-0.42-1.72c0.56-1.97,0.21-3.99,0.21-5.97c0.01-1.88,0.45-3.43,1.93-4.71c1.51-1.32,2.85-2.84,4.31-4.24
			c3.52-3.46,6.84-7.13,10.57-10.38c6-5.84,12-11.67,18-17.51c2.09-1.59,3.83-3.53,5.47-5.56c0.56-0.95,1.65-1.44,2.11-2.47
			c2.24-1.81,4.16-3.94,6.11-6.04c0.15-0.17,0.32-0.32,0.5-0.46c0.88-0.57,1.62-1.32,2.34-2.08c4.86-5.14,10.39-9.58,15.24-14.74
			c0.61-0.65,1.34-1.15,2.12-1.58c2.26-1.46,3.93-3.55,5.76-5.47c3.38-3.6,7.21-6.72,10.77-10.14c1.55-1.49,1.39-2.55,0.07-4.05
			c-3.22-3.64-3.57-7.96-1.16-12.26c1.48-1.11,2.6-2.61,4.12-3.68c4.02-1.82,7.83-1.66,11.27,1.31c1.34,1.16,2.79,2.19,4.04,3.47
			c2.61,2.7,2.61,5.6-0.04,8.27c-3,3.03-6.21,5.84-9.3,8.77c-4.72,4.48-9.3,9.11-13.86,13.75c-1.11,0.37-1.88,1.2-2.69,1.99
			C320.79,147.54,316.49,152.27,311.71,156.51z"/>
		<path class="st56" d="M175.07,72.84c0.4-0.27,0.6-1,1.34-0.36c1.44,1.24,3.24,0.95,4.9,0.8c7.56-0.69,15.15-1.24,22.73-0.87
			c13.1,0.65,26.15,1.77,39.01,4.63c4.21,0.94,8.45,1.83,12.71,2.61c7.56,1.9,15.04,4.03,22.41,6.57c4.78,1.65,9.49,3.46,14.08,5.59
			h0c4.37,1.62,8.48,3.79,12.65,5.84c0.65,0.32,1.3,0.65,1.94,0.97c3.86,2.32,8.02,4.14,11.68,6.81c0.97,0.65,1.95,1.3,2.92,1.94
			c1.99,1.17,3.71,2.82,5.98,3.51c-0.25,1.07-0.43,2.15-0.47,3.25c-0.4,0.57-0.99,0.71-1.63,0.72c-6.81-4.38-13.77-8.5-20.97-12.21
			c-0.79-0.4-1.58-0.76-2.4-1.09c-1.1-0.22-2.06-0.71-2.91-1.44c-1.74-0.92-3.6-1.57-5.35-2.45c-6.9-2.74-13.77-5.56-20.87-7.79
			c-10.4-3.28-20.95-5.88-31.67-7.9c-6.58-1.24-13.21-2.17-19.83-3.1c-4.55-0.64-9.16-1.02-13.75-1.06
			c-9.46-0.08-18.93-0.66-28.36,0.72c-1.23,0.18-2.53-0.23-3.72-0.77C175.05,76.16,173.69,74.62,175.07,72.84z"/>
		<path class="st57" d="M179.88,96.74c-0.97,3.88-2.03,7.74-2.87,11.65c-1.02,4.72-1.87,9.48-2.77,14.22
			c-1.62,8.55-2.89,17.15-4.14,25.76c-1.16,7.98-1.85,16-2.78,23.99c-0.53,4.56-0.8,9.16-1.03,13.75
			c-0.6,12.13-0.83,24.27-0.43,36.4c0.28,8.45,0.83,16.91,1.62,25.35c0.95,10.13,2.63,20.12,4.18,30.15
			c-0.33,0.38-0.66,0.76-0.99,1.13c-0.49,0.48-0.79,1.37-1.69,1.09c-0.76-0.24-0.65-1.08-0.76-1.66c-0.69-3.7-1.31-7.42-1.97-11.12
			c-3.64-23.11-4.59-46.38-3.79-69.72c0.49-14.39,1.74-28.73,3.55-43.04c1.92-15.17,4.54-30.22,7.72-45.16
			c1.65-7.74,3.35-15.48,5.64-23.06c0.63-0.77,0.27-1.99,1.23-2.61c1.81,0.04,2.34,0.91,1.71,2.57c-0.48,2.12-0.95,4.24-1.43,6.36
			C181.25,94.28,181.07,95.63,179.88,96.74z"/>
		<path class="st58" d="M241.65,174.37c0-0.24,0-0.47,0.01-0.71c0.18-0.28,0.29-0.58,0.41-0.88c0.59-1.92,1.75-3.55,2.63-5.32
			c1.88-2.57,4.17-4.73,6.71-6.65c7.92-5.35,16.28-6.15,25.07-2.41c0.96,0.41,1.94,0.83,2.66,1.64c0.16,0.2,0.26,0.43,0.3,0.69
			c-0.5,2.57-2.61,4.05-4.18,5.8c-3.93,4.39-7.78,8.85-11.87,13.09c-1.24,1.28-2.41,2.63-3.89,3.66c-0.95,0.67-1.94,1.23-3.15,0.6
			c-2.36-1.31-3.58-1.24-5.48,0.35c-2,1.67-8.08,0.92-9.58-1.18c-0.63-0.88-0.3-1.88-0.34-2.83c-0.05-1.05-0.05-2.1,0.02-3.16
			C241.31,176.19,240.98,175.15,241.65,174.37z"/>
		<path class="st59" d="M254.29,67.99c-3.41-0.58-6.81-1.18-10.22-1.72c-3.57-0.57-7.14-1.28-10.74-1.58
			c-2.63-0.22-5.18,0.92-7.88,1.01c-4.21,0.13-8.46,0.26-12.37-1.23c-5.31-2.02-10.69-1.32-16.05-1.18
			c-4.08,0.1-8.14,1.01-12.23,1.26c-4.77,0.28-8.11,2.31-9.79,6.86c-3.62,1.48-3.93,1.27-3.91-2.58c0.01-2.89,1.86-5.49,4.6-6.45
			c0.6-0.21,1.27-0.27,1.76-0.75c8.95-1.69,18-1.94,27.08-1.9c12,0.06,23.89,1.27,35.72,3.22c4.71,0.78,9.33,1.91,14.05,2.62
			c3.27,0.73,6.58,1.26,9.75,2.4c1.05,0.06,1.98,0.52,2.91,0.96c2.4,0.99,5.02,1.26,7.42,2.23c2.2,0.71,4.41,1.37,6.59,2.15
			c0.54,0.19,1.38,0.16,0.96,1.15c-1.26,0.36-2.43-0.11-3.56-0.48C270.49,71.38,262.43,69.51,254.29,67.99z"/>
		<path class="st60" d="M198.87,267.02c-5.26,5.31-10.53,10.62-15.79,15.94c-0.62,0.63-1.18,1.3-1.78,1.96
			c-1.73,2.3-3.87,4.21-5.97,6.14c-1.12,1.03-2.12,1.03-2.7-0.6c-0.24-0.69-0.24-1.48-0.61-2.09c-1.71-2.82-0.74-4.99,1.7-6.62
			c1.68-1.12,2.27-3.55,4.77-3.79c0.32-0.03,0.61-2.11,1.7-2.78c2.28-1.41,3.76-3.65,5.63-5.48c5.25-5.1,10.17-10.55,15.64-15.42
			c1.14-1.01,2.03-2.4,3.91-3.19c-0.02,3.15,0.34,6.03-0.22,8.86c-0.41,2.1-2.47,3.06-3.77,4.55
			C200.62,265.4,199.44,265.9,198.87,267.02z"/>
		<path class="st61" d="M237.77,246.04c1.27-1.53,1.44-3.37,1.45-5.23c0.03-5.67-0.06-11.35,0.03-17.02
			c0.1-6.59-0.4-13.26,2.29-19.57c0.56-1.3-0.37-2.41-1.15-3.52c-6.39-9.15-7.27-18.88-2.85-29.11c0.16-0.36,0.44-0.67,0.66-1
			c0.21,0.2,0.3,0.43,0.28,0.72c-0.76,3.35-1.28,6.68-1.1,10.17c0.2,3.92,1.22,7.54,2.79,11.06c0.83,1.28,1.13,2.9,2.44,3.88
			c0.84,0.7,1.41,1.6,1.89,2.56c0.09,0.57,0.08,1.15-0.22,1.64c-0.83,1.35-0.98,2.64,0,4.01c0.45,0.63,0.23,1.39-0.17,2.04
			c-0.33,12.19-0.65,24.39-0.99,36.58c-0.05,1.82-0.49,3.52-2.05,4.7c-1.18,0.86-2.14,0.1-3.14-0.42c-0.17-0.16-0.31-0.34-0.41-0.55
			C237.44,246.62,237.49,246.3,237.77,246.04z"/>
		<path class="st62" d="M327.74,140.91c5.86-6.14,11.88-12.11,18.04-17.95c1.87-1.77,3.75-3.54,5.53-5.4c1.91-2,1.87-4.53-0.09-6.44
			c-1.56-1.52-3.15-3.04-4.92-4.3c-3.19-2.29-6.67-2.66-10.27-0.9c-0.61,0.3-1.1,1.04-1.93,0.52c0.64-1.36,1.91-1.76,3.23-1.95
			c0.87-0.13,1.76-0.06,2.53-1.14c-2.13-1.14-4.03-0.22-5.63,0.69c-0.81,0.46-1.37,0.5-2.13,0.41c1.46-1.6,3.45-2.2,5.39-2.9
			c-0.07-0.38,1.7-0.03,0.35-0.98c-1.36-0.96-2.85-1.7-4.23-2.63c-0.79-0.53-1.96-0.86-2.03-2.13c0.63-0.67,0.96-2.02,2.17-1.38
			c-0.44-0.67-1.42-0.85-2.44-0.97c-0.45,0.93,0.64,1.36,0.46,2.1c-0.64,0.85-1.35,0.15-2.04,0.1l0.02,0.03
			c-0.59-0.88-2.09-0.96-2.1-2.36c2.81-0.53,2.83-0.56,1.59-3.02c5.04,2.58,9.77,5.65,14.15,9.25c-2.66,0.72-4.41-1.35-6.49-2.28
			c-0.54-0.24-1.16,0.01-1.52-0.43c2.48,1.36,4.66,3.74,8,2.7c4.19,2.33,7.32,5.99,11.08,8.84c0.35,0.63,0.69,1.26,1.04,1.89
			c0.29,0.66,0.46,1.37,0.89,1.97c0.21,1.13,0.24,2.26,0.04,3.4c-1.37,1.85-1.94,4.28-4.09,5.57c-0.6,0.36-1.14,0.82-1.71,1.24
			c-0.38-0.17-0.17-0.69-0.52-0.89c-0.33,0.71-1.74,0.04-1.66,1.29c0.05,0.72,0.36,1.38,0.39,2.1c-1.6,2.78-4.22,4.6-6.47,6.76
			c-0.84-2.22,1.18-3.06,2.26-4.11c1.14-1.12,1.49-2.49,2.27-3.73c-1.92,0.67-2.41,2.72-4.1,3.63c-3.84,2.08-5.95,6.11-9.34,8.81
			c-1.42,1.13-3.48,2.2-4.26,4.29c-0.25,0.68-0.99,1.29-1.92,1.29C326.95,141.37,327.53,141.22,327.74,140.91z"/>
		<path class="st63" d="M332.16,109.34c-2.25,3.58-1.92,9.22,1.61,12.16c1.68,1.4,1.45,2.76-0.17,4.21
			c-3.79,3.39-7.46,6.91-11.18,10.37c-2.17,1.54-3.67,3.81-5.83,5.35c-5.82,5.57-11.62,11.14-17.46,16.69
			c-0.74,0.7-1.3,1.69-2.45,1.85c-0.81-1.35,0.53-1.89,1.12-2.56c2.07-2.37,4.57-4.31,6.79-6.54c1.94-1.95,3.11-4.67,5.79-5.89
			c-5.65,4.78-10.62,10.28-16.38,15.16c1.05,0.35,1.81-1.12,2.71-0.19c-1.58,2.65-4.2,4.26-6.39,6.29c-0.16,0.2-0.32,0.2-0.47-0.01
			c0.07-1.56,1.87-1.51,2.45-2.64c0.31-0.6,1.2-1.03,0.1-1.66c-0.78-0.45-1.35-0.36-1.58,0.63c-0.15,0.66-0.44,1.26-1.28,1.04
			c-0.92-0.24-1.27-0.89-1.12-1.81c1.11,0.86,1.75,0,2.45-0.67c9.97-9.49,19.86-19.05,29.96-28.41c2.89-2.68,5.49-5.73,8.87-7.89
			c0.1,0.05,0.2,0.11,0.3,0.16c0.68,0.6,1.31,1.4,1.8-0.23c0.58-1.91,0.65-1.89-0.53-3.91c-0.02-0.11-0.03-0.22-0.04-0.34
			c-2.27-3.67-0.96-7.47-0.28-11.2c0.12-0.65,0.84-1.38,1.78-1.43C333.14,108.59,332.61,108.95,332.16,109.34z"/>
		<path class="st57" d="M217.33,290.25c-1.79,1.74-3.93,1.48-5.87,0.64c-2.25-0.97-3.43-2.99-3.36-5.47
			c0.17-6.56,0.42-13.11,0.68-19.67c0.26-6.55,0.57-13.11,0.86-19.66c0.04-0.91-0.07-1.78-0.6-2.55c0.22-1.35,1.16-1.89,2.38-1.95
			c1.57-0.08,1.75,0.94,1.77,2.23c0.13,5.82-0.44,11.61-0.86,17.41c-0.16,2.27-0.11,4.52-0.13,6.78c-0.03,4.76-0.15,9.52-0.49,14.28
			c-0.27,3.85,1.26,5.99,5.08,7.25C217.16,289.66,217.34,289.89,217.33,290.25z"/>
		<path class="st64" d="M247.51,197.36c-1.98-2.54-4.22-4.93-4.9-8.25c1.11-0.29,1.28,0.68,1.69,1.3c0.26,0.4,0.44,0.85,0.72,1.25
			c0.8,1.15,1.17,3.23,2.64,3.09c1.56-0.14,2.66-1.83,3.57-3.24c0.39-0.6,0.52-1.35,1.02-1.89c0.87-0.79,1.78,0.65,2.65-0.05
			c0.53-0.34,1.06-0.67,1.56-1.05c1.21-1.05,0.35-2.45,0.62-3.65c0.93-0.64,2.14-0.87,2.86-1.85c0.33-0.29,0.69-0.53,1.1-0.69
			c1.02-0.36,2-0.78,2.79-1.56c7.23-4.27,13.3-9.93,19.06-15.96c0.29-0.31,0.67-0.44,1.09-0.47c0.67,0.03,1.22,0.22,1.42,0.95
			c-2.58,3.29-5.92,5.83-8.83,8.8c-8,8.14-16.38,15.91-24.2,24.24C250.46,200.25,250.37,200.23,247.51,197.36z"/>
		<path class="st65" d="M233.89,248.46c-2.16-1.44-2.55-3.63-2.49-5.98c0.13-5.91,0.3-11.83,0.42-17.74
			c0.02-0.86,0.26-1.79-0.37-2.58c-0.22-0.5-0.9-0.87-0.41-1.55c0.37-0.32,0.79-0.57,1.23-0.78c1.83-0.89,2.77-0.36,2.79,1.72
			c0.05,4.29-0.04,8.59,0.03,12.88c0.05,3.22-0.31,6.46,0.22,9.67l0,0.01c0.85,0.93,1.3,2.2,2.44,2.88l0,0.06
			c0.54,1.75-0.63,2.05-1.89,2.11C235.18,249.18,234.48,248.88,233.89,248.46z"/>
		<path class="st66" d="M252.36,189.6c0.14,2.97-2.55,4.12-4.04,6.01c-0.7,0.89-1.55-0.16-2.12-0.86c-1.42-1.74-1.95-4.04-3.6-5.63
			c-1.72-3.89-2.27-7.94-1.79-12.15c0.15-0.14,0.28-0.12,0.38,0.06c0,0.96,0.12,1.95-0.03,2.89c-0.43,2.59,1.15,3.72,3.21,4.14
			c2.35,0.47,4.8,1.75,6.93-1.08c1.12-1.5,4.04-0.8,5.45,0.78c-0.09,0.07-0.17,0.14-0.26,0.21c-1.74,0.27-3.74-0.82-5.19,0.99
			c-1.39,1.81-1.22,2.64,0.87,4.37C252.24,189.42,252.3,189.51,252.36,189.6z"/>
		<path class="st67" d="M279.18,160.41c-9.46-5.22-18.73-4.82-27.81,0.98c-0.7,0.26-1.32,1.37-2.14,0.19
			c-0.16-0.92,0.71-1.17,1.14-1.71c8.92-6.48,18.31-7.2,28.13-2.22c0.92,0.47,1.69,1.22,2.52,1.84
			C280.93,160.85,280.24,161,279.18,160.41z"/>
		<path class="st68" d="M198.87,267.02c0.58-2.31,2.88-3.13,4.3-4.69c1.4-1.53,2-3.01,1.99-4.93c0-1.85,0-3.69-0.23-5.72
			c-1.04,1.52-2.65,2.27-3.87,3.47c-2.8,2.76-5.85,5.27-8.3,8.38c-0.47,0.6-1.37,0.97-1.02,2.01c0.05,0.14-0.14,0.49-0.29,0.55
			c-3.04,1.24-2.99,1.28-4.51,3.14c-0.76,0.93-1.97,1.55-2.54,2.56c-1.18,2.05-3.26,2.99-4.85,4.52c-0.32,0.3-0.87,0.5-0.05,1.24
			c0.72,0.65-0.55,1.25-1.11,1.67c-0.47,0.35-0.64-1.53-1.3-0.4c-1.37,2.33-4.22,3.28-5.28,5.83c-0.29,0.69-0.36,1.45,0.14,2.08
			c0.85,1.07,0.98,2.33,1.11,3.61c-1.49-0.17-1.18-1.73-1.92-2.48c-1.09-2.34-0.26-3.99,1.52-5.73
			c9.64-9.43,19.17-18.98,28.74-28.48c0.91-0.91,1.9-1.74,2.87-2.59c0.97-0.86,1.42-0.54,1.41,0.67c-0.01,2.67-0.02,5.33-0.07,8
			c-0.02,0.83-0.37,1.58-0.99,2.14C202.69,263.57,201.07,265.61,198.87,267.02z"/>
		<path class="st69" d="M254.29,67.99c5.54,0.33,10.79,2.06,16.14,3.29c3.9,0.9,7.57,2.65,11.6,3.02c1.44-0.8,2.64,0.41,3.98,0.46
			c4.51,1.23,8.8,3.02,13.05,4.91c0.54,0.52,1.28,0.62,1.91,0.95c0.33,0.16,0.67,0.33,1,0.49c0.78,0.42,1.65,0.6,2.46,0.94
			l-0.02-0.01c0.61,0.8,1.63,0.64,2.43,1l0,0c0.51,0.57,1.28,0.64,1.91,0.98c0.33,0.17,0.66,0.33,1,0.5
			c-0.17,1.12-0.85,0.7-1.46,0.48c-0.49-0.17-0.98-0.34-1.47-0.52c-0.56-0.51-1.3-0.63-1.95-0.93c-1.36-0.33-2.7-0.73-3.89-1.51
			c-0.57-0.49-1.3-0.63-1.96-0.92c-5.7-1.96-11.35-4.09-17.11-5.84c-6.6-2-13.24-3.91-19.98-5.41
			C259.38,69.31,256.72,69.11,254.29,67.99z"/>
		<path class="st70" d="M217.33,290.25c-4.9-1.5-6-3.18-5.84-8.78c0.22-7.27,0.46-14.55,0.59-21.82c0.09-4.91,0.9-9.8,0.82-14.73
			c-0.01-0.93,0.66-2.27-0.8-2.72c-1.3-0.39-2.39,0.1-3.06,1.35c-0.16-0.08-0.32-0.16-0.49-0.25c0.78-1.33,1.7-3.02,3.32-2.66
			c1.79,0.39,1.56,2.33,1.56,3.89c0.02,11.84-1.54,23.64-0.99,35.5c0.06,1.29-0.68,2.47-0.44,3.82c0.71,3.93,1.45,4.6,6.27,5.45
			C218.14,289.78,217.9,290.18,217.33,290.25z"/>
		<path class="st71" d="M224.56,238.93c0.72-2.5,0.51-5.09,0.57-7.66c0.02-0.78,0.27-1.43,0.85-1.92c0.59-0.5,1.02-1.54,1.92-1.18
			c1.04,0.41,0.34,1.35,0.31,2.1c-0.1,2.23-0.15,4.46-0.14,6.69c0,1.2-0.23,2.28-1.21,3.01c-0.53,0.4-0.88,1.39-1.75,0.98
			C224.26,240.55,224.87,239.63,224.56,238.93z"/>
		<path class="st72" d="M177.44,61.61c-0.6,1.51-2.36,1-3.39,2.04c-2.09,2.11-3.23,5.11-2.34,7.79c0.12,0.37,0.5,0.88,0.78,0.28
			c0.72-1.5,1.73,0.08,2.51-0.34c0.02,0.48,0.04,0.97,0.07,1.45c-0.63,1.71,1.13,3.21,0.43,4.93c-3.76-1.91-5.76-5.39-5.18-9
			C170.96,64.82,173.52,62.24,177.44,61.61z"/>
		<path class="st73" d="M286.01,187.2c-0.44,1.53-1.95,2.08-2.95,3.08c-8.38,8.37-16.82,16.67-25.26,24.98
			c-0.45,0.44-1.02,0.77-1.53,1.15c1.85-3.37,5.04-5.51,7.65-8.17c4.26-4.35,8.6-8.63,13.01-12.83
			C279.89,192.6,282.37,189.25,286.01,187.2z"/>
		<path class="st74" d="M301.95,101.56c3.16,0.57,5.72,2.48,8.43,3.98c5.1,2.84,10.36,5.44,14.95,9.13
			c0.37-0.49,1.44,1.07,1.45-0.49c0.04-1.15-0.15-2.34,0.48-3.4c-0.15-0.1-0.21-0.21-0.16-0.32c0.04-0.11,0.09-0.17,0.14-0.17
			c0,0,0.17,0.04,0.17,0.04c0.79,1.75-0.27,3.43-0.3,5.16c-0.02,1.08-1.07,0.45-1.66,0.06c-4.44-2.95-8.99-5.71-13.58-8.41
			C308.59,105.21,305.02,103.82,301.95,101.56z"/>
		<path class="st63" d="M329.65,124.83c0.72-0.93,0.69-1.77-0.35-2.45c-4.72-3.06-9.13-6.61-14.16-9.19
			c-0.31-0.24-0.77-0.38-0.58-0.93c2.48,0.33,4.15,2.23,6.27,3.28c2.16,1.07,4.22,2.38,5.96,4.07c1.31,1.28,2.76,1.37,4.37,0.89
			c0,0,0,0,0,0c0.39,1.24,1.66,2.39,0.33,3.8c-0.5,0.52-0.91,1.14-1.75,0.61L329.65,124.83z"/>
		<path class="st75" d="M244.12,206.67c-0.01-0.24,0.07-0.56-0.06-0.71c-1.96-2.4-0.76-4.77,0.04-7.14
			c0.56-0.27,0.69,0.24,0.96,0.51c2.48,3.16,2.49,3.17,0.03,6.29C244.8,205.99,244.45,206.32,244.12,206.67z"/>
		<path class="st76" d="M327.74,140.91c-0.15,0.34-0.3,0.68-0.45,1.02c-4.42,4.34-8.84,8.68-13.27,13
			c-0.67,0.65-1.17,1.59-2.31,1.59c4.79-5.35,10.08-10.2,15.14-15.28C327.05,141.03,327.44,141.01,327.74,140.91z"/>
		<path class="st77" d="M279.18,160.41c0.79,0.05,1.49-0.08,1.84-0.92c2,0.64,3.14,2.33,4.47,3.76c0.58,0.62,0.74,1.41-0.12,2.05
			c-0.45-0.17-0.9-0.34-1.36-0.51c-1.68-1.23-3.45-2.34-4.85-3.91C279.15,160.71,279.15,160.56,279.18,160.41z"/>
		<path class="st78" d="M314.57,112.28c0.19,0.31,0.38,0.62,0.58,0.93c-3.86-1.41-7.24-3.73-10.79-5.72
			c-2.41-1.35-5.24-1.94-7.22-4.04c5.85,2,10.92,5.51,16.33,8.37C313.82,111.99,314.2,112.12,314.57,112.28z"/>
		<path class="st79" d="M240.17,192.54c-1.99-2.59-2.35-5.72-2.9-8.8c-0.77-4.29-0.11-8.46,1.02-12.59
			c0.12-0.26,0.26-0.26,0.44-0.06c-0.2,2.63-1.04,5.13-1.05,7.83c-0.01,4.26,0.53,8.31,2.28,12.2
			C240.14,191.55,240.1,192.07,240.17,192.54z"/>
		<path class="st80" d="M323.92,150.28c-0.17-0.01-0.34-0.02-0.51-0.03c0.13-1.33,1.42-1.67,2.17-2.45c3.2-3.33,6.5-6.56,9.79-9.81
			c0.61-0.61,1.1-1.46,2.16-1.4c-0.66,0.8-1.33,1.61-1.99,2.41c-1.45,1.14-2.77,2.41-3.91,3.86c-0.79,0.51-1.45,1.14-1.95,1.95
			c-1.83,1.41-3.4,3.08-4.9,4.83C324.49,149.85,324.2,150.06,323.92,150.28z"/>
		<path class="st81" d="M316.56,157.47c-4.14,4.62-8.52,9-13.12,13.16c-0.15-0.11-0.2-0.23-0.16-0.35c0.04-0.12,0.09-0.18,0.13-0.18
			c4.02-4.06,8.03-8.12,12.07-12.16C315.74,157.68,316.2,157.62,316.56,157.47z"/>
		<path class="st82" d="M277.66,95.22c-4.01-0.51-7.64-2.32-11.5-3.39c-2.67-0.74-5.48-1.07-7.96-2.46
			c4.54,0.31,8.69,2.18,12.99,3.42C273.38,93.43,275.74,93.79,277.66,95.22z"/>
		<path class="st83" d="M171.13,287.85c1.08,0.49,1.04,1.84,1.92,2.48c0.52,1.53,1.3,1.04,2.12,0.28c2.05-1.9,4.1-3.8,6.15-5.7
			c-1.42,3.1-4.19,4.97-6.62,7.14c-0.51,0.46-1.63,0.55-2.05-0.47C172.13,290.34,170.89,289.39,171.13,287.85z"/>
		<path class="st84" d="M173.46,276.63c2.6-3.58,5.9-6.47,9.3-9.25c0.09,0.84-0.48,1.33-1,1.81
			C179.02,271.71,176.74,274.73,173.46,276.63z"/>
		<path class="st85" d="M283.52,183.81c3.05-4.1,6.94-7.36,10.71-10.73c0.25,0.33,0.25,0.64-0.07,0.93
			c-2.78,2.71-5.55,5.43-8.34,8.12C285.14,182.79,284.61,183.7,283.52,183.81z"/>
		<path class="st86" d="M249.41,161.36c0.64,0.9,1.31-0.15,1.96,0.02c-2.27,1.94-4.38,4.05-6.32,6.32
			c-1.58-0.64-0.08-1.31-0.02-1.96c0.35-0.74,0.7-1.49,1.42-1.96C247.44,162.97,247.89,161.51,249.41,161.36z"/>
		<path class="st87" d="M254.33,201.78c-1.27,1.34-2.43,2.79-3.82,3.99c-1.94,1.67-2.61,3.67-2.56,6.17
			c0.03,1.63,0.53,3.36-0.44,4.91c-0.02-0.57,0.05-1.15-0.06-1.69c-1.25-6.08,1.76-10.11,6.37-13.4
			C253.99,201.54,254.16,201.56,254.33,201.78z"/>
		<path class="st88" d="M324.36,92.8c-2.75-0.99-5.35-2.29-7.8-3.89c-0.03-0.43,0.18-0.74,0.5-1c2.37,1.11,4.81,2.1,6.81,3.87
			C324.13,92.07,324.63,92.25,324.36,92.8z"/>
		<path class="st89" d="M166.25,267.44c1.38,2.79,0.95,5.98,1.91,8.87c0.23,0.68,0.35,1.41,0.39,2.12c0.11,2.11,1.14,1.29,2.12,0.71
			c-0.19,0.95-0.71,1.77-1.7,1.69c-0.84-0.06-0.92-1.07-1.01-1.75C167.46,275.2,166.14,271.42,166.25,267.44z"/>
		<path class="st90" d="M254.33,201.78c-0.17-0.01-0.35-0.02-0.52-0.02c3.21-3.26,6.4-6.53,9.63-9.77c0.25-0.25,0.72-0.3,1.08-0.44
			C261.35,195.18,257.88,198.52,254.33,201.78z"/>
		<path class="st91" d="M286.02,74.76c-1.33-0.15-2.65-0.3-3.98-0.46c-2.41-1.47-5.25-1.8-7.8-2.9c0.49-0.38,1-0.33,1.51-0.04
			C279.28,72.17,282.71,73.27,286.02,74.76z"/>
		<path class="st92" d="M233.89,248.46c1.5,0.09,3.4,1.31,3.87-1.41c1.08,0.37,2.12,0.95,3.31,0.91
			C239.15,249.96,235.98,250.18,233.89,248.46z"/>
		<path class="st93" d="M182.3,86.42c0.39-1.59-0.74-1.96-1.87-2.33c-0.39-0.33-0.34-0.71-0.1-1.1c0.37-1.45,1.46-1.35,2.58-1.21
			c0.44,0.7,0.38,1.49,0.37,2.26C182.32,84.58,183.21,85.87,182.3,86.42z"/>
		<path class="st94" d="M324.36,92.8c-0.16-0.34-0.33-0.68-0.49-1.01c1.52-0.13,2.37,1.39,3.78,1.55c0.48,0.98,2.16,0.9,2.1,2.36
			C327.78,95.04,325.92,94.2,324.36,92.8z"/>
		<path class="st95" d="M277.69,189.66c1.06-2.84,3.73-4.09,5.85-5.87C282.09,186.25,280.12,188.18,277.69,189.66z"/>
		<path class="st96" d="M294.17,174.01c0.02-0.31,0.05-0.62,0.07-0.93c1.71-1.64,3.42-3.29,5.14-4.93c0.62-0.59,1.12-1.37,2.09-1.46
			C299.31,169.41,296.84,171.81,294.17,174.01z"/>
		<path class="st97" d="M264.04,67.96c-3.3-0.6-6.62-1.12-9.75-2.4C257.73,65.57,260.97,66.42,264.04,67.96z"/>
		<path class="st98" d="M230.97,221.16c0.16,0.33,0.32,0.67,0.48,1c-1.37-0.78-2.35-0.27-3.43,0.73c-1.39,1.29-2.36,3.12-4.38,3.67
			c1.95-2.06,3.54-4.55,6.4-5.57C230.37,220.95,230.7,220.92,230.97,221.16z"/>
		<path class="st99" d="M317.07,87.91c-0.01,0.41-0.11,0.78-0.5,1c-1.44-0.37-2.74-1.03-3.92-1.94c0.27-0.36-0.26-0.75,0.06-1.11
			C314.32,86.2,315.68,87.08,317.07,87.91z"/>
		<path class="st100" d="M245.04,165.75c0.22,0.65-0.85,1.32,0.02,1.96c-0.96,1.81-1.93,3.62-2.89,5.43c-0.63-0.88,0-1.63,0.27-2.41
			c0.61-0.77,0.81-1.72,1.14-2.61C243.85,167.2,244.16,166.3,245.04,165.75z"/>
		<path class="st101" d="M288.34,168.66c-1.77,1.97-3.3,4.21-5.81,5.37c1.62-1.78,3.24-3.57,4.86-5.35
			C287.69,168.4,288.01,168.38,288.34,168.66z"/>
		<path class="st102" d="M275.75,71.36c-0.5,0.01-1.01,0.03-1.51,0.04c-2.34-1.08-5.14-0.82-7.28-2.49
			C270.01,69.28,272.93,70.16,275.75,71.36z"/>
		<path class="st103" d="M312.71,85.86c-0.35,0.35,1.54,0.82-0.06,1.11c-1.45-0.65-2.89-1.31-4.34-1.96
			c0.53-0.02,1.1,0.09,1.46-0.48C310.92,84.59,311.83,85.18,312.71,85.86z"/>
		<path class="st104" d="M295.65,102.52c-2.76-0.75-5.32-1.97-7.78-3.41C290.84,99.4,293.27,100.9,295.65,102.52z"/>
		<path class="st105" d="M247.51,197.36c0.34,0.19,0.75,0.31,1,0.58c1.18,1.29,2.41,1.69,3.84,0.39c-0.44,0.8-0.59,2.08-1.83,1.86
			C249,199.91,248.13,198.71,247.51,197.36z"/>
		<path class="st106" d="M249.41,161.36c-0.99,0.81-1.97,1.62-2.96,2.42c0.8-1.81,2.15-3.08,3.91-3.92
			C250.05,160.36,249.73,160.86,249.41,161.36z"/>
		<path class="st107" d="M293.7,97.67c1.96,0.44,3.81,1.1,5.35,2.45C297.07,99.71,295.23,99.04,293.7,97.67z"/>
		<path class="st108" d="M332.16,109.34c0.17-0.49,0.34-0.97,0.51-1.46c0.62-0.34,1.11-0.81,1.43-1.44
			c0.64-0.17,1.28-0.35,1.93-0.52C334.74,107.06,333.45,108.2,332.16,109.34z"/>
		<path class="st109" d="M303.42,170.1c0.01,0.18,0.02,0.35,0.02,0.53c-0.98,1.15-1.77,2.53-3.39,2.93
			C300.92,172.16,302.15,171.11,303.42,170.1z"/>
		<path class="st110" d="M238.73,171.1c-0.15,0-0.3,0.02-0.44,0.06c-0.03-0.19-0.05-0.38-0.08-0.57c0.42-1.41,1.05-2.72,1.93-3.91
			c0.28,0.15,0.3,0.34,0.09,0.57C239.72,168.53,239.22,169.82,238.73,171.1z"/>
		<path class="st111" d="M245.06,199.34c-0.32-0.17-0.64-0.34-0.96-0.51c-0.5-0.8-0.99-1.6-1.49-2.4
			C244.49,196.5,244.36,198.27,245.06,199.34z"/>
		<path class="st112" d="M241.61,164.76c0.37-1.45,1.03-2.71,2.43-3.43C243.49,162.65,242.84,163.91,241.61,164.76z"/>
		<path class="st113" d="M288.34,168.66c-0.32,0.01-0.64,0.01-0.95,0.02c0.63-1,1.45-1.8,2.44-2.45c0.16,0,0.31,0.01,0.47,0.01
			C289.64,167.05,288.99,167.86,288.34,168.66z"/>
		<path class="st114" d="M241.19,177.02c-0.12-0.04-0.25-0.06-0.38-0.06c0.05-0.94-0.52-2.08,0.84-2.59
			C241.64,175.28,241.92,176.24,241.19,177.02z"/>
		<path class="st115" d="M180.33,82.99c0.03,0.37,0.07,0.73,0.1,1.1c-0.1,0.91-0.25,1.78-1.06,2.37
			C179.21,85.17,179.69,84.06,180.33,82.99z"/>
		<path class="st116" d="M170.21,79.57c-0.39-0.86-1.56-1.22-1.53-2.35c0.99,0.64,1.85,1.41,2.39,2.49
			C170.78,79.66,170.5,79.62,170.21,79.57z"/>
		<path class="st51" d="M175,296.63c-0.84,0.98-1.64,2.17-2.93,0.51C173.05,296.97,174.03,296.8,175,296.63z"/>
		<path class="st117" d="M242.66,170.62c-0.17,0.84-0.33,1.68-0.5,2.51c-0.17,0.17-0.34,0.34-0.51,0.52
			c-0.15-1.32,0.01-2.55,0.92-3.6C242.84,170.21,242.87,170.4,242.66,170.62z"/>
		<path class="st112" d="M240.22,167.25c-0.03-0.19-0.06-0.38-0.09-0.57c0.52-0.62,0.59-1.59,1.48-1.92
			C241.54,165.81,241.11,166.65,240.22,167.25z"/>
		<path class="st118" d="M242.66,170.62c-0.03-0.19-0.05-0.38-0.08-0.57c0.13-0.75,0.48-1.39,1-1.94
			C243.67,169.1,243.41,169.95,242.66,170.62z"/>
		<path class="st103" d="M306.85,83.05c-0.95,0.01-1.97,0.19-2.43-1C305.34,82.14,306.14,82.49,306.85,83.05z"/>
		<path class="st103" d="M304.44,82.06c-0.97,0.08-1.81-0.17-2.46-0.94C302.98,80.97,303.77,81.37,304.44,82.06z"/>
		<path class="st103" d="M308.77,84.03c-0.83,0.05-1.57-0.09-1.91-0.98C307.6,83.16,308.29,83.39,308.77,84.03z"/>
		<path class="st103" d="M300.98,80.62c-0.82,0.05-1.55-0.09-1.91-0.95C299.86,79.69,300.51,79.98,300.98,80.62z"/>
		<path class="st2" d="M348.84,124.97c-1.44-2.2-1.43-2.17,0.83-3.4c0.25-0.13,0.21-0.78,0.32-1.23c0.94,0.52,0.54,1.4,0.64,2.12
			c-0.53,0.32-0.06,0.64,0,0.96C350.03,123.94,349.43,124.45,348.84,124.97z"/>
		<path class="st119" d="M356.39,112.26c-0.81-0.43-0.98-1.14-0.89-1.97C356.08,110.82,356.45,111.45,356.39,112.26z"/>
		<path class="st120" d="M243.18,275.23c2.33,2.51,2.5,5.63,0.41,7.96c-2.04,2.28-5.63,2.44-8.22,0.37
			c0.19-0.48,0.59-0.72,1.02-0.94c3.66-0.82,5.09-3.44,5.52-6.87C242.22,275.32,242.68,275.22,243.18,275.23z"/>
		<path class="st121" d="M243.18,275.23c-0.35,0.16-0.69,0.31-1.04,0.47c-2.96,0.45-5.78,1.09-6.16,4.83
			c-0.06,0.56-0.07,1.12-0.31,1.65c-0.3,0.48-0.67,0.72-1.23,0.39c-1.87-2.86-1.43-5.76,1.2-7.91
			C238.06,272.67,240.66,272.87,243.18,275.23z"/>
		<path class="st122" d="M234.44,282.57c0.29-0.17,0.59-0.34,0.88-0.51c0.87-0.24,0.89,0.4,0.98,0.96
			c-0.31,0.18-0.62,0.36-0.94,0.54C234.96,283.32,234.51,283.12,234.44,282.57z"/>
		<path class="st123" d="M208.09,158.95c-0.16-0.48-0.33-0.97-0.49-1.45c0.15-0.2,0.35-0.34,0.58-0.43
			c4.88-0.2,9.62-0.91,14.18-2.87c4.46-1.92,7.9-5.05,11.01-8.6c2.56-2.92,5.04-5.93,6.32-9.71c0.08-0.23,0.19-0.45,0.31-0.67
			c0.94-1.89,1.53-3.89,1.7-6c0.46-3.39,0.31-6.79,0.09-10.18c-0.05-0.81-0.31-1.59,0.15-2.35c0.83-0.77,1.59-0.37,2.42,0.08
			c4.97,2.7,6.62,7.19,6.74,12.48c0.08,3.78,0.16,7.57-1.63,11.08c-0.49,0.97-0.01,2.1-0.51,3.06l0,0c-1.83,2.06-2.67,4.72-4.17,7
			c-3.96,6.01-8.95,10.92-15.3,14.29c-3.84,2.04-8.14,2.77-12.43,2.12c-4.06-0.61-6.84-3.24-8.52-6.98
			C208.4,159.51,208.29,159.21,208.09,158.95z"/>
		<path class="st124" d="M193.52,101.57c0.3-0.18,0.59-0.37,0.89-0.55c1.2-0.73,2.21-1.74,3.46-2.4l-0.01-0.02
			c0.58-0.46,1.43-0.39,1.94-1c6.06-2.98,12.36-4.05,19.01-2.41c1.25,0.52,2.62,0.55,3.88,1c8.27,2.93,13.94,8.63,17.52,16.54
			c2.59,5.38,2.61,11.03,1.73,16.77c-0.02,2.19-0.96,4.11-1.77,6.07l0-0.01c-5.08,12.62-17.86,20.73-32.46,18.16
			c-10.46-2.12-18.06-7.91-22.57-17.65c-1.21-2.89-1.67-5.98-2.37-9.01c-0.27-2.03-0.27-4.05-0.03-6.08
			c1.38-6.85,4.17-12.98,9.12-18.02C192.36,102.44,192.87,101.92,193.52,101.57z"/>
		<path class="st124" d="M200.76,209.6c1.76,1.82,3.57,3.59,4.88,5.79c2.74,5.37,3.12,10.87,0.96,16.52l0,0
			c-0.5,1.62-1.31,3.09-2.26,4.49c-0.74,1.34-1.78,2.4-2.97,3.34c-2.6,1.91-5.47,3.28-8.48,4.39c-8.1,2.62-18.48-2.11-22.32-10.17
			c-0.35-0.73-0.67-1.47-0.96-2.22c-1.38-4.7-1.89-9.36,0.55-13.91c2.28-5.17,5.88-9.02,11.17-11.2c5.47-2.28,10.8-1.75,16.05,0.73
			C198.64,207.9,199.7,208.75,200.76,209.6z"/>
		<path class="st61" d="M183.31,120.59c0,2.23,0,4.46,0,6.68c0.33,3.07,0.82,6.09,2.41,8.81c3.79,7.77,9.68,13.19,17.9,16
			c1.29,0.44,2.61,0.79,3.92,1.18c-0.72,1.52,1.17,2.7,0.55,4.21c-0.16,0.01-0.33,0.02-0.49,0.03c-4.03-1.01-8.16-1.65-11.78-3.93
			c-7.15-4.49-12.13-10.47-14.12-18.88c-1.45-6.12-1.04-11.91,1.58-17.59C183.78,118.26,183.54,119.42,183.31,120.59z"/>
		<path class="st125" d="M201.31,239.25c1.21-0.74,1.93-1.95,2.86-2.97c0.19-0.2,0.37-0.19,0.54,0.03
			c-4.92,8.06-11.71,12.87-21.54,11.59c-5.55-0.72-9.95-3.56-13.18-8.37c-3.91-5.81-3.98-11.86-2.03-18.22
			c0.23-0.74,0.79-1.38,1.2-2.07c0.54,2.1-0.8,4.02-0.52,6.15c0.3,2.24,0.6,4.44,1.56,6.51c2.3,4.78,5.51,8.64,10.56,10.72
			c3.99,1.65,8.07,2.01,12.27,0.98C196.12,242.8,198.88,241.35,201.31,239.25z"/>
		<path class="st126" d="M277.71,119.08c4.06-4.92,9.87-4.51,13.11,0.93c0.8,2.11,0.63,4.21-0.07,6.3c-0.15,0.33-0.31,0.67-0.46,1
			c-1.66,2.53-3.8,4.24-7.01,3.86c-3.16-0.37-5.35-2.08-6.66-5C275.46,123.55,276.43,121.3,277.71,119.08z"/>
		<path class="st125" d="M196.07,164.74c2.26,2.13,2.75,6.84,0.62,9.52c-1.54,1.94-2.91,4.05-4.89,5.66
			c-2.58,2.1-5.49,2.45-8.8,0.79c-2.61-1.31-4.99-4.9-4.42-7.52c0.58-2.62,1.65-5.17,3.28-7.4c0.38,0.39,0.42,0.87,0.36,1.37
			c-0.9,3.66,0.22,7.05,2.92,8.77c2.85,1.82,5.98,1.76,8.36-0.15c2.96-2.38,3.85-5.17,2.72-8.57c-0.2-0.61-0.47-1.21-0.48-1.87
			C195.75,165.08,195.87,164.88,196.07,164.74z"/>
		<path class="st127" d="M277.71,119.08c-0.75,2.14-1.55,4.25-0.68,6.57c1.97,5.24,8.17,6.58,12.18,2.61
			c0.34-0.34,0.72-0.64,1.08-0.95c-1,3.68-5.08,7.13-8.65,7.31c-3.5,0.17-7.38-3.52-7.34-7.29
			C274.33,124.2,275.83,121.52,277.71,119.08z"/>
		<path class="st128" d="M217.89,196.92c1.55-2.35,3.66-3.78,6.54-3.2c3.18,0.64,4.72,2.88,5.03,6.03c-0.91,6.13-6.29,8-10.33,4.75
			C216.88,202.7,216.53,200.57,217.89,196.92z"/>
		<path class="st129" d="M179.37,250.91c3.52,0.23,5.76,4.42,3.87,7.49c-1.18,1.91-2.54,3.77-4.13,5.34
			c-1.53,1.51-3.62,1.79-5.63,0.87c-2.21-1.01-3.4-3.25-2.78-5.59c0.55-2.06,1.88-3.84,2.45-5.94c0.14-0.54,0.77-1.04,1.47-1.15
			c0.5,0.99-0.33,1.67-0.6,2.48c-0.77,2.23-0.03,4.47,1.85,5.47c2.17,1.16,4.38,0.62,5.76-1.39c1.42-2.09,1.13-4.05-0.82-5.83
			C180.26,252.15,179.26,251.98,179.37,250.91z"/>
		<path class="st130" d="M217.89,196.92c-0.42,2.13-0.83,4.28,0.68,6.18c1.33,1.67,3.17,2.53,5.25,2.38
			c2.33-0.17,3.95-1.6,4.91-3.72c0.29-0.65,0.49-1.34,0.73-2c0.11,5.15-4.99,9.88-10.03,9.3c-2.99-0.34-5.02-3.78-3.98-7.27
			C215.96,200.09,216.65,198.33,217.89,196.92z"/>
		<path class="st128" d="M179.37,250.91c3.71,2.37,4.62,4.38,3.26,7.18c-1.41,2.9-4.25,3.85-7.08,2.37
			c-2.52-1.33-3.29-4.4-1.76-7.07c0.28-0.48,0.56-0.97,0.84-1.45C176.07,250.98,177.69,250.81,179.37,250.91z"/>
		<path class="st131" d="M192,88.44c2.46,2.42,1.97,5.02,0.48,7.68c-0.37,0.9-1.22,1.15-2,1.52c-3.53,0.93-6.15-0.39-8.14-3.27
			c-1.19-2.09,0.14-3.73,0.98-5.45c1.83-2.11,4.16-2.48,6.75-1.93C190.69,87.5,191.61,87.62,192,88.44z"/>
		<path class="st132" d="M208.09,158.95c0.68,0.25,0.92,0.88,1.24,1.43c3.78,6.61,9.49,7.02,17.27,4.75
			c5.28-1.54,9.29-4.95,12.85-8.74c3.04-3.24,6.01-6.75,7.63-11.07c0.34-0.9,0.62-1.9,1.88-1.94c-2.19,5.33-5.19,10.17-9.31,14.19
			c-4.47,4.35-9.32,7.83-15.74,9.43c-5.6,1.39-9.76,0.31-13.52-3.53C209.2,162.27,207.89,160.94,208.09,158.95z"/>
		<path class="st133" d="M190.62,97.2c0.62-0.36,1.23-0.72,1.85-1.08c-0.96,1.83-2.09,3.64-3.75,4.82
			c-3.17,2.25-8.19,0.72-8.84-4.21c0.44-1.29,0.26-2.73,0.98-3.95c1.33-0.96,0.87-3.07,2.45-3.87c-0.44,1.75-1.57,3.43-0.56,5.34
			C184.87,97.58,186.7,98.27,190.62,97.2z"/>
		<path class="st134" d="M248.95,92.79c4.37,0.38,8.46,1.94,12.6,3.2c7.16,2.18,14.23,4.67,21,7.92c4.54,2.18,8.86,4.59,11.89,8.8
			c0.45,0.63,0.79,1.2,0.73,1.97c-2.06-1.78-3.48-4.16-5.71-5.83c-3.33-2.51-7.02-4.22-10.8-5.85c-7.48-3.22-15.16-5.83-22.99-8.05
			C253.4,94.3,250.92,94.34,248.95,92.79z"/>
		<path class="st135" d="M248.95,143.38c0.03-1.68,0.43-3.27,0.76-4.91c1.09-5.47,1.79-11.2-0.81-16.38
			c-1.27-2.53-3.25-5.21-6.76-5.47c-0.35-0.23-0.79-0.42-0.43-0.97c3.29,0.21,5.67,1.95,7.35,4.65c3.24,5.2,3.24,10.84,2.15,16.64
			C250.78,139.22,249.5,141.16,248.95,143.38z"/>
		<path class="st136" d="M230.97,221.16c-0.31-0.05-0.62-0.11-0.93-0.16c0.47-0.69,1.21-1.05,1.85-1.53
			c0.78-0.59,1.52-0.83,2.46-0.42c1.06,0.46,0.99,1.35,0.99,2.25c-0.01,7.6-0.02,15.21-0.02,22.81c-0.77-0.72-0.47-1.67-0.47-2.52
			c-0.01-6.14,0.04-12.28,0.01-18.41c0-1.07,0.53-2.48-0.68-3.12C232.93,219.39,231.96,220.52,230.97,221.16z"/>
		<path class="st137" d="M183.31,120.59c-0.01-1.16-0.03-2.32-0.04-3.49c1.62-5.43,4.31-10.23,8.27-14.31
			c0.55-0.57,1.03-1.3,1.98-1.22c-3.02,3.26-5.83,6.64-7.72,10.75C184.58,114.98,184.24,117.86,183.31,120.59z"/>
		<path class="st138" d="M197.83,207.73c-5.35-2.55-10.87-2.62-16.5-1.1c2.82-1.8,5.91-2.3,9.16-1.71c2.54,0.46,5.03,1.13,7.38,2.23
			C198.08,207.35,198.07,207.55,197.83,207.73z"/>
		<path class="st139" d="M170.18,231.91c-2.03-3.05-2.37-6.38-1.67-9.88c0.19-0.93,0.75-1.77,0.63-2.77
			c0.05-0.68,0.34-1.19,1.02-1.43C168.86,222.52,168.84,227.22,170.18,231.91z"/>
		<path class="st140" d="M241.71,115.65c0.14,0.32,0.29,0.65,0.43,0.97c0.66,3.42,0.53,6.87,0.51,10.32c0,0.97,0.03,1.94-0.49,2.81
			c-0.13,0.22-0.25,0.23-0.37-0.01c0.37-3.75,0.63-7.47-0.06-11.24c-0.36-1.99-1.29-3.78-1.53-5.78
			C241.57,113.25,240.93,114.82,241.71,115.65z"/>
		<path class="st141" d="M206.6,231.91c1.76-5.63,1.28-11.12-0.96-16.52c1.34,1.19,1.73,2.82,2.06,4.46
			c0.72,3.52,0.69,7.04-0.08,10.55C207.47,231.08,207.31,231.66,206.6,231.91z"/>
		<path class="st142" d="M185.25,162.39c3.41-2.42,8.69-1.28,10.81,2.35c0,0-0.23,0.08-0.23,0.08c-0.53,0.13-0.98-0.09-1.33-0.41
			c-1.94-1.79-4.25-2.15-6.75-1.84C186.92,162.55,186.04,163.1,185.25,162.39z"/>
		<path class="st134" d="M239.71,90.84c3.19,0.15,6.27,0.78,9.24,1.95C245.7,92.97,242.75,91.69,239.71,90.84z"/>
		<path class="st143" d="M185.25,162.39c0.8-0.17,1.6-0.34,2.4-0.51c0.07,0.16,0.14,0.39,0.04,0.45c-2.17,1.39-3.81,3.42-5.92,4.88
			c0.03-0.48,0.05-0.95,0.08-1.43C182.86,164.52,183.81,163.21,185.25,162.39z"/>
		<path class="st144" d="M290.75,126.31c0.02-2.1,0.04-4.2,0.07-6.3C292.28,122.12,292.2,124.22,290.75,126.31z"/>
		<path class="st136" d="M237.76,246.98c-1.39-0.47-2.25-1.4-2.44-2.88c0.47-0.04,1.24-1,1.27,0.29c0.02,0.93,0.21,1.51,1.18,1.65
			C237.77,246.36,237.77,246.67,237.76,246.98z"/>
		<path class="st141" d="M204.7,236.32c-0.18-0.01-0.36-0.02-0.54-0.03c0.81-1.46,1.63-2.92,2.44-4.38
			C206.88,233.77,205.55,234.94,204.7,236.32z"/>
		<path class="st145" d="M197.87,98.62c-0.96,1.08-1.94,2.12-3.46,2.4C195.28,99.82,196.36,98.91,197.87,98.62z"/>
		<path class="st146" d="M197.83,207.73c0.01-0.2,0.03-0.39,0.04-0.59c1,0.78,2.39,1.11,2.9,2.46
			C199.62,209.23,198.67,208.56,197.83,207.73z"/>
		<path class="st147" d="M222.68,96.2c-1.41,0.1-2.75-0.05-3.88-1C220.21,95.05,221.51,95.37,222.68,96.2z"/>
		<path class="st148" d="M192,88.44c-0.67-0.45-1.54-0.63-1.93-1.46C191.01,87.08,191.89,87.25,192,88.44z"/>
		<path class="st149" d="M199.79,97.6c-0.34,0.93-1.07,1.1-1.94,1C198.27,97.82,198.95,97.55,199.79,97.6z"/>
		<path class="st150" d="M292.25,91.82c-2.57-0.1-4.59-1.71-6.88-2.56c-7.59-2.84-15.26-5.35-23.08-7.45
			c-2.17-0.58-4.61-0.67-6.52-2.14c3.78-0.02,7.22,1.5,10.75,2.49c8.42,2.35,16.69,5.17,24.7,8.72
			C291.68,91.08,292.04,91.35,292.25,91.82z"/>
		<path class="st150" d="M304.9,97.65c-3.46-0.75-6.4-2.73-9.56-4.16c-1.03-0.47-2.34-0.63-3.09-1.67c3.07,0.45,5.91,1.65,8.45,3.32
			C302.07,96.04,304.11,95.84,304.9,97.65z"/>
		<path class="st151" d="M318.52,105.44c-3.82-2.04-7.64-4.08-11.44-6.15c-0.15-0.08-0.16-0.43-0.24-0.66
			C311.1,100.27,315.15,102.28,318.52,105.44z"/>
		<path class="st152" d="M329.73,95.66c0.66-0.59,1.28,0.07,1.91,0.08l-0.02-0.01c1.77,1.82,4.2,2.69,6.15,4.26
			c0.45,0.36,0.98,0.68,0.82,1.31c-0.04,0.17-0.71,0.17-1.09,0.24c-0.03-0.84-0.56-1.16-1.28-1.51
			C333.86,98.89,331.7,97.41,329.73,95.66z"/>
		<path class="st153" d="M327.23,110.29c0.01,0.16,0.02,0.33,0.03,0.49c-2.59-0.01-4.18-1.74-5.81-3.39
			c1.51-0.26,2.17,1.14,3.26,1.69C325.53,109.5,326.23,110.21,327.23,110.29z"/>
		<path class="st103" d="M304.89,83.56c0.83-0.07,1.57,0.06,1.95,0.93C306.06,84.45,305.4,84.15,304.89,83.56z"/>
		<path class="st103" d="M299.04,81.13c0.83-0.07,1.57,0.05,1.96,0.92C300.21,82.03,299.56,81.72,299.04,81.13z"/>
		<path class="st154" d="M316.58,141.43c1.8-1.94,3.3-4.21,5.83-5.35C320.64,138.06,319.1,140.28,316.58,141.43z"/>
		<path class="st155" d="M326.78,114.18c0.15,2.04-0.83,0.74-1.45,0.49C325.68,114.12,326.25,114.21,326.78,114.18z"/>
		<path class="st156" d="M279.16,160.87c1.96,0.88,3.74,1.98,4.85,3.91c-2.35,2.23-4.78,4.38-7.04,6.7
			c-3.83,3.93-8.37,6.91-12.94,9.85c-1.01,0.42-2.06,0.75-2.92,1.46c-0.32,0.16-0.65,0.33-0.97,0.49c-1.08,0.54-1.98,2.36-3.41,0.49
			c0,0,0.01-0.01,0.01-0.01c1.71,0.01,2.82-1.12,3.88-2.2c3.04-3.1,5.9-6.36,8.81-9.56c2.88-3.17,5.69-6.42,8.58-9.59
			C278.45,161.93,278.78,161.38,279.16,160.87z"/>
		<path class="st157" d="M268.9,159.92c0.16,0,0.32,0,0.49,0.01c2.08,0.62,3.33,2.13,3.39,4.09c0.07,2.3-1.24,4.36-3.16,4.98
			c-1.8,0.58-4.38-0.27-5.44-1.79c-0.96-1.38-0.79-4.31,0.35-5.75C265.65,160.01,267.22,159.8,268.9,159.92z"/>
		<path class="st158" d="M247.5,174.11c-0.13-2,0.61-2.99,2.61-3.02c2.13-0.03,2.69,1.04,2.79,2.99c0.1,2.15-1.22,2.76-2.79,2.73
			C248.53,176.78,247.04,176.12,247.5,174.11z"/>
		<path class="st156" d="M268.9,159.92c-2.5,0.58-4.83,1.24-4.91,4.56c-0.04,1.87,0.63,3.13,2.29,3.83
			c1.68,0.71,3.34,0.61,4.76-0.61c1.38-1.18,1.62-2.85,1.1-4.43c-0.46-1.38-1.14-2.81-2.75-3.34c2.53-0.23,3.42,1.57,3.83,3.48
			c0.51,2.42-1.54,5.53-3.73,6.14c-2.54,0.71-5.61-1.01-6.26-3.51c-0.81-3.1,0.78-5.94,3.66-6.5
			C267.59,159.4,268.34,159.23,268.9,159.92z"/>
		<path class="st2" d="M343.38,99.55c-1.97,0.85-3.82,1.33-5.6-0.59c-0.84-0.9-2.13-1.38-3.36-2.14c1.03-0.22,1.93-0.41,2.84-0.6
			c0.16,2.09,2.47,0.99,3.31,2.26C341.13,99.32,342.25,99.71,343.38,99.55C343.39,99.56,343.38,99.55,343.38,99.55z"/>
		<path class="st2" d="M331.64,95.74c-0.17-0.27-0.42-0.51-0.5-0.81c-0.19-0.61-1.87-0.53-0.8-1.7c0.96-1.04,1.8-0.54,2.72,0.15
			c0.82,0.63,1.43,1.27,1.09,2.37c-0.04,0.12-0.43,0.27-0.58,0.21c-0.78-0.34-1.49-0.45-1.95-0.23
			C331.62,95.74,331.64,95.74,331.64,95.74z"/>
		<path class="st2" d="M296.68,159.96c-0.38,0.12-0.8,0.16-1.11,0.37c-0.76,0.51-1.55,1.74-2.39,0.55
			c-0.79-1.12,0.84-1.86,1.33-2.11c2.54-1.27,3.71-3.89,5.92-5.49c3.47-2.5,5.84-6.23,9.27-8.82c0.51-0.38,0.91-1.14,1.58-0.6
			c0.78,0.63,0.04,1.21-0.42,1.56c-3.6,2.77-6.19,6.57-9.61,9.52c-1.72,1.48-3.71,2.76-4.59,5.03
			C296.67,159.97,296.68,159.96,296.68,159.96z"/>
		<path class="st2" d="M329.75,124.93c1.99-1.11,2.1-1.44,0.93-2.8c-0.67-0.78,0.46-1.03,0.49-1.61c1.34,0.4,1.23,2.43,2.83,2.53
			c-0.03,0.31-0.06,0.61-0.1,0.92c-2.28-0.8-1.26,1.13-1.65,1.94c-0.2,0.42-0.59,0.75-1.18,0.62
			C330.18,126.35,329.54,126,329.75,124.93z"/>
		<path class="st159" d="M257.22,184.74c0.53,1.53,1.19,3.08-0.49,4.37c-0.6-0.5-0.09-1.2-0.4-1.99c-0.74,0.95-2,1.5-1.06,2.97
			c-1.23,1.38-1.92-0.48-2.92-0.49c-2.47-1.29-2.83-2.99-1.07-5C253.3,183.24,255.27,183.5,257.22,184.74z"/>
		<path class="st160" d="M255.28,190.09c-1.24-0.21-1.87-0.74-0.78-1.86c0.75-0.77,1.64-1.42,2.48-2.13
			c0.77,0.97-0.18,1.98-0.24,3.01C256.25,189.44,255.76,189.76,255.28,190.09z"/>
		<path class="st161" d="M257.22,184.74c-1.95-0.53-3.89-0.72-5.84,0c-0.17,0.21-0.33,0.21-0.49,0c1.58-2.53,3.79-1.28,5.84-0.97
			c1.36,1.4,2.24-0.57,3.41-0.49C259.5,184.42,258.73,185.31,257.22,184.74z"/>
		<path class="st161" d="M261.11,182.79c0.66-1.12,1.71-1.44,2.92-1.46C263.22,182.14,262.23,182.58,261.11,182.79z"/>
		<path class="st64" d="M250.9,184.73c0.16,0,0.33,0,0.49,0c-1.67,2.02-0.65,3.5,0.97,4.86c-1.9,0.16-2.06-1.34-2.57-2.6
			C249.27,185.73,250.06,185.26,250.9,184.73z"/>
		<path class="st162" d="M236.3,283.01c-0.33-0.32-0.66-0.64-0.98-0.96c-0.56-4.1,2.39-7.45,6.82-6.35
			C242.14,280.39,240.61,282.31,236.3,283.01z"/>
		<path class="st163" d="M208.09,157.47c0.01-0.71-0.46-1.15-0.89-1.62c-0.89-0.99-0.71-1.85,0.34-2.58
			c3.93,0.2,7.82,0.44,11.76-0.48c9.02-2.1,15.41-7.38,19.76-15.37c0.34-0.63,0.73-1.24,1.1-1.85c-0.18,2.92-2.06,5.05-3.64,7.2
			c-5.73,7.77-12.95,13.35-22.88,14.55C211.81,157.54,209.94,157.43,208.09,157.47z"/>
		<path class="st164" d="M241.79,129.75c0.12,0.01,0.25,0.01,0.37,0.01c0.02,2.18-0.53,4.16-2,5.83
			C240.7,133.64,241.24,131.69,241.79,129.75z"/>
		<path class="st66" d="M203.24,148.24c-10.54-4.23-17.37-14.81-16.44-26.24c0.46-5.68,2.46-10.97,6.68-15.13
			c1.39,0.72,1.09,1.95,0.97,3.14c-0.06,0.25-0.15,0.49-0.26,0.72c-0.97,3.87-1.38,7.75-0.56,11.73c0.28,1.35,0.99,1.24,1.93,0.98
			c4.22-0.24,6.08,2.04,4.72,5.77c-0.55,0.75-1.12,1.47-2.22,1.23c-0.57-0.54-0.11-1.02,0.09-1.52c0.77-1.99,0.44-2.98-1.3-3.3
			c-1.21-0.22-2.7-0.61-3.17,1.21c-0.46,1.8,0.47,2.93,2.52,3.21c0.32,0.04-0.08-0.06,0.24-0.04c0.22-0.06,0.45-0.08,0.68-0.09
			c0.36,0.02,0.66,0.15,0.85,0.47c-0.01,1.6,0.55,2.96,1.64,4.13c3.08,3.3,6.24,6.46,10.86,7.55c0.23,0.09,0.44,0.2,0.65,0.34
			c3.98,2.01,8.19,2.15,12.49,1.51c1.78,0.09,3.33-1.36,5.18-0.79c0.62,2-1.56,1.77-2.2,2.76c-5.28,3.57-11.08,4.87-17.37,3.95
			c-0.87-0.13-1.73-0.38-2.59-0.58C205.62,148.48,204.34,148.66,203.24,148.24z"/>
		<path class="st165" d="M216.26,98.36c0.39-0.15,0.76-0.12,1.08,0.17c1.38,0.61,2.88,0.78,4.33,1.14
			c9.86,3.48,15.19,10.68,17.01,20.75c0.57,3.15,0.18,6.26-0.43,9.35c-1.29,0.39-1.83,0.02-1.49-1.53c0.51-2.34,0.09-4.56-0.36-6.8
			c-0.51-2.56-1.88-4.46-4.15-5.8c-1.29-0.76-2.48-1.74-3.19-3.14c-1.14-1.96-2.23-3.96-3.4-5.9c-0.71-2.29-2.43-3.46-4.56-4.25
			c-0.89-0.33-1.82-0.66-2.57-1.3c-0.53-0.66-1.24-0.87-2.05-0.82c-0.84-0.08-1.76,0.05-2.24-0.9
			C214.34,97.79,215.56,98.63,216.26,98.36z"/>
		<path class="st166" d="M236.81,121.01c0.68,2.17,1.29,4.31,0.66,6.66c-0.16,0.58-1.22,2.09,0.79,2.11
			c-0.33,3.35-1.97,6.11-3.88,8.76c-0.3,0.15-0.53,0.08-0.7-0.21c-0.32-0.92,0.01-1.77,0.38-2.57c1.63-3.52,2.26-7.2,2.06-11.07
			C236.06,123.45,235.78,122.09,236.81,121.01z"/>
		<path class="st167" d="M214.41,99.12c0.69,0.78,1.61,0.37,2.43,0.48c0.16,0.29,0.1,0.53-0.17,0.73c-0.8,0.48-1.69,0.44-2.57,0.45
			c-3.6,0.06-7.23-0.29-10.74,0.89c-0.52,0.18-1.12,0.16-1.62-0.2c-0.37-0.66-0.02-1.05,0.51-1.37c1.51-0.84,3.13-1.31,4.84-1.49
			c1.67,0.22,3.34-0.12,5.01,0C212.9,98.69,213.74,98.49,214.41,99.12z"/>
		<path class="st168" d="M193.98,110.3c-0.03-1.17,0.18-2.37-0.51-3.44c0.87-1.34,2.12-2.32,3.27-3.38
			c0.67-0.18,1.15-0.98,1.99-0.64c0.12,0.12,0.26,0.33,0.19,0.39c-2.14,1.87-2.69,4.72-4.31,6.91
			C194.48,110.35,194.23,110.38,193.98,110.3z"/>
		<path class="st169" d="M214.41,99.12c-2.42-0.31-4.93,0.59-7.3-0.5c3.04-0.71,6.09-0.82,9.16-0.26
			C215.74,98.85,214.82,98.36,214.41,99.12z"/>
		<path class="st170" d="M185.73,136.09c-2.07-2.59-2.66-5.58-2.41-8.81C184.12,130.21,184.92,133.15,185.73,136.09z"/>
		<path class="st171" d="M198.81,103c-0.69,0.16-1.38,0.32-2.07,0.48c1.53-1.62,3.39-2.7,5.51-3.37c-0.17,0.32-0.34,0.63-0.51,0.94
			C201.21,102.36,200.18,102.93,198.81,103z"/>
		<path class="st172" d="M233.78,138.54c0.2,0,0.39,0,0.59,0c-0.59,1.88-1.82,3.25-3.42,4.33c-0.17-0.16-0.28-0.36-0.33-0.59
			C231.17,140.6,232.08,139.23,233.78,138.54z"/>
		<path class="st173" d="M230.9,142.38c0.02,0.16,0.04,0.32,0.05,0.48c-1.47,0.98-2.43,2.7-4.36,3c0.81-0.82,1.62-1.65,2.42-2.47
			C229.34,142.5,229.82,141.88,230.9,142.38z"/>
		<path class="st169" d="M221.68,99.67c-1.6,0.24-3.05-0.14-4.33-1.14C218.92,98.43,220.34,98.9,221.68,99.67z"/>
		<path class="st174" d="M203.24,148.24c1.23-0.01,2.49-0.13,3.39,1C205.42,149.18,204.27,148.88,203.24,148.24z"/>
		<path class="st66" d="M202.12,232.92c-4.74,7.86-15.01,10.21-22.53,5.16c-7.78-5.24-9.43-15.71-3.65-23.16
			c0.29-0.29,0.63-0.32,0.99-0.15c0.39,1.93-0.88,3.61-0.55,5.65c0.77,4.77,2.03,9.09,6.43,11.83c1.58,0.98,2.98,2.25,4.87,2.64
			c3.88,0.66,7.73,0.97,11.25-1.36c0.68-0.48,1.33-1.06,2.23-1.07C201.55,232.49,201.87,232.63,202.12,232.92z"/>
		<path class="st175" d="M180.72,210.9c4.58-2.93,9.35-2.68,14.21-0.82c0.58,0.44,1.3,0.6,1.91,0.97c2.44,1.83,4.91,3.64,5.91,6.74
			c0.37,0.8,0.48,1.71,0.98,2.45l-0.01-0.01c0.05,1.77,0.96,3.54,0.04,5.31c-1.36,0.23-0.99-0.92-1.18-1.56
			c-1.04-3.57-2.34-6.97-5.55-9.23c-3.88-3.16-8.26-4.17-13.14-3.11c-0.89-0.04-1.75,0.42-2.65,0.16
			C180.87,211.62,180.61,211.37,180.72,210.9z"/>
		<path class="st176" d="M197.4,214.38c3.95,2.69,5.37,6.7,5.88,11.19c0.84,1.65,0.47,3.28-0.07,4.91l0.02-0.04
			c-0.38,0.46-0.52,1.07-0.92,1.52c-0.06,0.32-0.12,0.64-0.18,0.95c-0.29-0.01-0.57-0.03-0.86-0.04c-0.58-0.76-0.3-1.57-0.03-2.3
			c1.91-5.1,0.11-9.42-2.72-13.56C197.98,216.23,196.74,215.69,197.4,214.38z"/>
		<path class="st177" d="M203.21,230.48c0.02-1.64,0.04-3.27,0.07-4.91c0.95-1.71,0.17-3.57,0.46-5.34
			C205.08,223.72,205.02,227.15,203.21,230.48z"/>
		<path class="st178" d="M180.72,210.9c0.2,0.21,0.39,0.43,0.59,0.64c0.11,0.13,0.15,0.26,0.12,0.39c-0.03,0.14-0.06,0.2-0.09,0.2
			c-1.1,0.9-2.4,1.5-3.5,2.4c-0.27,0.2-0.57,0.34-0.91,0.34c-0.33,0.01-0.66,0.03-0.99,0.04
			C176.94,212.87,178.58,211.58,180.72,210.9z"/>
		<path class="st179" d="M201.31,239.25c-2.2,2.54-4.92,4.06-8.3,4.36C195.78,242.16,198.54,240.71,201.31,239.25z"/>
		<path class="st177" d="M203.74,220.23c-0.84-0.61-1.04-1.48-0.98-2.45C203.42,218.47,203.77,219.28,203.74,220.23z"/>
		<path class="st177" d="M202.31,231.97c-0.03-0.71,0.25-1.23,0.92-1.52C203.22,231.14,203.25,231.85,202.31,231.97z"/>
		<path class="st180" d="M196.85,211.05c-0.8,0-1.53-0.15-1.91-0.97C195.73,210.09,196.38,210.39,196.85,211.05z"/>
		<path class="st181" d="M288.35,124.92c0.04,0.42-0.09,0.76-0.45,1c-0.31,0.3-0.56,0.75-1.11,0.49c-0.44-0.94-0.93-1.11-1.92-0.67
			c-0.22-0.05-0.41-0.14-0.59-0.27c-0.64-0.91-1.58-1.43-2.53-1.94c-0.85-1.01-1.31-2.15-1.18-3.5c0.32-0.34,0.64-0.68,0.96-1.02
			c0.21-0.14,0.43-0.16,0.66-0.04C285.71,119.44,287.63,121.55,288.35,124.92z"/>
		<path class="st182" d="M280.57,120.03c0.49,1.14,0.98,2.27,1.47,3.41c0.73,0.75,1.67,1.24,2.43,1.94l0,0
			c0.71,0.58,1.96-0.21,2.44,0.96c0.33-0.14,0.66-0.29,1-0.43c-0.79,2.29-3.02,1.85-4.43,1.67c-1.8-0.24-3.63-1.4-3.86-3.71
			C279.48,122.5,279.68,121.17,280.57,120.03z"/>
		<path class="st183" d="M288.35,124.92c-0.22-0.08-0.62-0.11-0.65-0.23c-0.68-2.9-2.27-4.78-5.43-4.98
			c-0.1-0.01-0.17-0.41-0.25-0.63c1.45-1.25,2.91-0.68,4.37-0.01C288.39,120.57,289.05,122.51,288.35,124.92z"/>
		<path class="st182" d="M286.4,119.06c-1.46-0.18-2.92-0.71-4.37,0.01c-0.17-0.02-0.33-0.04-0.5-0.06
			C283.16,117.72,284.79,117.62,286.4,119.06z"/>
		<path class="st184" d="M181.77,167.21c1.22-2.59,3.64-3.86,5.88-5.33c3.27-0.53,5.98,0.53,8.19,2.94c2.92,5.86,1,11.15-4.64,12.79
			c-3.03,0.88-5.68-0.11-7.71-2.24C181.34,173.12,180.33,170.36,181.77,167.21z"/>
		<path class="st185" d="M226.99,200.28c-0.96,2.18-3.14,3.17-5.23,2.18c-2.01-0.95-2.2-2.67-1.52-4.6c1.43,1.77,3.15,2.8,5.52,2.16
			C226.18,200.09,226.61,200.05,226.99,200.28z"/>
		<path class="st186" d="M226.1,200.78c-0.3-0.11-0.66-0.39-0.89-0.31c-2.62,0.93-4.24,0.03-4.96-2.61
			c0.02-0.39,0.08-0.76,0.49-0.95c1.11,0.53,2.32,0.21,3.47,0.4c0.38,0.06,0.73,0.18,1.05,0.39
			C226.02,198.59,226.9,199.46,226.1,200.78z"/>
		<path class="st187" d="M224.16,197.85c-1.15-0.29-2.68,0.83-3.43-0.93c1.32-1.3,2.77-1.43,4.34-0.48
			c-0.11,0.12-0.23,0.26-0.38,0.29C223.55,196.95,223.55,196.95,224.16,197.85z"/>
		<path class="st188" d="M226.1,200.78c0.24-1.17-0.9-1.84-1.03-2.88c0.26-0.32,0.72-0.2,1-0.46c1.4,0.59,0.85,1.81,0.92,2.83
			C226.69,200.45,226.39,200.62,226.1,200.78z"/>
		<path class="st189" d="M226.07,197.45c0.01,0.91-0.55,0.56-1,0.46c-0.3-0.02-0.6-0.04-0.91-0.06c-0.5-0.37-1.01-0.74-1.93-1.41
			c1.21,0,2.02,0,2.83,0C225.4,196.77,225.74,197.11,226.07,197.45z"/>
		<path class="st190" d="M176.46,253.82c0.63-1,1.4-1.36,2.44-0.54c-0.03,1.68,1.98,3.13,0.57,4.97
			C176.85,257.71,176,256.45,176.46,253.82z"/>
		<path class="st191" d="M179.39,258.17c-0.02-1.42,0.27-2.9-1.32-3.86c-0.59-0.36-0.48-0.54,0.83-1.04
			c2.46,1.23,2.77,2.84,0.96,4.94C179.69,258.39,179.53,258.39,179.39,258.17z"/>
		<path class="st192" d="M179.39,258.17c0.16,0.01,0.31,0.03,0.47,0.05c-1.49,0.92-2.79,0.59-3.81-0.72
			c-1.03-1.31-0.67-2.56,0.42-3.68C176.39,255.97,177.73,257.18,179.39,258.17z"/>
		<path class="st193" d="M191.51,93.24c-0.15,0.34-0.3,0.67-0.45,1.01c-1.62,1.36-3.5,1.59-5.02,0.23
			c-1.55-1.39-1.26-3.32-0.29-5.08c0.15,0,0.3,0.01,0.46,0.02c0.78,0.46,1.67,0.25,2.5,0.43c0.72,0.11,1.21,0.53,1.58,1.13
			C190.77,91.69,191.04,92.52,191.51,93.24z"/>
		<path class="st194" d="M185.74,89.4c-0.01,0.16-0.02,0.32-0.04,0.48c-0.74,4.65,0.83,5.69,5.36,4.37
			c-1.62,1.91-3.32,2.19-5.1,0.83C184.11,93.67,184.04,91.83,185.74,89.4z"/>
		<path class="st195" d="M190.62,97.2c-3.17,1.86-6.56,0.58-7.86-2.95C184.85,96.66,187.34,97.98,190.62,97.2z"/>
		<path class="st196" d="M188.63,90.35c-0.85-0.21-2.09,0.59-2.43-0.94c1.14-0.74,2.28-1.1,3.45-0.07
			C189.34,89.71,188.67,89.71,188.63,90.35z"/>
		<path class="st197" d="M188.63,90.35c-0.55-1.24,0.46-0.89,1.02-1.01c0.45,0.19,0.77,0.51,0.95,0.97
			c0.29,0.58,0.33,1.03-0.52,1.03C189.59,91.02,189.37,90.3,188.63,90.35z"/>
		<path class="st198" d="M190.08,91.34c0.4-0.23,0.48-0.61,0.52-1.03c0.88,0.8,1.11,1.8,0.91,2.93
			C190.74,92.83,190.13,92.3,190.08,91.34z"/>
		<path class="st199" d="M241.81,276.8c-1.39,0.48-2.24,0.42-3.25,0.22C239.47,276.11,240.31,276.05,241.81,276.8z"/>
		<path class="st200" d="M230.9,142.38c-0.81,0-1.23,0.73-1.89,1.02c-1.88-0.19-3.41,1.52-5.36,0.96c-1.57,0.52-3.18,0.12-4.77,0.23
			c-0.66,0.05-1.32-0.04-1.64-0.75c-0.33-0.74,0.1-1.26,0.62-1.66c1-0.76,1.26-1.74,1.27-2.95c0-1.57-0.63-2.63-2.07-3.19
			c-1.44-0.56-2.76-0.23-3.73,0.89c-0.94,1.08-1.14,2.43-0.66,3.82c0.02,0.07,0.06,0.14,0.1,0.22c0.36,0.82,1.73,1.72,0.91,2.42
			c-1.08,0.91-2.19-0.31-3.16-0.99l0,0c-4.33-1.42-7.77-4.17-10.72-7.51c-2.49-2.82-2.39-2.91,0.02-5.62
			c1.02-3.84-0.21-5.35-4.38-5.35c-1.01,0.45-1.64-0.08-1.81-0.95c-0.88-4.24-0.91-8.48,0.36-12.67c0,0,0,0,0,0
			c0.63-1.58,2.09-2.78,2.17-4.6c0.08-1.73,2.17-1.41,2.66-2.71c0.98-0.65,1.96-1.3,2.93-1.94c4.98-1.08,10.02-1.19,15.08-0.95
			c0.77-0.28,1.37,0.09,1.96,0.51c1.08,0.51,2.12,1.15,3.25,1.51c2.18,0.7,3.56,2.04,4.05,4.29c0.85,2.12,1.87,4.13,3.4,5.85
			c0.89,1.4,2.18,2.47,3.57,3.22c2.29,1.23,3.32,3.13,3.76,5.53c-0.19,4.06,0.55,8.19-0.97,12.15c-0.69,1.79-1.37,3.58-2.05,5.37
			C232.82,139.82,231.86,141.1,230.9,142.38z"/>
		<path class="st201" d="M210.52,142.41c1.07-0.09,1.67,1.41,3.01,0.79c-0.93-1.49-2.36-2.72-1.61-4.88
			c0.66-1.92,2.13-3.32,4.21-3.2c2.08,0.12,3.58,1.65,3.64,3.72c0.04,1.44,0.25,2.95-1.43,3.76c-0.4,0.2-0.98,0.45-0.74,1.07
			c0.19,0.49,0.69,0.66,1.2,0.66c1.62,0.01,3.24,0.01,4.86,0.02c-3.1,0.72-6.2,0.98-9.25-0.2
			C213.08,143.65,211.22,144.31,210.52,142.41z"/>
		<path class="st202" d="M196.9,130.25c-1.37,1.08-2.44,0.42-3.31-0.68c-0.94-1.2-0.98-2.75-0.24-3.86c0.81-1.2,2.47-1.12,3.76-0.76
			c2.46,0.69,3.33,2.3,0.76,5.3l0,0C197.55,130.25,197.22,130.25,196.9,130.25c-0.94-0.86-1.32-2.15-2.41-3.07
			C194.1,129.27,196.02,129.35,196.9,130.25z"/>
		<path class="st201" d="M199.82,129.27c-1.7,3.35-1.64,3.46,1.35,6.47c2.74,2.76,6.11,4.63,9.36,6.67
			c-3.22,0.51-5.16-2.06-7.31-3.54c-1.83-1.25-3.71-2.95-4.95-5.07c-0.69-1.18-1.21-2.26-0.38-3.55c0,0,0,0,0,0
			C198.72,130.32,199.14,129.55,199.82,129.27z"/>
		<path class="st168" d="M193.98,110.3c-0.62,3.93-0.75,7.85-0.03,11.79c0.18,0.98,0.34,1.74,1.49,1.83
			c-1.48,0.88-2.11,0.7-2.51-1.24c-0.74-3.58-0.08-7.06,0.07-10.59C193.03,111.3,193.21,110.66,193.98,110.3z"/>
		<path class="st203" d="M229.48,112.27c-2-1.45-3.03-3.46-3.4-5.85C227.43,108.24,228.5,110.23,229.48,112.27z"/>
		<path class="st169" d="M218.78,100.61c-0.71,0.07-1.34-0.2-1.96-0.51c0-0.17,0.01-0.34,0.01-0.5
			C217.69,99.56,218.45,99.68,218.78,100.61z"/>
		<path class="st200" d="M177.42,214.39c1.08-1.16,2.32-2.05,3.89-2.43c0.77-0.43,1.77-0.31,2.45-0.98
			c5.07-0.97,9.72-0.27,13.64,3.39c-0.08,0.93,0.86,1.09,1.25,1.66c3.15,4.56,5.47,9.27,3.12,14.98c-0.24,0.59-0.34,1.24-0.51,1.86
			c-0.83-0.03-1.26,0.72-1.94,0.99c-3.21,1.87-6.72,1.93-10.27,1.69c-2.32-0.74-4.4-1.99-6.49-3.21c-0.66-0.39-1.4-0.72-1.25-1.56
			c0.16-0.89,1.08-0.82,1.77-0.96c3.06-0.63,4.44-2.51,3.86-5.24c-0.22-1.06-0.71-1.81-1.95-1.7c-1.11-0.04-2.22-0.06-3.32,0.04
			c-1.61,0.25-1.89,1.52-2.19,2.8c-0.12,0.53-0.16,1.23-0.86,1.29c-0.7,0.06-0.85-0.62-1.07-1.13
			C175.89,222.09,175.59,218.25,177.42,214.39z"/>
		<path class="st204" d="M185.21,222.2c1.6-0.17,2.32,0.92,2.34,2.16c0.03,1.48,0.86,3.17-0.87,4.43c-1.5,1.1-2.97,2.05-5.56,1.61
			c2.3,2.75,5.57,2.86,7.51,4.92c-0.32,0.28-0.65,0.28-0.97,0.01c-4.27-1.47-8-3.53-9.9-8.01c-1.15-2.7-2.19-5.37-2.16-8.37
			c0.02-1.52,0.77-2.76,1.34-4.08c0.16-0.16,0.32-0.33,0.48-0.49c-0.5,2.8-1.14,5.58-0.5,8.47c0.31,1.41,0.95,2.6,1.73,4.46
			c0.39-2.45,0.36-4.52,2.71-5.12c0.4,0.97-0.38,1.66-0.61,2.48c-0.36,1.27-0.21,2.45,0.92,3.23c0.99,0.69,2.18,0.72,3.16-0.02
			c1.05-0.79,1.4-1.91,1.01-3.22C185.58,223.86,184.8,223.18,185.21,222.2z"/>
		<path class="st205" d="M187.66,235.33c0.32,0,0.65,0,0.97-0.01c3.67,0.26,7.26-0.07,10.7-1.46
			C195.71,236.5,191.74,236.39,187.66,235.33z"/>
		<path class="st206" d="M183.76,210.99c-0.48,1.16-1.49,1-2.45,0.98c0.01-0.14,0.01-0.28,0-0.42
			C182.13,211.36,182.94,211.17,183.76,210.99z"/>
		<path class="st207" d="M284.47,125.38c-1.37,0.05-2.23-0.53-2.43-1.94C283.4,123.39,284.27,123.97,284.47,125.38z"/>
		<path class="st207" d="M286.9,126.34c-0.71-0.59-1.8-0.19-2.44-0.96c0.86,0.16,1.35-0.34,1.78-1.22
			C286.51,125.04,286.71,125.69,286.9,126.34z"/>
		<path class="st208" d="M185.68,165.74c0.3-0.6,0.74-0.99,1.46-0.94c0.69,0.65,1.59,0.27,2.37,0.49c2.8,0.94,4.26,2.83,4.15,5.84
			c-0.02,0.5-0.03,0.97,0.26,1.4c-0.31,0.34-0.61,0.68-0.92,1.02c-3.9,0.83-6.53-0.89-7.05-4.75
			C185.81,167.8,185.15,166.81,185.68,165.74z"/>
		<path class="st209" d="M185.68,165.74c0.22,0.82,0.63,1.56,0.79,2.44c0.69,3.93,2.47,5.34,6.53,5.37
			c-3.5,1.83-5.81,1.63-7.71-0.68C183.61,170.84,183.8,167.49,185.68,165.74z"/>
		<path class="st210" d="M193.91,172.53c-0.67-0.31-0.92-0.87-0.87-1.56c0.19-2.87-1.41-4.39-3.93-5.22
			c-0.62-0.48-0.91-0.97,0.16-1.15c0.58-0.1,1.23-0.2,1.79,0.19C193.95,165.5,195.71,169.33,193.91,172.53z"/>
		<path class="st211" d="M191.06,164.78c-0.59,0.44-2.05-0.89-1.95,0.96c-0.61-0.42-2.1,1-1.97-0.94
			C188.45,164.24,189.75,163.86,191.06,164.78z"/>
		<path class="st212" d="M203.22,114.57c0-4.02,2.59-6.69,6.51-6.7c4.17-0.02,6.64,2.62,6.63,7.09c-0.01,3.57-2.79,6.06-6.77,6.05
			C205.61,121,203.22,118.57,203.22,114.57z"/>
		<path class="st213" d="M227.3,131.73c-1.79,0.05-2.78-0.75-2.66-2.59c0.11-1.82,1.16-2.71,2.96-2.78c2.11-0.08,2.68,1.56,2.7,3.01
			C230.33,131.04,228.93,131.73,227.3,131.73z"/>
		<path class="st161" d="M218.78,139.46c0.19,2.53-1.37,2.9-3.23,2.96c-2.3,0.06-2.57-1.51-2.58-3.22
			c-0.02-1.85,1.39-3.24,3.21-3.07C218.23,136.31,219.11,137.54,218.78,139.46z"/>
		<path class="st214" d="M196.9,130.25c-2.14,0.22-3.06-1.01-3.36-2.89c-0.09-0.59,0.16-1.15,0.81-1.29
			c0.57-0.12,0.94,0.3,1.01,0.79C195.54,128.15,197.22,128.74,196.9,130.25C196.9,130.25,196.9,130.25,196.9,130.25z"/>
		<path class="st215" d="M185.21,222.2c0.37,0.62,0.76,1.23,1.11,1.87c1,1.84,0.21,3.45-1.14,4.49c-1.14,0.89-2.86,0.88-4.05-0.12
			c-1.34-1.12-1.71-2.7-0.88-4.37c0.32-0.65,0.73-1.25,1.1-1.87C182.63,222.2,183.92,222.2,185.21,222.2z"/>
		<path class="st216" d="M195.44,218.23c0.05,1.86-1.27,3.5-2.93,3.46c-1.94-0.05-2.88-1.14-2.92-3.08
			c-0.03-1.81,0.78-2.96,2.57-3.18C193.71,215.22,195.39,216.76,195.44,218.23z"/>
		<path class="st66" d="M191.38,230.47c1.28-0.07,2.1,0.3,2.1,1.7c0,1.6-1.06,1.68-2.27,1.72c-1.29,0.05-1.62-0.55-1.64-1.73
			C189.54,230.76,190.17,230.3,191.38,230.47z"/>
		<path class="st217" d="M192.51,216.35c1.35,0.26,1.97,1.01,1.96,2.34c-0.02,1.6-1.33,1.76-2.35,1.83
			c-1.07,0.07-2.13-0.54-1.96-1.86C190.32,217.35,191.26,216.62,192.51,216.35z"/>
		<path class="st218" d="M190.96,231.01c0.7-0.04,1.03,0.31,1.05,0.99c0.02,0.69-0.05,1.32-0.96,1.33c-0.75,0-0.94-0.48-0.94-1.11
			C190.11,231.62,190.2,231.08,190.96,231.01z"/>
	</g>
</g>
</svg>
