<?xml version="1.0" encoding="utf-8"?>
<!-- Generator: Adobe Illustrator 23.0.2, SVG Export Plug-In . SVG Version: 6.00 Build 0)  -->
<svg version="1.1" id="Layer_1" xmlns="http://www.w3.org/2000/svg" xmlns:xlink="http://www.w3.org/1999/xlink" x="0px" y="0px"
	 viewBox="0 0 7.55 8.72" style="enable-background:new 0 0 7.55 8.72;" xml:space="preserve">
<style type="text/css">
	.st0{fill-rule:evenodd;clip-rule:evenodd;fill:#92C83E;}
	.st1{fill-rule:evenodd;clip-rule:evenodd;fill:#FEFEFE;}
</style>
<g>
	<ellipse class="st0" cx="3.77" cy="4.13" rx="3.18" ry="3.06"/>
	<g>
		<path class="st1" d="M3.77,5.35c-0.55,0-1.11,0-1.66,0c-0.15,0-0.25-0.1-0.25-0.24c0-0.48,0-0.97,0-1.45
			c0-0.12,0.01-0.13,0.12-0.07c0.52,0.27,1.04,0.53,1.56,0.8c0.16,0.08,0.31,0.08,0.46,0c0.52-0.27,1.04-0.53,1.55-0.8
			C5.57,3.58,5.58,3.57,5.6,3.56c0.05-0.02,0.08-0.01,0.08,0.04c0,0.51,0,1.02,0,1.53c0,0.11-0.12,0.2-0.23,0.2
			C4.89,5.35,4.33,5.35,3.77,5.35z"/>
		<path class="st1" d="M3.77,2.92c0.59,0,1.18,0,1.77,0c0.05,0,0.1-0.01,0.13,0.04c0.02,0.05-0.02,0.1-0.05,0.14
			C5.59,3.13,5.56,3.15,5.53,3.16C5.01,3.43,4.5,3.71,3.99,3.98c-0.15,0.08-0.29,0.08-0.44,0C3.04,3.71,2.52,3.44,2.01,3.16
			C1.95,3.13,1.9,3.1,1.88,3.04c-0.03-0.06,0-0.11,0.07-0.12c0.02,0,0.04,0,0.06,0C2.6,2.92,3.18,2.92,3.77,2.92z"/>
	</g>
</g>
</svg>
